solid OpenSCAD_Model
  facet normal -1 0 0
    outer loop
      vertex 0 34 0
      vertex 0 24 3
      vertex 0 34 3
    endloop
  endfacet
  facet normal -1 0 0
    outer loop
      vertex 0 24 3
      vertex 0 10 3
      vertex 0 24 13
    endloop
  endfacet
  facet normal -1 0 0
    outer loop
      vertex 0 34 0
      vertex 0 10 3
      vertex 0 24 3
    endloop
  endfacet
  facet normal -1 0 0
    outer loop
      vertex 0 0 0
      vertex 0 10 3
      vertex 0 34 0
    endloop
  endfacet
  facet normal -1 -0 0
    outer loop
      vertex 0 10 3
      vertex 0 0 0
      vertex 0 0 3
    endloop
  endfacet
  facet normal -1 -0 0
    outer loop
      vertex 0 24 13
      vertex 0 10 3
      vertex 0 10 13
    endloop
  endfacet
  facet normal 0 0 1
    outer loop
      vertex 75 10 3
      vertex 69 5 3
      vertex 75 0 3
    endloop
  endfacet
  facet normal 0 0 1
    outer loop
      vertex 75 10 3
      vertex 68.5418 6.85889 3
      vertex 69 5 3
    endloop
  endfacet
  facet normal 0 0 1
    outer loop
      vertex 75 10 3
      vertex 67.2723 8.29193 3
      vertex 68.5418 6.85889 3
    endloop
  endfacet
  facet normal 0 0 1
    outer loop
      vertex 75 10 3
      vertex 65.4821 8.97083 3
      vertex 67.2723 8.29193 3
    endloop
  endfacet
  facet normal 0 0 1
    outer loop
      vertex 61.1162 5.95726 3
      vertex 14 5 3
      vertex 61.1162 4.04274 3
    endloop
  endfacet
  facet normal -0 0 1
    outer loop
      vertex 13.5418 6.85889 3
      vertex 61.1162 5.95726 3
      vertex 62.006 7.65249 3
    endloop
  endfacet
  facet normal -0 0 1
    outer loop
      vertex 12.2723 8.29193 3
      vertex 62.006 7.65249 3
      vertex 63.5816 8.74006 3
    endloop
  endfacet
  facet normal -0 0 1
    outer loop
      vertex 10.4821 8.97083 3
      vertex 63.5816 8.74006 3
      vertex 65.4821 8.97083 3
    endloop
  endfacet
  facet normal 0 0 1
    outer loop
      vertex 10.4821 8.97083 3
      vertex 65.4821 8.97083 3
      vertex 75 10 3
    endloop
  endfacet
  facet normal 0 0 1
    outer loop
      vertex 61.1162 5.95726 3
      vertex 13.5418 6.85889 3
      vertex 14 5 3
    endloop
  endfacet
  facet normal 0 0 1
    outer loop
      vertex 62.006 7.65249 3
      vertex 12.2723 8.29193 3
      vertex 13.5418 6.85889 3
    endloop
  endfacet
  facet normal 0 0 1
    outer loop
      vertex 63.5816 8.74006 3
      vertex 10.4821 8.97083 3
      vertex 12.2723 8.29193 3
    endloop
  endfacet
  facet normal 0 0 1
    outer loop
      vertex 6.11623 5.95726 3
      vertex 0 10 3
      vertex 6.11623 4.04274 3
    endloop
  endfacet
  facet normal 0 0 1
    outer loop
      vertex 7.00596 7.65249 3
      vertex 0 10 3
      vertex 6.11623 5.95726 3
    endloop
  endfacet
  facet normal 0 0 1
    outer loop
      vertex 8.58158 8.74006 3
      vertex 0 10 3
      vertex 7.00596 7.65249 3
    endloop
  endfacet
  facet normal 0 0 1
    outer loop
      vertex 10.4821 8.97083 3
      vertex 0 10 3
      vertex 8.58158 8.74006 3
    endloop
  endfacet
  facet normal -0 0 1
    outer loop
      vertex 0 10 3
      vertex 10.4821 8.97083 3
      vertex 75 10 3
    endloop
  endfacet
  facet normal -0 0 1
    outer loop
      vertex 68.5418 3.14111 3
      vertex 75 0 3
      vertex 69 5 3
    endloop
  endfacet
  facet normal -0 0 1
    outer loop
      vertex 67.2723 1.70806 3
      vertex 75 0 3
      vertex 68.5418 3.14111 3
    endloop
  endfacet
  facet normal -0 0 1
    outer loop
      vertex 65.4821 1.02916 3
      vertex 75 0 3
      vertex 67.2723 1.70806 3
    endloop
  endfacet
  facet normal 0 0 1
    outer loop
      vertex 13.5418 3.14111 3
      vertex 61.1162 4.04274 3
      vertex 14 5 3
    endloop
  endfacet
  facet normal 0 0 1
    outer loop
      vertex 61.1162 4.04274 3
      vertex 13.5418 3.14111 3
      vertex 62.006 2.34751 3
    endloop
  endfacet
  facet normal 0 0 1
    outer loop
      vertex 12.2723 1.70806 3
      vertex 62.006 2.34751 3
      vertex 13.5418 3.14111 3
    endloop
  endfacet
  facet normal 0 0 1
    outer loop
      vertex 62.006 2.34751 3
      vertex 12.2723 1.70806 3
      vertex 63.5816 1.25993 3
    endloop
  endfacet
  facet normal 0 0 1
    outer loop
      vertex 10.4821 1.02916 3
      vertex 63.5816 1.25993 3
      vertex 12.2723 1.70806 3
    endloop
  endfacet
  facet normal 0 0 1
    outer loop
      vertex 63.5816 1.25993 3
      vertex 10.4821 1.02916 3
      vertex 65.4821 1.02916 3
    endloop
  endfacet
  facet normal 0 0 1
    outer loop
      vertex 65.4821 1.02916 3
      vertex 10.4821 1.02916 3
      vertex 75 0 3
    endloop
  endfacet
  facet normal 0 0 1
    outer loop
      vertex 0 0 3
      vertex 6.11623 4.04274 3
      vertex 0 10 3
    endloop
  endfacet
  facet normal 0 0 1
    outer loop
      vertex 10.4821 1.02916 3
      vertex 0 0 3
      vertex 75 0 3
    endloop
  endfacet
  facet normal 0 0 1
    outer loop
      vertex 8.58158 1.25993 3
      vertex 0 0 3
      vertex 10.4821 1.02916 3
    endloop
  endfacet
  facet normal 0 0 1
    outer loop
      vertex 7.00596 2.34751 3
      vertex 0 0 3
      vertex 8.58158 1.25993 3
    endloop
  endfacet
  facet normal 0 0 1
    outer loop
      vertex 6.11623 4.04274 3
      vertex 0 0 3
      vertex 7.00596 2.34751 3
    endloop
  endfacet
  facet normal 0 0 1
    outer loop
      vertex 75 34 3
      vertex 69 29 3
      vertex 75 24 3
    endloop
  endfacet
  facet normal 0 0 1
    outer loop
      vertex 75 34 3
      vertex 68.5418 30.8589 3
      vertex 69 29 3
    endloop
  endfacet
  facet normal 0 0 1
    outer loop
      vertex 75 34 3
      vertex 67.2723 32.2919 3
      vertex 68.5418 30.8589 3
    endloop
  endfacet
  facet normal 0 0 1
    outer loop
      vertex 75 34 3
      vertex 65.4821 32.9708 3
      vertex 67.2723 32.2919 3
    endloop
  endfacet
  facet normal 0 0 1
    outer loop
      vertex 61.1162 29.9573 3
      vertex 14 29 3
      vertex 61.1162 28.0427 3
    endloop
  endfacet
  facet normal -0 0 1
    outer loop
      vertex 13.5418 30.8589 3
      vertex 61.1162 29.9573 3
      vertex 62.006 31.6525 3
    endloop
  endfacet
  facet normal -0 0 1
    outer loop
      vertex 12.2723 32.2919 3
      vertex 62.006 31.6525 3
      vertex 63.5816 32.7401 3
    endloop
  endfacet
  facet normal -0 0 1
    outer loop
      vertex 10.4821 32.9708 3
      vertex 63.5816 32.7401 3
      vertex 65.4821 32.9708 3
    endloop
  endfacet
  facet normal 0 0 1
    outer loop
      vertex 10.4821 32.9708 3
      vertex 65.4821 32.9708 3
      vertex 75 34 3
    endloop
  endfacet
  facet normal 0 0 1
    outer loop
      vertex 61.1162 29.9573 3
      vertex 13.5418 30.8589 3
      vertex 14 29 3
    endloop
  endfacet
  facet normal 0 0 1
    outer loop
      vertex 62.006 31.6525 3
      vertex 12.2723 32.2919 3
      vertex 13.5418 30.8589 3
    endloop
  endfacet
  facet normal 0 0 1
    outer loop
      vertex 63.5816 32.7401 3
      vertex 10.4821 32.9708 3
      vertex 12.2723 32.2919 3
    endloop
  endfacet
  facet normal 0 0 1
    outer loop
      vertex 6.11623 29.9573 3
      vertex 0 34 3
      vertex 6.11623 28.0427 3
    endloop
  endfacet
  facet normal 0 0 1
    outer loop
      vertex 7.00596 31.6525 3
      vertex 0 34 3
      vertex 6.11623 29.9573 3
    endloop
  endfacet
  facet normal 0 0 1
    outer loop
      vertex 8.58158 32.7401 3
      vertex 0 34 3
      vertex 7.00596 31.6525 3
    endloop
  endfacet
  facet normal 0 0 1
    outer loop
      vertex 10.4821 32.9708 3
      vertex 0 34 3
      vertex 8.58158 32.7401 3
    endloop
  endfacet
  facet normal -0 0 1
    outer loop
      vertex 0 34 3
      vertex 10.4821 32.9708 3
      vertex 75 34 3
    endloop
  endfacet
  facet normal -0 0 1
    outer loop
      vertex 68.5418 27.1411 3
      vertex 75 24 3
      vertex 69 29 3
    endloop
  endfacet
  facet normal -0 0 1
    outer loop
      vertex 67.2723 25.7081 3
      vertex 75 24 3
      vertex 68.5418 27.1411 3
    endloop
  endfacet
  facet normal -0 0 1
    outer loop
      vertex 65.4821 25.0292 3
      vertex 75 24 3
      vertex 67.2723 25.7081 3
    endloop
  endfacet
  facet normal 0 0 1
    outer loop
      vertex 13.5418 27.1411 3
      vertex 61.1162 28.0427 3
      vertex 14 29 3
    endloop
  endfacet
  facet normal 0 0 1
    outer loop
      vertex 61.1162 28.0427 3
      vertex 13.5418 27.1411 3
      vertex 62.006 26.3475 3
    endloop
  endfacet
  facet normal 0 0 1
    outer loop
      vertex 12.2723 25.7081 3
      vertex 62.006 26.3475 3
      vertex 13.5418 27.1411 3
    endloop
  endfacet
  facet normal 0 0 1
    outer loop
      vertex 62.006 26.3475 3
      vertex 12.2723 25.7081 3
      vertex 63.5816 25.2599 3
    endloop
  endfacet
  facet normal 0 0 1
    outer loop
      vertex 10.4821 25.0292 3
      vertex 63.5816 25.2599 3
      vertex 12.2723 25.7081 3
    endloop
  endfacet
  facet normal 0 0 1
    outer loop
      vertex 63.5816 25.2599 3
      vertex 10.4821 25.0292 3
      vertex 65.4821 25.0292 3
    endloop
  endfacet
  facet normal 0 0 1
    outer loop
      vertex 65.4821 25.0292 3
      vertex 10.4821 25.0292 3
      vertex 75 24 3
    endloop
  endfacet
  facet normal 0 0 1
    outer loop
      vertex 0 24 3
      vertex 6.11623 28.0427 3
      vertex 0 34 3
    endloop
  endfacet
  facet normal 0 0 1
    outer loop
      vertex 10.4821 25.0292 3
      vertex 0 24 3
      vertex 75 24 3
    endloop
  endfacet
  facet normal 0 0 1
    outer loop
      vertex 8.58158 25.2599 3
      vertex 0 24 3
      vertex 10.4821 25.0292 3
    endloop
  endfacet
  facet normal 0 0 1
    outer loop
      vertex 7.00596 26.3475 3
      vertex 0 24 3
      vertex 8.58158 25.2599 3
    endloop
  endfacet
  facet normal 0 0 1
    outer loop
      vertex 6.11623 28.0427 3
      vertex 0 24 3
      vertex 7.00596 26.3475 3
    endloop
  endfacet
  facet normal 1 0 0
    outer loop
      vertex 75 24 13
      vertex 75 22 10
      vertex 75 24 3
    endloop
  endfacet
  facet normal 1 0 0
    outer loop
      vertex 75 24 13
      vertex 75 12 10
      vertex 75 22 10
    endloop
  endfacet
  facet normal 1 -0 0
    outer loop
      vertex 75 10 13
      vertex 75 12 10
      vertex 75 24 13
    endloop
  endfacet
  facet normal 1 0 0
    outer loop
      vertex 75 10 3
      vertex 75 12 10
      vertex 75 10 13
    endloop
  endfacet
  facet normal 1 0 0
    outer loop
      vertex 75 12 10
      vertex 75 10 3
      vertex 75 12 0
    endloop
  endfacet
  facet normal 1 0 0
    outer loop
      vertex 75 0 0
      vertex 75 10 3
      vertex 75 0 3
    endloop
  endfacet
  facet normal 1 0 0
    outer loop
      vertex 75 10 3
      vertex 75 0 0
      vertex 75 12 0
    endloop
  endfacet
  facet normal 1 -0 0
    outer loop
      vertex 75 24 3
      vertex 75 34 0
      vertex 75 34 3
    endloop
  endfacet
  facet normal 1 0 0
    outer loop
      vertex 75 24 3
      vertex 75 22 0
      vertex 75 34 0
    endloop
  endfacet
  facet normal 1 0 0
    outer loop
      vertex 75 22 0
      vertex 75 24 3
      vertex 75 22 10
    endloop
  endfacet
  facet normal 0 1 -0
    outer loop
      vertex 75 34 0
      vertex 0 34 3
      vertex 75 34 3
    endloop
  endfacet
  facet normal 0 1 0
    outer loop
      vertex 0 34 3
      vertex 75 34 0
      vertex 0 34 0
    endloop
  endfacet
  facet normal 0 0 -1
    outer loop
      vertex 75 0 0
      vertex 66.5 5 0
      vertex 75 12 0
    endloop
  endfacet
  facet normal 0 0 -1
    outer loop
      vertex 75 0 0
      vertex 66.3282 4.30291 0
      vertex 66.5 5 0
    endloop
  endfacet
  facet normal 0 0 -1
    outer loop
      vertex 75 0 0
      vertex 65.8521 3.76552 0
      vertex 66.3282 4.30291 0
    endloop
  endfacet
  facet normal 0 0 -1
    outer loop
      vertex 75 0 0
      vertex 65.1808 3.51094 0
      vertex 65.8521 3.76552 0
    endloop
  endfacet
  facet normal 0 0 -1
    outer loop
      vertex 75 0 0
      vertex 64.4681 3.59748 0
      vertex 65.1808 3.51094 0
    endloop
  endfacet
  facet normal 0 0 -1
    outer loop
      vertex 63.5436 4.64103 0
      vertex 11.5 5 0
      vertex 63.5436 5.35897 0
    endloop
  endfacet
  facet normal 0 0 -1
    outer loop
      vertex 11.3282 4.30291 0
      vertex 63.5436 4.64103 0
      vertex 63.8772 4.00532 0
    endloop
  endfacet
  facet normal 0 0 -1
    outer loop
      vertex 10.8521 3.76552 0
      vertex 63.8772 4.00532 0
      vertex 64.4681 3.59748 0
    endloop
  endfacet
  facet normal 0 0 -1
    outer loop
      vertex 10.1808 3.51094 0
      vertex 64.4681 3.59748 0
      vertex 75 0 0
    endloop
  endfacet
  facet normal -0 0 -1
    outer loop
      vertex 63.5436 4.64103 0
      vertex 11.3282 4.30291 0
      vertex 11.5 5 0
    endloop
  endfacet
  facet normal -0 0 -1
    outer loop
      vertex 63.8772 4.00532 0
      vertex 10.8521 3.76552 0
      vertex 11.3282 4.30291 0
    endloop
  endfacet
  facet normal -0 0 -1
    outer loop
      vertex 64.4681 3.59748 0
      vertex 10.1808 3.51094 0
      vertex 10.8521 3.76552 0
    endloop
  endfacet
  facet normal 0 0 -1
    outer loop
      vertex 0 0 0
      vertex 8.54359 5.35897 0
      vertex 8.54359 4.64103 0
    endloop
  endfacet
  facet normal -0 0 -1
    outer loop
      vertex 5 12 0
      vertex 0 0 0
      vertex 5 22 0
    endloop
  endfacet
  facet normal -0 0 -1
    outer loop
      vertex 8.54359 5.35897 0
      vertex 0 0 0
      vertex 5 12 0
    endloop
  endfacet
  facet normal -0 0 -1
    outer loop
      vertex 8.87723 4.00532 0
      vertex 0 0 0
      vertex 8.54359 4.64103 0
    endloop
  endfacet
  facet normal -0 0 -1
    outer loop
      vertex 9.46809 3.59748 0
      vertex 0 0 0
      vertex 8.87723 4.00532 0
    endloop
  endfacet
  facet normal -0 0 -1
    outer loop
      vertex 10.1808 3.51094 0
      vertex 0 0 0
      vertex 9.46809 3.59748 0
    endloop
  endfacet
  facet normal 0 0 -1
    outer loop
      vertex 0 0 0
      vertex 10.1808 3.51094 0
      vertex 75 0 0
    endloop
  endfacet
  facet normal 0 0 -1
    outer loop
      vertex 66.3282 5.69708 0
      vertex 75 12 0
      vertex 66.5 5 0
    endloop
  endfacet
  facet normal 0 0 -1
    outer loop
      vertex 65.8521 6.23448 0
      vertex 75 12 0
      vertex 66.3282 5.69708 0
    endloop
  endfacet
  facet normal 0 0 -1
    outer loop
      vertex 65.1808 6.48906 0
      vertex 75 12 0
      vertex 65.8521 6.23448 0
    endloop
  endfacet
  facet normal 0 0 -1
    outer loop
      vertex 64.4681 6.40252 0
      vertex 75 12 0
      vertex 65.1808 6.48906 0
    endloop
  endfacet
  facet normal 0 0 -1
    outer loop
      vertex 11.3282 5.69708 0
      vertex 63.5436 5.35897 0
      vertex 11.5 5 0
    endloop
  endfacet
  facet normal 0 0 -1
    outer loop
      vertex 63.5436 5.35897 0
      vertex 11.3282 5.69708 0
      vertex 63.8772 5.99468 0
    endloop
  endfacet
  facet normal 0 0 -1
    outer loop
      vertex 10.8521 6.23448 0
      vertex 63.8772 5.99468 0
      vertex 11.3282 5.69708 0
    endloop
  endfacet
  facet normal 0 0 -1
    outer loop
      vertex 5 12 0
      vertex 63.8772 5.99468 0
      vertex 10.8521 6.23448 0
    endloop
  endfacet
  facet normal 0 0 -1
    outer loop
      vertex 63.8772 5.99468 0
      vertex 5 12 0
      vertex 64.4681 6.40252 0
    endloop
  endfacet
  facet normal 0 0 -1
    outer loop
      vertex 5 12 0
      vertex 10.8521 6.23448 0
      vertex 10.1808 6.48906 0
    endloop
  endfacet
  facet normal 0 0 -1
    outer loop
      vertex 64.4681 6.40252 0
      vertex 5 12 0
      vertex 75 12 0
    endloop
  endfacet
  facet normal 0 0 -1
    outer loop
      vertex 9.46809 6.40252 0
      vertex 5 12 0
      vertex 10.1808 6.48906 0
    endloop
  endfacet
  facet normal 0 0 -1
    outer loop
      vertex 8.87723 5.99468 0
      vertex 5 12 0
      vertex 9.46809 6.40252 0
    endloop
  endfacet
  facet normal 0 0 -1
    outer loop
      vertex 5 12 0
      vertex 8.87723 5.99468 0
      vertex 8.54359 5.35897 0
    endloop
  endfacet
  facet normal 0 0 -1
    outer loop
      vertex 75 22 0
      vertex 66.5 29 0
      vertex 75 34 0
    endloop
  endfacet
  facet normal 0 0 -1
    outer loop
      vertex 75 22 0
      vertex 66.3282 28.3029 0
      vertex 66.5 29 0
    endloop
  endfacet
  facet normal 0 0 -1
    outer loop
      vertex 75 22 0
      vertex 65.8521 27.7655 0
      vertex 66.3282 28.3029 0
    endloop
  endfacet
  facet normal 0 0 -1
    outer loop
      vertex 75 22 0
      vertex 65.1808 27.5109 0
      vertex 65.8521 27.7655 0
    endloop
  endfacet
  facet normal 0 0 -1
    outer loop
      vertex 75 22 0
      vertex 64.4681 27.5975 0
      vertex 65.1808 27.5109 0
    endloop
  endfacet
  facet normal 0 0 -1
    outer loop
      vertex 63.5436 28.641 0
      vertex 11.5 29 0
      vertex 63.5436 29.359 0
    endloop
  endfacet
  facet normal 0 0 -1
    outer loop
      vertex 11.3282 28.3029 0
      vertex 63.5436 28.641 0
      vertex 63.8772 28.0053 0
    endloop
  endfacet
  facet normal 0 0 -1
    outer loop
      vertex 5 22 0
      vertex 63.8772 28.0053 0
      vertex 64.4681 27.5975 0
    endloop
  endfacet
  facet normal 0 0 -1
    outer loop
      vertex 5 22 0
      vertex 64.4681 27.5975 0
      vertex 75 22 0
    endloop
  endfacet
  facet normal -0 0 -1
    outer loop
      vertex 63.5436 28.641 0
      vertex 11.3282 28.3029 0
      vertex 11.5 29 0
    endloop
  endfacet
  facet normal -0 0 -1
    outer loop
      vertex 63.8772 28.0053 0
      vertex 10.8521 27.7655 0
      vertex 11.3282 28.3029 0
    endloop
  endfacet
  facet normal 0 0 -1
    outer loop
      vertex 63.8772 28.0053 0
      vertex 5 22 0
      vertex 10.8521 27.7655 0
    endloop
  endfacet
  facet normal 0 0 -1
    outer loop
      vertex 0 34 0
      vertex 8.54359 28.641 0
      vertex 5 22 0
    endloop
  endfacet
  facet normal -0 0 -1
    outer loop
      vertex 8.87723 28.0053 0
      vertex 5 22 0
      vertex 8.54359 28.641 0
    endloop
  endfacet
  facet normal -0 0 -1
    outer loop
      vertex 9.46809 27.5975 0
      vertex 5 22 0
      vertex 8.87723 28.0053 0
    endloop
  endfacet
  facet normal -0 0 -1
    outer loop
      vertex 10.1808 27.5109 0
      vertex 5 22 0
      vertex 9.46809 27.5975 0
    endloop
  endfacet
  facet normal 0 0 -1
    outer loop
      vertex 10.8521 27.7655 0
      vertex 5 22 0
      vertex 10.1808 27.5109 0
    endloop
  endfacet
  facet normal 0 0 -1
    outer loop
      vertex 66.3282 29.6971 0
      vertex 75 34 0
      vertex 66.5 29 0
    endloop
  endfacet
  facet normal 0 0 -1
    outer loop
      vertex 65.8521 30.2345 0
      vertex 75 34 0
      vertex 66.3282 29.6971 0
    endloop
  endfacet
  facet normal 0 0 -1
    outer loop
      vertex 65.1808 30.4891 0
      vertex 75 34 0
      vertex 65.8521 30.2345 0
    endloop
  endfacet
  facet normal 0 0 -1
    outer loop
      vertex 64.4681 30.4025 0
      vertex 75 34 0
      vertex 65.1808 30.4891 0
    endloop
  endfacet
  facet normal 0 0 -1
    outer loop
      vertex 11.3282 29.6971 0
      vertex 63.5436 29.359 0
      vertex 11.5 29 0
    endloop
  endfacet
  facet normal 0 0 -1
    outer loop
      vertex 63.5436 29.359 0
      vertex 11.3282 29.6971 0
      vertex 63.8772 29.9947 0
    endloop
  endfacet
  facet normal 0 0 -1
    outer loop
      vertex 10.8521 30.2345 0
      vertex 63.8772 29.9947 0
      vertex 11.3282 29.6971 0
    endloop
  endfacet
  facet normal 0 0 -1
    outer loop
      vertex 63.8772 29.9947 0
      vertex 10.8521 30.2345 0
      vertex 64.4681 30.4025 0
    endloop
  endfacet
  facet normal 0 0 -1
    outer loop
      vertex 10.1808 30.4891 0
      vertex 64.4681 30.4025 0
      vertex 10.8521 30.2345 0
    endloop
  endfacet
  facet normal 0 0 -1
    outer loop
      vertex 64.4681 30.4025 0
      vertex 10.1808 30.4891 0
      vertex 75 34 0
    endloop
  endfacet
  facet normal 0 0 -1
    outer loop
      vertex 10.1808 30.4891 0
      vertex 0 34 0
      vertex 75 34 0
    endloop
  endfacet
  facet normal 0 0 -1
    outer loop
      vertex 9.46809 30.4025 0
      vertex 0 34 0
      vertex 10.1808 30.4891 0
    endloop
  endfacet
  facet normal 0 0 -1
    outer loop
      vertex 8.87723 29.9947 0
      vertex 0 34 0
      vertex 9.46809 30.4025 0
    endloop
  endfacet
  facet normal 0 0 -1
    outer loop
      vertex 8.54359 29.359 0
      vertex 0 34 0
      vertex 8.87723 29.9947 0
    endloop
  endfacet
  facet normal 0 0 -1
    outer loop
      vertex 8.54359 28.641 0
      vertex 0 34 0
      vertex 8.54359 29.359 0
    endloop
  endfacet
  facet normal 0 0 -1
    outer loop
      vertex 0 34 0
      vertex 5 22 0
      vertex 0 0 0
    endloop
  endfacet
  facet normal 0 -1 0
    outer loop
      vertex 0 0 0
      vertex 75 0 3
      vertex 0 0 3
    endloop
  endfacet
  facet normal 0 -1 -0
    outer loop
      vertex 75 0 3
      vertex 0 0 0
      vertex 75 0 0
    endloop
  endfacet
  facet normal 0 0 1
    outer loop
      vertex 40 13 13
      vertex 26 13 13
      vertex 40 12 13
    endloop
  endfacet
  facet normal 0 0 1
    outer loop
      vertex 75 24 13
      vertex 51 22 13
      vertex 75 10 13
    endloop
  endfacet
  facet normal -0 0 1
    outer loop
      vertex 0 24 13
      vertex 51 22 13
      vertex 75 24 13
    endloop
  endfacet
  facet normal 0 0 1
    outer loop
      vertex 15 22 13
      vertex 0 24 13
      vertex 15 12 13
    endloop
  endfacet
  facet normal 0 0 1
    outer loop
      vertex 51 22 13
      vertex 0 24 13
      vertex 15 22 13
    endloop
  endfacet
  facet normal -0 0 1
    outer loop
      vertex 51 12 13
      vertex 75 10 13
      vertex 51 22 13
    endloop
  endfacet
  facet normal -0 0 1
    outer loop
      vertex 40 12 13
      vertex 75 10 13
      vertex 51 12 13
    endloop
  endfacet
  facet normal 0 0 1
    outer loop
      vertex 26 12 13
      vertex 40 12 13
      vertex 26 13 13
    endloop
  endfacet
  facet normal 0 0 1
    outer loop
      vertex 0 10 13
      vertex 40 12 13
      vertex 26 12 13
    endloop
  endfacet
  facet normal 0 0 1
    outer loop
      vertex 0 10 13
      vertex 26 12 13
      vertex 15 12 13
    endloop
  endfacet
  facet normal 0 0 1
    outer loop
      vertex 40 12 13
      vertex 0 10 13
      vertex 75 10 13
    endloop
  endfacet
  facet normal 0 0 1
    outer loop
      vertex 0 10 13
      vertex 15 12 13
      vertex 0 24 13
    endloop
  endfacet
  facet normal 0 1 -0
    outer loop
      vertex 75 24 3
      vertex 0 24 13
      vertex 75 24 13
    endloop
  endfacet
  facet normal 0 1 0
    outer loop
      vertex 0 24 13
      vertex 75 24 3
      vertex 0 24 3
    endloop
  endfacet
  facet normal 0 -1 0
    outer loop
      vertex 0 10 3
      vertex 75 10 13
      vertex 0 10 13
    endloop
  endfacet
  facet normal 0 -1 -0
    outer loop
      vertex 75 10 13
      vertex 0 10 3
      vertex 75 10 3
    endloop
  endfacet
  facet normal -0.275669 0.726881 0.629008
    outer loop
      vertex 10.4821 1.02916 3
      vertex 12.2723 1.70806 3
      vertex 10.1808 3.51094 0
    endloop
  endfacet
  facet normal -0.754809 -0.186044 0.629008
    outer loop
      vertex 14 5 3
      vertex 13.5418 6.85889 3
      vertex 11.5 5 0
    endloop
  endfacet
  facet normal -0.754809 -0.186045 0.629008
    outer loop
      vertex 11.5 5 0
      vertex 13.5418 6.85889 3
      vertex 11.3282 5.69708 0
    endloop
  endfacet
  facet normal -0.754809 0.186044 0.629008
    outer loop
      vertex 13.5418 3.14111 3
      vertex 11.5 5 0
      vertex 11.3282 4.30291 0
    endloop
  endfacet
  facet normal 0.688353 0.361275 0.629008
    outer loop
      vertex 6.11623 4.04274 3
      vertex 8.87723 4.00532 0
      vertex 8.54359 4.64103 0
    endloop
  endfacet
  facet normal 0.688353 0.361275 0.629008
    outer loop
      vertex 8.87723 4.00532 0
      vertex 6.11623 4.04274 3
      vertex 7.00596 2.34751 3
    endloop
  endfacet
  facet normal -0.581892 0.515511 0.629008
    outer loop
      vertex 12.2723 1.70806 3
      vertex 13.5418 3.14111 3
      vertex 11.3282 4.30291 0
    endloop
  endfacet
  facet normal -0.754809 0.186044 0.629008
    outer loop
      vertex 13.5418 3.14111 3
      vertex 14 5 3
      vertex 11.5 5 0
    endloop
  endfacet
  facet normal -0.27567 0.72688 0.629008
    outer loop
      vertex 12.2723 1.70806 3
      vertex 10.8521 3.76552 0
      vertex 10.1808 3.51094 0
    endloop
  endfacet
  facet normal 0.441613 -0.639787 0.629008
    outer loop
      vertex 9.46809 6.40252 0
      vertex 8.58158 8.74006 3
      vertex 7.00596 7.65249 3
    endloop
  endfacet
  facet normal 0.0937054 -0.771731 0.629008
    outer loop
      vertex 9.46809 6.40252 0
      vertex 10.1808 6.48906 0
      vertex 8.58158 8.74006 3
    endloop
  endfacet
  facet normal -0.581892 -0.515511 0.629008
    outer loop
      vertex 13.5418 6.85889 3
      vertex 12.2723 8.29193 3
      vertex 11.3282 5.69708 0
    endloop
  endfacet
  facet normal -0.581892 0.515511 0.629008
    outer loop
      vertex 12.2723 1.70806 3
      vertex 11.3282 4.30291 0
      vertex 10.8521 3.76552 0
    endloop
  endfacet
  facet normal 0.441613 0.639787 0.629008
    outer loop
      vertex 8.58158 1.25993 3
      vertex 9.46809 3.59748 0
      vertex 7.00596 2.34751 3
    endloop
  endfacet
  facet normal 0.777399 0 0.629008
    outer loop
      vertex 6.11623 5.95726 3
      vertex 8.54359 4.64103 0
      vertex 8.54359 5.35897 0
    endloop
  endfacet
  facet normal 0.777399 0 0.629008
    outer loop
      vertex 8.54359 4.64103 0
      vertex 6.11623 5.95726 3
      vertex 6.11623 4.04274 3
    endloop
  endfacet
  facet normal 0.0937054 0.771731 0.629008
    outer loop
      vertex 10.1808 3.51094 0
      vertex 9.46809 3.59748 0
      vertex 8.58158 1.25993 3
    endloop
  endfacet
  facet normal 0.093705 0.771731 0.629008
    outer loop
      vertex 10.4821 1.02916 3
      vertex 10.1808 3.51094 0
      vertex 8.58158 1.25993 3
    endloop
  endfacet
  facet normal 0.441613 0.639786 0.629008
    outer loop
      vertex 9.46809 3.59748 0
      vertex 8.87723 4.00532 0
      vertex 7.00596 2.34751 3
    endloop
  endfacet
  facet normal 0.688353 -0.361275 0.629008
    outer loop
      vertex 6.11623 5.95726 3
      vertex 8.87723 5.99468 0
      vertex 7.00596 7.65249 3
    endloop
  endfacet
  facet normal 0.688353 -0.361275 0.629008
    outer loop
      vertex 8.87723 5.99468 0
      vertex 6.11623 5.95726 3
      vertex 8.54359 5.35897 0
    endloop
  endfacet
  facet normal -0.275669 -0.726881 0.629008
    outer loop
      vertex 12.2723 8.29193 3
      vertex 10.4821 8.97083 3
      vertex 10.1808 6.48906 0
    endloop
  endfacet
  facet normal 0.093705 -0.771731 0.629008
    outer loop
      vertex 10.1808 6.48906 0
      vertex 10.4821 8.97083 3
      vertex 8.58158 8.74006 3
    endloop
  endfacet
  facet normal -0.27567 -0.72688 0.629008
    outer loop
      vertex 10.8521 6.23448 0
      vertex 12.2723 8.29193 3
      vertex 10.1808 6.48906 0
    endloop
  endfacet
  facet normal -0.581892 -0.515511 0.629008
    outer loop
      vertex 11.3282 5.69708 0
      vertex 12.2723 8.29193 3
      vertex 10.8521 6.23448 0
    endloop
  endfacet
  facet normal 0.441613 -0.639786 0.629008
    outer loop
      vertex 8.87723 5.99468 0
      vertex 9.46809 6.40252 0
      vertex 7.00596 7.65249 3
    endloop
  endfacet
  facet normal -0.275669 0.726881 0.629008
    outer loop
      vertex 65.4821 1.02916 3
      vertex 67.2723 1.70806 3
      vertex 65.1808 3.51094 0
    endloop
  endfacet
  facet normal -0.754809 -0.186044 0.629008
    outer loop
      vertex 69 5 3
      vertex 68.5418 6.85889 3
      vertex 66.5 5 0
    endloop
  endfacet
  facet normal -0.75481 -0.186042 0.629007
    outer loop
      vertex 66.5 5 0
      vertex 68.5418 6.85889 3
      vertex 66.3282 5.69708 0
    endloop
  endfacet
  facet normal -0.75481 0.186042 0.629007
    outer loop
      vertex 68.5418 3.14111 3
      vertex 66.5 5 0
      vertex 66.3282 4.30291 0
    endloop
  endfacet
  facet normal 0.688352 0.361277 0.629007
    outer loop
      vertex 61.1162 4.04274 3
      vertex 63.8772 4.00532 0
      vertex 63.5436 4.64103 0
    endloop
  endfacet
  facet normal 0.688353 0.361275 0.629008
    outer loop
      vertex 63.8772 4.00532 0
      vertex 61.1162 4.04274 3
      vertex 62.006 2.34751 3
    endloop
  endfacet
  facet normal -0.581892 0.51551 0.629008
    outer loop
      vertex 67.2723 1.70806 3
      vertex 68.5418 3.14111 3
      vertex 66.3282 4.30291 0
    endloop
  endfacet
  facet normal -0.754809 0.186044 0.629008
    outer loop
      vertex 68.5418 3.14111 3
      vertex 69 5 3
      vertex 66.5 5 0
    endloop
  endfacet
  facet normal -0.275669 0.726881 0.629008
    outer loop
      vertex 67.2723 1.70806 3
      vertex 65.8521 3.76552 0
      vertex 65.1808 3.51094 0
    endloop
  endfacet
  facet normal 0.441613 -0.639787 0.629008
    outer loop
      vertex 64.4681 6.40252 0
      vertex 63.5816 8.74006 3
      vertex 62.006 7.65249 3
    endloop
  endfacet
  facet normal 0.0937061 -0.771731 0.629008
    outer loop
      vertex 64.4681 6.40252 0
      vertex 65.1808 6.48906 0
      vertex 63.5816 8.74006 3
    endloop
  endfacet
  facet normal -0.581892 -0.51551 0.629008
    outer loop
      vertex 68.5418 6.85889 3
      vertex 67.2723 8.29193 3
      vertex 66.3282 5.69708 0
    endloop
  endfacet
  facet normal -0.58189 0.515512 0.629008
    outer loop
      vertex 67.2723 1.70806 3
      vertex 66.3282 4.30291 0
      vertex 65.8521 3.76552 0
    endloop
  endfacet
  facet normal 0.441613 0.639787 0.629008
    outer loop
      vertex 63.5816 1.25993 3
      vertex 64.4681 3.59748 0
      vertex 62.006 2.34751 3
    endloop
  endfacet
  facet normal 0.777399 0 0.629007
    outer loop
      vertex 61.1162 5.95726 3
      vertex 63.5436 4.64103 0
      vertex 63.5436 5.35897 0
    endloop
  endfacet
  facet normal 0.777399 0 0.629007
    outer loop
      vertex 63.5436 4.64103 0
      vertex 61.1162 5.95726 3
      vertex 61.1162 4.04274 3
    endloop
  endfacet
  facet normal 0.0937061 0.771731 0.629008
    outer loop
      vertex 65.1808 3.51094 0
      vertex 64.4681 3.59748 0
      vertex 63.5816 1.25993 3
    endloop
  endfacet
  facet normal 0.093705 0.771731 0.629008
    outer loop
      vertex 65.4821 1.02916 3
      vertex 65.1808 3.51094 0
      vertex 63.5816 1.25993 3
    endloop
  endfacet
  facet normal 0.441613 0.639786 0.629008
    outer loop
      vertex 64.4681 3.59748 0
      vertex 63.8772 4.00532 0
      vertex 62.006 2.34751 3
    endloop
  endfacet
  facet normal 0.688353 -0.361275 0.629008
    outer loop
      vertex 61.1162 5.95726 3
      vertex 63.8772 5.99468 0
      vertex 62.006 7.65249 3
    endloop
  endfacet
  facet normal 0.688352 -0.361277 0.629007
    outer loop
      vertex 63.8772 5.99468 0
      vertex 61.1162 5.95726 3
      vertex 63.5436 5.35897 0
    endloop
  endfacet
  facet normal -0.275669 -0.726881 0.629008
    outer loop
      vertex 67.2723 8.29193 3
      vertex 65.4821 8.97083 3
      vertex 65.1808 6.48906 0
    endloop
  endfacet
  facet normal 0.093705 -0.771731 0.629008
    outer loop
      vertex 65.1808 6.48906 0
      vertex 65.4821 8.97083 3
      vertex 63.5816 8.74006 3
    endloop
  endfacet
  facet normal -0.275669 -0.726881 0.629008
    outer loop
      vertex 65.8521 6.23448 0
      vertex 67.2723 8.29193 3
      vertex 65.1808 6.48906 0
    endloop
  endfacet
  facet normal -0.58189 -0.515512 0.629008
    outer loop
      vertex 66.3282 5.69708 0
      vertex 67.2723 8.29193 3
      vertex 65.8521 6.23448 0
    endloop
  endfacet
  facet normal 0.441613 -0.639786 0.629008
    outer loop
      vertex 63.8772 5.99468 0
      vertex 64.4681 6.40252 0
      vertex 62.006 7.65249 3
    endloop
  endfacet
  facet normal -0.27567 0.72688 0.629008
    outer loop
      vertex 10.4821 25.0292 3
      vertex 12.2723 25.7081 3
      vertex 10.1808 27.5109 0
    endloop
  endfacet
  facet normal -0.754809 -0.186044 0.629008
    outer loop
      vertex 14 29 3
      vertex 13.5418 30.8589 3
      vertex 11.5 29 0
    endloop
  endfacet
  facet normal -0.754809 -0.186045 0.629008
    outer loop
      vertex 11.5 29 0
      vertex 13.5418 30.8589 3
      vertex 11.3282 29.6971 0
    endloop
  endfacet
  facet normal -0.754809 0.186044 0.629008
    outer loop
      vertex 13.5418 27.1411 3
      vertex 11.5 29 0
      vertex 11.3282 28.3029 0
    endloop
  endfacet
  facet normal 0.688352 0.361276 0.629008
    outer loop
      vertex 6.11623 28.0427 3
      vertex 8.87723 28.0053 0
      vertex 8.54359 28.641 0
    endloop
  endfacet
  facet normal 0.688353 0.361275 0.629008
    outer loop
      vertex 8.87723 28.0053 0
      vertex 6.11623 28.0427 3
      vertex 7.00596 26.3475 3
    endloop
  endfacet
  facet normal -0.581891 0.515511 0.629008
    outer loop
      vertex 12.2723 25.7081 3
      vertex 13.5418 27.1411 3
      vertex 11.3282 28.3029 0
    endloop
  endfacet
  facet normal -0.754809 0.186044 0.629008
    outer loop
      vertex 13.5418 27.1411 3
      vertex 14 29 3
      vertex 11.5 29 0
    endloop
  endfacet
  facet normal -0.275669 0.726881 0.629008
    outer loop
      vertex 12.2723 25.7081 3
      vertex 10.8521 27.7655 0
      vertex 10.1808 27.5109 0
    endloop
  endfacet
  facet normal 0.441613 -0.639786 0.629008
    outer loop
      vertex 9.46809 30.4025 0
      vertex 8.58158 32.7401 3
      vertex 7.00596 31.6525 3
    endloop
  endfacet
  facet normal 0.0937064 -0.77173 0.629008
    outer loop
      vertex 9.46809 30.4025 0
      vertex 10.1808 30.4891 0
      vertex 8.58158 32.7401 3
    endloop
  endfacet
  facet normal -0.581892 -0.515511 0.629008
    outer loop
      vertex 13.5418 30.8589 3
      vertex 12.2723 32.2919 3
      vertex 11.3282 29.6971 0
    endloop
  endfacet
  facet normal -0.581891 0.515511 0.629008
    outer loop
      vertex 12.2723 25.7081 3
      vertex 11.3282 28.3029 0
      vertex 10.8521 27.7655 0
    endloop
  endfacet
  facet normal 0.441613 0.639787 0.629008
    outer loop
      vertex 8.58158 25.2599 3
      vertex 9.46809 27.5975 0
      vertex 7.00596 26.3475 3
    endloop
  endfacet
  facet normal 0.777399 0 0.629008
    outer loop
      vertex 6.11623 29.9573 3
      vertex 8.54359 28.641 0
      vertex 8.54359 29.359 0
    endloop
  endfacet
  facet normal 0.777399 0 0.629008
    outer loop
      vertex 8.54359 28.641 0
      vertex 6.11623 29.9573 3
      vertex 6.11623 28.0427 3
    endloop
  endfacet
  facet normal 0.0937044 0.771731 0.629008
    outer loop
      vertex 10.1808 27.5109 0
      vertex 9.46809 27.5975 0
      vertex 8.58158 25.2599 3
    endloop
  endfacet
  facet normal 0.0937049 0.771731 0.629008
    outer loop
      vertex 10.4821 25.0292 3
      vertex 10.1808 27.5109 0
      vertex 8.58158 25.2599 3
    endloop
  endfacet
  facet normal 0.441613 0.639786 0.629008
    outer loop
      vertex 9.46809 27.5975 0
      vertex 8.87723 28.0053 0
      vertex 7.00596 26.3475 3
    endloop
  endfacet
  facet normal 0.688353 -0.361275 0.629008
    outer loop
      vertex 6.11623 29.9573 3
      vertex 8.87723 29.9947 0
      vertex 7.00596 31.6525 3
    endloop
  endfacet
  facet normal 0.688352 -0.361276 0.629008
    outer loop
      vertex 8.87723 29.9947 0
      vertex 6.11623 29.9573 3
      vertex 8.54359 29.359 0
    endloop
  endfacet
  facet normal -0.275669 -0.726881 0.629007
    outer loop
      vertex 12.2723 32.2919 3
      vertex 10.4821 32.9708 3
      vertex 10.1808 30.4891 0
    endloop
  endfacet
  facet normal 0.0937034 -0.771731 0.629008
    outer loop
      vertex 10.1808 30.4891 0
      vertex 10.4821 32.9708 3
      vertex 8.58158 32.7401 3
    endloop
  endfacet
  facet normal -0.275671 -0.72688 0.629008
    outer loop
      vertex 10.8521 30.2345 0
      vertex 12.2723 32.2919 3
      vertex 10.1808 30.4891 0
    endloop
  endfacet
  facet normal -0.581891 -0.515511 0.629008
    outer loop
      vertex 11.3282 29.6971 0
      vertex 12.2723 32.2919 3
      vertex 10.8521 30.2345 0
    endloop
  endfacet
  facet normal 0.441613 -0.639786 0.629008
    outer loop
      vertex 8.87723 29.9947 0
      vertex 9.46809 30.4025 0
      vertex 7.00596 31.6525 3
    endloop
  endfacet
  facet normal -0.27567 0.72688 0.629008
    outer loop
      vertex 65.4821 25.0292 3
      vertex 67.2723 25.7081 3
      vertex 65.1808 27.5109 0
    endloop
  endfacet
  facet normal -0.754809 -0.186044 0.629008
    outer loop
      vertex 69 29 3
      vertex 68.5418 30.8589 3
      vertex 66.5 29 0
    endloop
  endfacet
  facet normal -0.75481 -0.186042 0.629007
    outer loop
      vertex 66.5 29 0
      vertex 68.5418 30.8589 3
      vertex 66.3282 29.6971 0
    endloop
  endfacet
  facet normal -0.75481 0.186041 0.629007
    outer loop
      vertex 68.5418 27.1411 3
      vertex 66.5 29 0
      vertex 66.3282 28.3029 0
    endloop
  endfacet
  facet normal 0.688352 0.361278 0.629007
    outer loop
      vertex 61.1162 28.0427 3
      vertex 63.8772 28.0053 0
      vertex 63.5436 28.641 0
    endloop
  endfacet
  facet normal 0.688353 0.361275 0.629008
    outer loop
      vertex 63.8772 28.0053 0
      vertex 61.1162 28.0427 3
      vertex 62.006 26.3475 3
    endloop
  endfacet
  facet normal -0.581892 0.515511 0.629008
    outer loop
      vertex 67.2723 25.7081 3
      vertex 68.5418 27.1411 3
      vertex 66.3282 28.3029 0
    endloop
  endfacet
  facet normal -0.754809 0.186044 0.629008
    outer loop
      vertex 68.5418 27.1411 3
      vertex 69 29 3
      vertex 66.5 29 0
    endloop
  endfacet
  facet normal -0.275668 0.726881 0.629008
    outer loop
      vertex 67.2723 25.7081 3
      vertex 65.8521 27.7655 0
      vertex 65.1808 27.5109 0
    endloop
  endfacet
  facet normal 0.441613 -0.639786 0.629008
    outer loop
      vertex 64.4681 30.4025 0
      vertex 63.5816 32.7401 3
      vertex 62.006 31.6525 3
    endloop
  endfacet
  facet normal 0.093707 -0.77173 0.629008
    outer loop
      vertex 64.4681 30.4025 0
      vertex 65.1808 30.4891 0
      vertex 63.5816 32.7401 3
    endloop
  endfacet
  facet normal -0.581892 -0.51551 0.629008
    outer loop
      vertex 68.5418 30.8589 3
      vertex 67.2723 32.2919 3
      vertex 66.3282 29.6971 0
    endloop
  endfacet
  facet normal -0.581889 0.515513 0.629008
    outer loop
      vertex 67.2723 25.7081 3
      vertex 66.3282 28.3029 0
      vertex 65.8521 27.7655 0
    endloop
  endfacet
  facet normal 0.441613 0.639787 0.629008
    outer loop
      vertex 63.5816 25.2599 3
      vertex 64.4681 27.5975 0
      vertex 62.006 26.3475 3
    endloop
  endfacet
  facet normal 0.777399 0 0.629007
    outer loop
      vertex 61.1162 29.9573 3
      vertex 63.5436 28.641 0
      vertex 63.5436 29.359 0
    endloop
  endfacet
  facet normal 0.777399 0 0.629007
    outer loop
      vertex 63.5436 28.641 0
      vertex 61.1162 29.9573 3
      vertex 61.1162 28.0427 3
    endloop
  endfacet
  facet normal 0.093705 0.771731 0.629008
    outer loop
      vertex 65.1808 27.5109 0
      vertex 64.4681 27.5975 0
      vertex 63.5816 25.2599 3
    endloop
  endfacet
  facet normal 0.0937049 0.771731 0.629008
    outer loop
      vertex 65.4821 25.0292 3
      vertex 65.1808 27.5109 0
      vertex 63.5816 25.2599 3
    endloop
  endfacet
  facet normal 0.441613 0.639786 0.629008
    outer loop
      vertex 64.4681 27.5975 0
      vertex 63.8772 28.0053 0
      vertex 62.006 26.3475 3
    endloop
  endfacet
  facet normal 0.688353 -0.361275 0.629008
    outer loop
      vertex 61.1162 29.9573 3
      vertex 63.8772 29.9947 0
      vertex 62.006 31.6525 3
    endloop
  endfacet
  facet normal 0.688352 -0.361278 0.629007
    outer loop
      vertex 63.8772 29.9947 0
      vertex 61.1162 29.9573 3
      vertex 63.5436 29.359 0
    endloop
  endfacet
  facet normal -0.275668 -0.726881 0.629008
    outer loop
      vertex 67.2723 32.2919 3
      vertex 65.4821 32.9708 3
      vertex 65.1808 30.4891 0
    endloop
  endfacet
  facet normal 0.0937034 -0.771731 0.629007
    outer loop
      vertex 65.1808 30.4891 0
      vertex 65.4821 32.9708 3
      vertex 63.5816 32.7401 3
    endloop
  endfacet
  facet normal -0.27567 -0.72688 0.629008
    outer loop
      vertex 65.8521 30.2345 0
      vertex 67.2723 32.2919 3
      vertex 65.1808 30.4891 0
    endloop
  endfacet
  facet normal -0.581889 -0.515513 0.629009
    outer loop
      vertex 66.3282 29.6971 0
      vertex 67.2723 32.2919 3
      vertex 65.8521 30.2345 0
    endloop
  endfacet
  facet normal 0.441613 -0.639786 0.629008
    outer loop
      vertex 63.8772 29.9947 0
      vertex 64.4681 30.4025 0
      vertex 62.006 31.6525 3
    endloop
  endfacet
  facet normal 1 -0 0
    outer loop
      vertex 5 12 10
      vertex 5 22 0
      vertex 5 22 10
    endloop
  endfacet
  facet normal 1 0 0
    outer loop
      vertex 5 22 0
      vertex 5 12 10
      vertex 5 12 0
    endloop
  endfacet
  facet normal 0 0 -1
    outer loop
      vertex 5 12 10
      vertex 15 22 10
      vertex 15 12 10
    endloop
  endfacet
  facet normal -0 0 -1
    outer loop
      vertex 15 22 10
      vertex 5 12 10
      vertex 5 22 10
    endloop
  endfacet
  facet normal 0 0 -1
    outer loop
      vertex 26 12 10
      vertex 40 13 10
      vertex 40 12 10
    endloop
  endfacet
  facet normal -0 0 -1
    outer loop
      vertex 40 13 10
      vertex 26 12 10
      vertex 26 13 10
    endloop
  endfacet
  facet normal 0 0 -1
    outer loop
      vertex 51 12 10
      vertex 75 22 10
      vertex 75 12 10
    endloop
  endfacet
  facet normal -0 0 -1
    outer loop
      vertex 75 22 10
      vertex 51 12 10
      vertex 51 22 10
    endloop
  endfacet
  facet normal 0 1 -0
    outer loop
      vertex 75 12 0
      vertex 51 12 10
      vertex 75 12 10
    endloop
  endfacet
  facet normal 0 1 0
    outer loop
      vertex 51 12 10
      vertex 75 12 0
      vertex 40 12 10
    endloop
  endfacet
  facet normal 0 1 0
    outer loop
      vertex 5 12 0
      vertex 40 12 10
      vertex 75 12 0
    endloop
  endfacet
  facet normal 0 1 0
    outer loop
      vertex 40 12 10
      vertex 5 12 0
      vertex 26 12 10
    endloop
  endfacet
  facet normal 0 1 0
    outer loop
      vertex 26 12 10
      vertex 5 12 0
      vertex 15 12 10
    endloop
  endfacet
  facet normal 0 1 0
    outer loop
      vertex 15 12 10
      vertex 5 12 0
      vertex 5 12 10
    endloop
  endfacet
  facet normal 0 1 -0
    outer loop
      vertex 51 12 10
      vertex 40 12 13
      vertex 51 12 13
    endloop
  endfacet
  facet normal 0 1 0
    outer loop
      vertex 40 12 13
      vertex 51 12 10
      vertex 40 12 10
    endloop
  endfacet
  facet normal 0 1 -0
    outer loop
      vertex 26 12 10
      vertex 15 12 13
      vertex 26 12 13
    endloop
  endfacet
  facet normal 0 1 0
    outer loop
      vertex 15 12 13
      vertex 26 12 10
      vertex 15 12 10
    endloop
  endfacet
  facet normal 0 -1 0
    outer loop
      vertex 5 22 0
      vertex 15 22 10
      vertex 5 22 10
    endloop
  endfacet
  facet normal 0 -1 -0
    outer loop
      vertex 15 22 10
      vertex 5 22 0
      vertex 51 22 10
    endloop
  endfacet
  facet normal 0 -1 0
    outer loop
      vertex 75 22 0
      vertex 51 22 10
      vertex 5 22 0
    endloop
  endfacet
  facet normal 0 -1 0
    outer loop
      vertex 51 22 10
      vertex 75 22 0
      vertex 75 22 10
    endloop
  endfacet
  facet normal 0 -1 0
    outer loop
      vertex 15 22 10
      vertex 51 22 13
      vertex 15 22 13
    endloop
  endfacet
  facet normal 0 -1 -0
    outer loop
      vertex 51 22 13
      vertex 15 22 10
      vertex 51 22 10
    endloop
  endfacet
  facet normal 1 -0 0
    outer loop
      vertex 15 12 13
      vertex 15 22 10
      vertex 15 22 13
    endloop
  endfacet
  facet normal 1 0 0
    outer loop
      vertex 15 22 10
      vertex 15 12 13
      vertex 15 12 10
    endloop
  endfacet
  facet normal 0 1 -0
    outer loop
      vertex 40 13 10
      vertex 26 13 13
      vertex 40 13 13
    endloop
  endfacet
  facet normal 0 1 0
    outer loop
      vertex 26 13 13
      vertex 40 13 10
      vertex 26 13 10
    endloop
  endfacet
  facet normal -1 0 0
    outer loop
      vertex 26 12 10
      vertex 26 13 13
      vertex 26 13 10
    endloop
  endfacet
  facet normal -1 -0 0
    outer loop
      vertex 26 13 13
      vertex 26 12 10
      vertex 26 12 13
    endloop
  endfacet
  facet normal 1 -0 0
    outer loop
      vertex 40 12 13
      vertex 40 13 10
      vertex 40 13 13
    endloop
  endfacet
  facet normal 1 0 0
    outer loop
      vertex 40 13 10
      vertex 40 12 13
      vertex 40 12 10
    endloop
  endfacet
  facet normal -1 0 0
    outer loop
      vertex 51 12 10
      vertex 51 22 13
      vertex 51 22 10
    endloop
  endfacet
  facet normal -1 -0 0
    outer loop
      vertex 51 22 13
      vertex 51 12 10
      vertex 51 12 13
    endloop
  endfacet
  facet normal -1 0 0
    outer loop
      vertex 77 12 0
      vertex 77 10 3
      vertex 77 12 10
    endloop
  endfacet
  facet normal -1 0 0
    outer loop
      vertex 77 0 0
      vertex 77 10 3
      vertex 77 12 0
    endloop
  endfacet
  facet normal -1 -0 0
    outer loop
      vertex 77 10 3
      vertex 77 0 0
      vertex 77 0 3
    endloop
  endfacet
  facet normal -1 0 0
    outer loop
      vertex 77 34 0
      vertex 77 24 3
      vertex 77 34 3
    endloop
  endfacet
  facet normal -1 0 0
    outer loop
      vertex 77 22 0
      vertex 77 24 3
      vertex 77 34 0
    endloop
  endfacet
  facet normal -1 0 0
    outer loop
      vertex 77 22 10
      vertex 77 24 3
      vertex 77 22 0
    endloop
  endfacet
  facet normal -1 0 0
    outer loop
      vertex 77 24 3
      vertex 77 22 10
      vertex 77 24 13
    endloop
  endfacet
  facet normal -1 0 0
    outer loop
      vertex 77 12 10
      vertex 77 24 13
      vertex 77 22 10
    endloop
  endfacet
  facet normal -1 0 0
    outer loop
      vertex 77 12 10
      vertex 77 10 13
      vertex 77 24 13
    endloop
  endfacet
  facet normal -1 0 0
    outer loop
      vertex 77 10 13
      vertex 77 12 10
      vertex 77 10 3
    endloop
  endfacet
  facet normal 0 0 1
    outer loop
      vertex 94 10 3
      vertex 89.5 5 3
      vertex 94 0 3
    endloop
  endfacet
  facet normal 0 0 1
    outer loop
      vertex 94 10 3
      vertex 89.0418 6.85889 3
      vertex 89.5 5 3
    endloop
  endfacet
  facet normal 0 0 1
    outer loop
      vertex 94 10 3
      vertex 87.7723 8.29193 3
      vertex 89.0418 6.85889 3
    endloop
  endfacet
  facet normal 0 0 1
    outer loop
      vertex 94 10 3
      vertex 85.9821 8.97083 3
      vertex 87.7723 8.29193 3
    endloop
  endfacet
  facet normal -0 0 1
    outer loop
      vertex 77 10 3
      vertex 85.9821 8.97083 3
      vertex 94 10 3
    endloop
  endfacet
  facet normal 0 0 1
    outer loop
      vertex 81.6162 5.95726 3
      vertex 77 10 3
      vertex 81.6162 4.04274 3
    endloop
  endfacet
  facet normal 0 0 1
    outer loop
      vertex 82.506 7.65249 3
      vertex 77 10 3
      vertex 81.6162 5.95726 3
    endloop
  endfacet
  facet normal 0 0 1
    outer loop
      vertex 84.0816 8.74006 3
      vertex 77 10 3
      vertex 82.506 7.65249 3
    endloop
  endfacet
  facet normal 0 0 1
    outer loop
      vertex 85.9821 8.97083 3
      vertex 77 10 3
      vertex 84.0816 8.74006 3
    endloop
  endfacet
  facet normal -0 0 1
    outer loop
      vertex 89.0418 3.14111 3
      vertex 94 0 3
      vertex 89.5 5 3
    endloop
  endfacet
  facet normal -0 0 1
    outer loop
      vertex 87.7723 1.70806 3
      vertex 94 0 3
      vertex 89.0418 3.14111 3
    endloop
  endfacet
  facet normal -0 0 1
    outer loop
      vertex 85.9821 1.02916 3
      vertex 94 0 3
      vertex 87.7723 1.70806 3
    endloop
  endfacet
  facet normal 0 0 1
    outer loop
      vertex 77 0 3
      vertex 85.9821 1.02916 3
      vertex 84.0816 1.25993 3
    endloop
  endfacet
  facet normal 0 0 1
    outer loop
      vertex 77 0 3
      vertex 81.6162 4.04274 3
      vertex 77 10 3
    endloop
  endfacet
  facet normal 0 0 1
    outer loop
      vertex 85.9821 1.02916 3
      vertex 77 0 3
      vertex 94 0 3
    endloop
  endfacet
  facet normal 0 0 1
    outer loop
      vertex 82.506 2.34751 3
      vertex 77 0 3
      vertex 84.0816 1.25993 3
    endloop
  endfacet
  facet normal 0 0 1
    outer loop
      vertex 81.6162 4.04274 3
      vertex 77 0 3
      vertex 82.506 2.34751 3
    endloop
  endfacet
  facet normal 0 0 1
    outer loop
      vertex 94 34 3
      vertex 89.5 29 3
      vertex 94 24 3
    endloop
  endfacet
  facet normal 0 0 1
    outer loop
      vertex 94 34 3
      vertex 89.0418 30.8589 3
      vertex 89.5 29 3
    endloop
  endfacet
  facet normal 0 0 1
    outer loop
      vertex 94 34 3
      vertex 87.7723 32.2919 3
      vertex 89.0418 30.8589 3
    endloop
  endfacet
  facet normal 0 0 1
    outer loop
      vertex 94 34 3
      vertex 85.9821 32.9708 3
      vertex 87.7723 32.2919 3
    endloop
  endfacet
  facet normal -0 0 1
    outer loop
      vertex 77 34 3
      vertex 85.9821 32.9708 3
      vertex 94 34 3
    endloop
  endfacet
  facet normal 0 0 1
    outer loop
      vertex 81.6162 29.9573 3
      vertex 77 34 3
      vertex 81.6162 28.0427 3
    endloop
  endfacet
  facet normal 0 0 1
    outer loop
      vertex 82.506 31.6525 3
      vertex 77 34 3
      vertex 81.6162 29.9573 3
    endloop
  endfacet
  facet normal 0 0 1
    outer loop
      vertex 84.0816 32.7401 3
      vertex 77 34 3
      vertex 82.506 31.6525 3
    endloop
  endfacet
  facet normal 0 0 1
    outer loop
      vertex 85.9821 32.9708 3
      vertex 77 34 3
      vertex 84.0816 32.7401 3
    endloop
  endfacet
  facet normal -0 0 1
    outer loop
      vertex 89.0418 27.1411 3
      vertex 94 24 3
      vertex 89.5 29 3
    endloop
  endfacet
  facet normal -0 0 1
    outer loop
      vertex 87.7723 25.7081 3
      vertex 94 24 3
      vertex 89.0418 27.1411 3
    endloop
  endfacet
  facet normal -0 0 1
    outer loop
      vertex 85.9821 25.0292 3
      vertex 94 24 3
      vertex 87.7723 25.7081 3
    endloop
  endfacet
  facet normal 0 0 1
    outer loop
      vertex 77 24 3
      vertex 85.9821 25.0292 3
      vertex 84.0816 25.2599 3
    endloop
  endfacet
  facet normal 0 0 1
    outer loop
      vertex 77 24 3
      vertex 81.6162 28.0427 3
      vertex 77 34 3
    endloop
  endfacet
  facet normal 0 0 1
    outer loop
      vertex 85.9821 25.0292 3
      vertex 77 24 3
      vertex 94 24 3
    endloop
  endfacet
  facet normal 0 0 1
    outer loop
      vertex 82.506 26.3475 3
      vertex 77 24 3
      vertex 84.0816 25.2599 3
    endloop
  endfacet
  facet normal 0 0 1
    outer loop
      vertex 81.6162 28.0427 3
      vertex 77 24 3
      vertex 82.506 26.3475 3
    endloop
  endfacet
  facet normal 1 0 0
    outer loop
      vertex 94 24 13
      vertex 94 10 13
      vertex 94 24 3
    endloop
  endfacet
  facet normal 1 -0 0
    outer loop
      vertex 94 24 3
      vertex 94 34 0
      vertex 94 34 3
    endloop
  endfacet
  facet normal 1 0 0
    outer loop
      vertex 94 10 3
      vertex 94 24 3
      vertex 94 10 13
    endloop
  endfacet
  facet normal 1 -0 0
    outer loop
      vertex 94 10 3
      vertex 94 34 0
      vertex 94 24 3
    endloop
  endfacet
  facet normal 1 0 0
    outer loop
      vertex 94 0 0
      vertex 94 10 3
      vertex 94 0 3
    endloop
  endfacet
  facet normal 1 0 0
    outer loop
      vertex 94 10 3
      vertex 94 0 0
      vertex 94 34 0
    endloop
  endfacet
  facet normal 0 1 -0
    outer loop
      vertex 94 34 0
      vertex 77 34 3
      vertex 94 34 3
    endloop
  endfacet
  facet normal 0 1 0
    outer loop
      vertex 77 34 3
      vertex 94 34 0
      vertex 77 34 0
    endloop
  endfacet
  facet normal 0 0 -1
    outer loop
      vertex 92 22 0
      vertex 86.8282 28.3029 0
      vertex 87 29 0
    endloop
  endfacet
  facet normal 0 0 -1
    outer loop
      vertex 92 22 0
      vertex 86.3521 27.7655 0
      vertex 86.8282 28.3029 0
    endloop
  endfacet
  facet normal 0 0 -1
    outer loop
      vertex 92 22 0
      vertex 85.6808 27.5109 0
      vertex 86.3521 27.7655 0
    endloop
  endfacet
  facet normal 0 0 -1
    outer loop
      vertex 77 22 0
      vertex 85.6808 27.5109 0
      vertex 92 22 0
    endloop
  endfacet
  facet normal -0 0 -1
    outer loop
      vertex 85.6808 27.5109 0
      vertex 77 22 0
      vertex 84.9681 27.5975 0
    endloop
  endfacet
  facet normal 0 0 -1
    outer loop
      vertex 77 34 0
      vertex 84.0436 28.641 0
      vertex 77 22 0
    endloop
  endfacet
  facet normal -0 0 -1
    outer loop
      vertex 84.3772 28.0053 0
      vertex 77 22 0
      vertex 84.0436 28.641 0
    endloop
  endfacet
  facet normal -0 0 -1
    outer loop
      vertex 84.9681 27.5975 0
      vertex 77 22 0
      vertex 84.3772 28.0053 0
    endloop
  endfacet
  facet normal 0 0 -1
    outer loop
      vertex 94 0 0
      vertex 92 12 0
      vertex 94 34 0
    endloop
  endfacet
  facet normal 0 0 -1
    outer loop
      vertex 94 0 0
      vertex 87 5 0
      vertex 92 12 0
    endloop
  endfacet
  facet normal 0 0 -1
    outer loop
      vertex 94 0 0
      vertex 86.8282 4.30291 0
      vertex 87 5 0
    endloop
  endfacet
  facet normal 0 0 -1
    outer loop
      vertex 94 0 0
      vertex 86.3521 3.76552 0
      vertex 86.8282 4.30291 0
    endloop
  endfacet
  facet normal 0 0 -1
    outer loop
      vertex 94 0 0
      vertex 85.6808 3.51094 0
      vertex 86.3521 3.76552 0
    endloop
  endfacet
  facet normal 0 0 -1
    outer loop
      vertex 77 0 0
      vertex 85.6808 3.51094 0
      vertex 94 0 0
    endloop
  endfacet
  facet normal -0 0 -1
    outer loop
      vertex 84.0436 4.64103 0
      vertex 77 0 0
      vertex 84.0436 5.35897 0
    endloop
  endfacet
  facet normal -0 0 -1
    outer loop
      vertex 84.3772 4.00532 0
      vertex 77 0 0
      vertex 84.0436 4.64103 0
    endloop
  endfacet
  facet normal -0 0 -1
    outer loop
      vertex 84.9681 3.59748 0
      vertex 77 0 0
      vertex 84.3772 4.00532 0
    endloop
  endfacet
  facet normal -0 0 -1
    outer loop
      vertex 85.6808 3.51094 0
      vertex 77 0 0
      vertex 84.9681 3.59748 0
    endloop
  endfacet
  facet normal 0 0 -1
    outer loop
      vertex 92 22 0
      vertex 94 34 0
      vertex 92 12 0
    endloop
  endfacet
  facet normal 0 0 -1
    outer loop
      vertex 87 29 0
      vertex 94 34 0
      vertex 92 22 0
    endloop
  endfacet
  facet normal 0 0 -1
    outer loop
      vertex 86.8282 29.6971 0
      vertex 94 34 0
      vertex 87 29 0
    endloop
  endfacet
  facet normal 0 0 -1
    outer loop
      vertex 86.3521 30.2345 0
      vertex 94 34 0
      vertex 86.8282 29.6971 0
    endloop
  endfacet
  facet normal 0 0 -1
    outer loop
      vertex 85.6808 30.4891 0
      vertex 94 34 0
      vertex 86.3521 30.2345 0
    endloop
  endfacet
  facet normal 0 0 -1
    outer loop
      vertex 77 34 0
      vertex 85.6808 30.4891 0
      vertex 84.9681 30.4025 0
    endloop
  endfacet
  facet normal 0 0 -1
    outer loop
      vertex 84.0436 28.641 0
      vertex 77 34 0
      vertex 84.0436 29.359 0
    endloop
  endfacet
  facet normal 0 0 -1
    outer loop
      vertex 85.6808 30.4891 0
      vertex 77 34 0
      vertex 94 34 0
    endloop
  endfacet
  facet normal 0 0 -1
    outer loop
      vertex 84.3772 29.9947 0
      vertex 77 34 0
      vertex 84.9681 30.4025 0
    endloop
  endfacet
  facet normal 0 0 -1
    outer loop
      vertex 84.0436 29.359 0
      vertex 77 34 0
      vertex 84.3772 29.9947 0
    endloop
  endfacet
  facet normal 0 0 -1
    outer loop
      vertex 86.8282 5.69708 0
      vertex 92 12 0
      vertex 87 5 0
    endloop
  endfacet
  facet normal 0 0 -1
    outer loop
      vertex 86.3521 6.23448 0
      vertex 92 12 0
      vertex 86.8282 5.69708 0
    endloop
  endfacet
  facet normal 0 0 -1
    outer loop
      vertex 85.6808 6.48906 0
      vertex 92 12 0
      vertex 86.3521 6.23448 0
    endloop
  endfacet
  facet normal 0 0 -1
    outer loop
      vertex 77 12 0
      vertex 85.6808 6.48906 0
      vertex 84.9681 6.40252 0
    endloop
  endfacet
  facet normal 0 0 -1
    outer loop
      vertex 77 12 0
      vertex 84.9681 6.40252 0
      vertex 84.3772 5.99468 0
    endloop
  endfacet
  facet normal 0 0 -1
    outer loop
      vertex 77 12 0
      vertex 84.0436 5.35897 0
      vertex 77 0 0
    endloop
  endfacet
  facet normal 0 0 -1
    outer loop
      vertex 85.6808 6.48906 0
      vertex 77 12 0
      vertex 92 12 0
    endloop
  endfacet
  facet normal 0 0 -1
    outer loop
      vertex 84.0436 5.35897 0
      vertex 77 12 0
      vertex 84.3772 5.99468 0
    endloop
  endfacet
  facet normal 0 -1 0
    outer loop
      vertex 77 0 0
      vertex 94 0 3
      vertex 77 0 3
    endloop
  endfacet
  facet normal 0 -1 -0
    outer loop
      vertex 94 0 3
      vertex 77 0 0
      vertex 94 0 0
    endloop
  endfacet
  facet normal -0 0 1
    outer loop
      vertex 77 24 13
      vertex 94 10 13
      vertex 94 24 13
    endloop
  endfacet
  facet normal 0 0 1
    outer loop
      vertex 94 10 13
      vertex 77 24 13
      vertex 77 10 13
    endloop
  endfacet
  facet normal 0 -1 0
    outer loop
      vertex 77 10 3
      vertex 94 10 13
      vertex 77 10 13
    endloop
  endfacet
  facet normal 0 -1 -0
    outer loop
      vertex 94 10 13
      vertex 77 10 3
      vertex 94 10 3
    endloop
  endfacet
  facet normal 0 1 -0
    outer loop
      vertex 94 24 3
      vertex 77 24 13
      vertex 94 24 13
    endloop
  endfacet
  facet normal 0 1 0
    outer loop
      vertex 77 24 13
      vertex 94 24 3
      vertex 77 24 3
    endloop
  endfacet
  facet normal -0.275669 0.726881 0.629008
    outer loop
      vertex 85.9821 1.02916 3
      vertex 87.7723 1.70806 3
      vertex 85.6808 3.51094 0
    endloop
  endfacet
  facet normal -0.754809 -0.186044 0.629008
    outer loop
      vertex 89.5 5 3
      vertex 89.0418 6.85889 3
      vertex 87 5 0
    endloop
  endfacet
  facet normal -0.75481 -0.186042 0.629007
    outer loop
      vertex 87 5 0
      vertex 89.0418 6.85889 3
      vertex 86.8282 5.69708 0
    endloop
  endfacet
  facet normal -0.75481 0.186042 0.629007
    outer loop
      vertex 89.0418 3.14111 3
      vertex 87 5 0
      vertex 86.8282 4.30291 0
    endloop
  endfacet
  facet normal 0.688352 0.361277 0.629007
    outer loop
      vertex 81.6162 4.04274 3
      vertex 84.3772 4.00532 0
      vertex 84.0436 4.64103 0
    endloop
  endfacet
  facet normal 0.688353 0.361275 0.629008
    outer loop
      vertex 84.3772 4.00532 0
      vertex 81.6162 4.04274 3
      vertex 82.506 2.34751 3
    endloop
  endfacet
  facet normal -0.581892 0.51551 0.629008
    outer loop
      vertex 87.7723 1.70806 3
      vertex 89.0418 3.14111 3
      vertex 86.8282 4.30291 0
    endloop
  endfacet
  facet normal -0.754809 0.186044 0.629008
    outer loop
      vertex 89.0418 3.14111 3
      vertex 89.5 5 3
      vertex 87 5 0
    endloop
  endfacet
  facet normal -0.275669 0.726881 0.629008
    outer loop
      vertex 87.7723 1.70806 3
      vertex 86.3521 3.76552 0
      vertex 85.6808 3.51094 0
    endloop
  endfacet
  facet normal 0.441613 -0.639787 0.629008
    outer loop
      vertex 84.9681 6.40252 0
      vertex 84.0816 8.74006 3
      vertex 82.506 7.65249 3
    endloop
  endfacet
  facet normal 0.0937061 -0.771731 0.629008
    outer loop
      vertex 84.9681 6.40252 0
      vertex 85.6808 6.48906 0
      vertex 84.0816 8.74006 3
    endloop
  endfacet
  facet normal -0.581892 -0.51551 0.629008
    outer loop
      vertex 89.0418 6.85889 3
      vertex 87.7723 8.29193 3
      vertex 86.8282 5.69708 0
    endloop
  endfacet
  facet normal -0.58189 0.515512 0.629008
    outer loop
      vertex 87.7723 1.70806 3
      vertex 86.8282 4.30291 0
      vertex 86.3521 3.76552 0
    endloop
  endfacet
  facet normal 0.441613 0.639787 0.629008
    outer loop
      vertex 84.0816 1.25993 3
      vertex 84.9681 3.59748 0
      vertex 82.506 2.34751 3
    endloop
  endfacet
  facet normal 0.777399 0 0.629007
    outer loop
      vertex 81.6162 5.95726 3
      vertex 84.0436 4.64103 0
      vertex 84.0436 5.35897 0
    endloop
  endfacet
  facet normal 0.777399 0 0.629007
    outer loop
      vertex 84.0436 4.64103 0
      vertex 81.6162 5.95726 3
      vertex 81.6162 4.04274 3
    endloop
  endfacet
  facet normal 0.0937061 0.771731 0.629008
    outer loop
      vertex 85.6808 3.51094 0
      vertex 84.9681 3.59748 0
      vertex 84.0816 1.25993 3
    endloop
  endfacet
  facet normal 0.093705 0.771731 0.629008
    outer loop
      vertex 85.9821 1.02916 3
      vertex 85.6808 3.51094 0
      vertex 84.0816 1.25993 3
    endloop
  endfacet
  facet normal 0.441613 0.639786 0.629008
    outer loop
      vertex 84.9681 3.59748 0
      vertex 84.3772 4.00532 0
      vertex 82.506 2.34751 3
    endloop
  endfacet
  facet normal 0.688353 -0.361275 0.629008
    outer loop
      vertex 81.6162 5.95726 3
      vertex 84.3772 5.99468 0
      vertex 82.506 7.65249 3
    endloop
  endfacet
  facet normal 0.688352 -0.361277 0.629007
    outer loop
      vertex 84.3772 5.99468 0
      vertex 81.6162 5.95726 3
      vertex 84.0436 5.35897 0
    endloop
  endfacet
  facet normal -0.275669 -0.726881 0.629008
    outer loop
      vertex 87.7723 8.29193 3
      vertex 85.9821 8.97083 3
      vertex 85.6808 6.48906 0
    endloop
  endfacet
  facet normal 0.093705 -0.771731 0.629008
    outer loop
      vertex 85.6808 6.48906 0
      vertex 85.9821 8.97083 3
      vertex 84.0816 8.74006 3
    endloop
  endfacet
  facet normal -0.275669 -0.726881 0.629008
    outer loop
      vertex 86.3521 6.23448 0
      vertex 87.7723 8.29193 3
      vertex 85.6808 6.48906 0
    endloop
  endfacet
  facet normal -0.58189 -0.515512 0.629008
    outer loop
      vertex 86.8282 5.69708 0
      vertex 87.7723 8.29193 3
      vertex 86.3521 6.23448 0
    endloop
  endfacet
  facet normal 0.441613 -0.639786 0.629008
    outer loop
      vertex 84.3772 5.99468 0
      vertex 84.9681 6.40252 0
      vertex 82.506 7.65249 3
    endloop
  endfacet
  facet normal -0.27567 0.72688 0.629008
    outer loop
      vertex 85.9821 25.0292 3
      vertex 87.7723 25.7081 3
      vertex 85.6808 27.5109 0
    endloop
  endfacet
  facet normal -0.754809 -0.186044 0.629008
    outer loop
      vertex 89.5 29 3
      vertex 89.0418 30.8589 3
      vertex 87 29 0
    endloop
  endfacet
  facet normal -0.75481 -0.186042 0.629007
    outer loop
      vertex 87 29 0
      vertex 89.0418 30.8589 3
      vertex 86.8282 29.6971 0
    endloop
  endfacet
  facet normal -0.75481 0.186041 0.629007
    outer loop
      vertex 89.0418 27.1411 3
      vertex 87 29 0
      vertex 86.8282 28.3029 0
    endloop
  endfacet
  facet normal 0.688352 0.361278 0.629007
    outer loop
      vertex 81.6162 28.0427 3
      vertex 84.3772 28.0053 0
      vertex 84.0436 28.641 0
    endloop
  endfacet
  facet normal 0.688353 0.361275 0.629008
    outer loop
      vertex 84.3772 28.0053 0
      vertex 81.6162 28.0427 3
      vertex 82.506 26.3475 3
    endloop
  endfacet
  facet normal -0.581892 0.515511 0.629008
    outer loop
      vertex 87.7723 25.7081 3
      vertex 89.0418 27.1411 3
      vertex 86.8282 28.3029 0
    endloop
  endfacet
  facet normal -0.754809 0.186044 0.629008
    outer loop
      vertex 89.0418 27.1411 3
      vertex 89.5 29 3
      vertex 87 29 0
    endloop
  endfacet
  facet normal -0.275668 0.726881 0.629008
    outer loop
      vertex 87.7723 25.7081 3
      vertex 86.3521 27.7655 0
      vertex 85.6808 27.5109 0
    endloop
  endfacet
  facet normal 0.441613 -0.639786 0.629008
    outer loop
      vertex 84.9681 30.4025 0
      vertex 84.0816 32.7401 3
      vertex 82.506 31.6525 3
    endloop
  endfacet
  facet normal 0.093707 -0.77173 0.629008
    outer loop
      vertex 84.9681 30.4025 0
      vertex 85.6808 30.4891 0
      vertex 84.0816 32.7401 3
    endloop
  endfacet
  facet normal -0.581892 -0.51551 0.629008
    outer loop
      vertex 89.0418 30.8589 3
      vertex 87.7723 32.2919 3
      vertex 86.8282 29.6971 0
    endloop
  endfacet
  facet normal -0.581889 0.515513 0.629008
    outer loop
      vertex 87.7723 25.7081 3
      vertex 86.8282 28.3029 0
      vertex 86.3521 27.7655 0
    endloop
  endfacet
  facet normal 0.441613 0.639787 0.629008
    outer loop
      vertex 84.0816 25.2599 3
      vertex 84.9681 27.5975 0
      vertex 82.506 26.3475 3
    endloop
  endfacet
  facet normal 0.777399 0 0.629007
    outer loop
      vertex 81.6162 29.9573 3
      vertex 84.0436 28.641 0
      vertex 84.0436 29.359 0
    endloop
  endfacet
  facet normal 0.777399 0 0.629007
    outer loop
      vertex 84.0436 28.641 0
      vertex 81.6162 29.9573 3
      vertex 81.6162 28.0427 3
    endloop
  endfacet
  facet normal 0.093705 0.771731 0.629008
    outer loop
      vertex 85.6808 27.5109 0
      vertex 84.9681 27.5975 0
      vertex 84.0816 25.2599 3
    endloop
  endfacet
  facet normal 0.0937049 0.771731 0.629008
    outer loop
      vertex 85.9821 25.0292 3
      vertex 85.6808 27.5109 0
      vertex 84.0816 25.2599 3
    endloop
  endfacet
  facet normal 0.441613 0.639786 0.629008
    outer loop
      vertex 84.9681 27.5975 0
      vertex 84.3772 28.0053 0
      vertex 82.506 26.3475 3
    endloop
  endfacet
  facet normal 0.688353 -0.361275 0.629008
    outer loop
      vertex 81.6162 29.9573 3
      vertex 84.3772 29.9947 0
      vertex 82.506 31.6525 3
    endloop
  endfacet
  facet normal 0.688352 -0.361278 0.629007
    outer loop
      vertex 84.3772 29.9947 0
      vertex 81.6162 29.9573 3
      vertex 84.0436 29.359 0
    endloop
  endfacet
  facet normal -0.275668 -0.726881 0.629008
    outer loop
      vertex 87.7723 32.2919 3
      vertex 85.9821 32.9708 3
      vertex 85.6808 30.4891 0
    endloop
  endfacet
  facet normal 0.0937034 -0.771731 0.629007
    outer loop
      vertex 85.6808 30.4891 0
      vertex 85.9821 32.9708 3
      vertex 84.0816 32.7401 3
    endloop
  endfacet
  facet normal -0.27567 -0.72688 0.629008
    outer loop
      vertex 86.3521 30.2345 0
      vertex 87.7723 32.2919 3
      vertex 85.6808 30.4891 0
    endloop
  endfacet
  facet normal -0.581889 -0.515513 0.629009
    outer loop
      vertex 86.8282 29.6971 0
      vertex 87.7723 32.2919 3
      vertex 86.3521 30.2345 0
    endloop
  endfacet
  facet normal 0.441613 -0.639786 0.629008
    outer loop
      vertex 84.3772 29.9947 0
      vertex 84.9681 30.4025 0
      vertex 82.506 31.6525 3
    endloop
  endfacet
  facet normal 0 0 -1
    outer loop
      vertex 77 12 10
      vertex 92 22 10
      vertex 92 12 10
    endloop
  endfacet
  facet normal -0 0 -1
    outer loop
      vertex 92 22 10
      vertex 77 12 10
      vertex 77 22 10
    endloop
  endfacet
  facet normal -1 0 0
    outer loop
      vertex 92 12 0
      vertex 92 22 10
      vertex 92 22 0
    endloop
  endfacet
  facet normal -1 -0 0
    outer loop
      vertex 92 22 10
      vertex 92 12 0
      vertex 92 12 10
    endloop
  endfacet
  facet normal 0 -1 0
    outer loop
      vertex 77 22 0
      vertex 92 22 10
      vertex 77 22 10
    endloop
  endfacet
  facet normal 0 -1 -0
    outer loop
      vertex 92 22 10
      vertex 77 22 0
      vertex 92 22 0
    endloop
  endfacet
  facet normal 0 1 -0
    outer loop
      vertex 92 12 0
      vertex 77 12 10
      vertex 92 12 10
    endloop
  endfacet
  facet normal 0 1 0
    outer loop
      vertex 77 12 10
      vertex 92 12 0
      vertex 77 12 0
    endloop
  endfacet
  facet normal -1 0 0
    outer loop
      vertex 6 13 0
      vertex 6 21 8
      vertex 6 21 0
    endloop
  endfacet
  facet normal -1 -0 0
    outer loop
      vertex 6 21 8
      vertex 6 13 0
      vertex 6 13 8
    endloop
  endfacet
  facet normal -0 0 1
    outer loop
      vertex 6 21 8
      vertex 16 13 8
      vertex 16 21 8
    endloop
  endfacet
  facet normal 0 0 1
    outer loop
      vertex 16 13 8
      vertex 6 21 8
      vertex 6 13 8
    endloop
  endfacet
  facet normal -0 0 1
    outer loop
      vertex 25 21 8
      vertex 76 13 8
      vertex 76 21 8
    endloop
  endfacet
  facet normal 0 0 1
    outer loop
      vertex 76 13 8
      vertex 25 21 8
      vertex 25 13 8
    endloop
  endfacet
  facet normal 1 -0 0
    outer loop
      vertex 76 13 8
      vertex 76 21 0
      vertex 76 21 8
    endloop
  endfacet
  facet normal 1 0 0
    outer loop
      vertex 76 21 0
      vertex 76 13 8
      vertex 76 13 0
    endloop
  endfacet
  facet normal 0 1 -0
    outer loop
      vertex 76 21 0
      vertex 25 21 8
      vertex 76 21 8
    endloop
  endfacet
  facet normal 0 1 0
    outer loop
      vertex 6 21 0
      vertex 25 21 8
      vertex 76 21 0
    endloop
  endfacet
  facet normal 0 1 0
    outer loop
      vertex 25 21 8
      vertex 6 21 0
      vertex 16 21 8
    endloop
  endfacet
  facet normal 0 1 0
    outer loop
      vertex 16 21 8
      vertex 6 21 0
      vertex 6 21 8
    endloop
  endfacet
  facet normal 0 1 -0
    outer loop
      vertex 25 21 8
      vertex 16 21 23
      vertex 25 21 23
    endloop
  endfacet
  facet normal 0 1 0
    outer loop
      vertex 16 21 23
      vertex 25 21 8
      vertex 16 21 8
    endloop
  endfacet
  facet normal 0 0 -1
    outer loop
      vertex 6 13 0
      vertex 76 21 0
      vertex 76 13 0
    endloop
  endfacet
  facet normal -0 0 -1
    outer loop
      vertex 76 21 0
      vertex 6 13 0
      vertex 6 21 0
    endloop
  endfacet
  facet normal 0 -1 0
    outer loop
      vertex 6 13 0
      vertex 16 13 8
      vertex 6 13 8
    endloop
  endfacet
  facet normal 0 -1 -0
    outer loop
      vertex 16 13 8
      vertex 6 13 0
      vertex 25 13 8
    endloop
  endfacet
  facet normal 0 -1 0
    outer loop
      vertex 76 13 0
      vertex 25 13 8
      vertex 6 13 0
    endloop
  endfacet
  facet normal 0 -1 0
    outer loop
      vertex 25 13 8
      vertex 76 13 0
      vertex 76 13 8
    endloop
  endfacet
  facet normal 0 -1 0
    outer loop
      vertex 16 13 8
      vertex 25 13 23
      vertex 16 13 23
    endloop
  endfacet
  facet normal 0 -1 -0
    outer loop
      vertex 25 13 23
      vertex 16 13 8
      vertex 25 13 8
    endloop
  endfacet
  facet normal -1 0 0
    outer loop
      vertex 16 13 8
      vertex 16 21 23
      vertex 16 21 8
    endloop
  endfacet
  facet normal -1 -0 0
    outer loop
      vertex 16 21 23
      vertex 16 13 8
      vertex 16 13 23
    endloop
  endfacet
  facet normal -0 0 1
    outer loop
      vertex 16 21 23
      vertex 25 13 23
      vertex 25 21 23
    endloop
  endfacet
  facet normal 0 0 1
    outer loop
      vertex 25 13 23
      vertex 16 21 23
      vertex 16 13 23
    endloop
  endfacet
  facet normal 1 -0 0
    outer loop
      vertex 25 13 23
      vertex 25 21 8
      vertex 25 21 23
    endloop
  endfacet
  facet normal 1 0 0
    outer loop
      vertex 25 21 8
      vertex 25 13 23
      vertex 25 13 8
    endloop
  endfacet
endsolid OpenSCAD_Model
