solid OpenSCAD_Model
  facet normal -0 0 1
    outer loop
      vertex 29.1547 -22.6094 2
      vertex 30.2047 -25.9968 2
      vertex 30.2047 -22.0032 2
    endloop
  endfacet
  facet normal 0 0 1
    outer loop
      vertex 30.2047 -25.9968 2
      vertex 29.1547 -22.6094 2
      vertex 29.1547 -25.3906 2
    endloop
  endfacet
  facet normal -0 0 1
    outer loop
      vertex 30.2047 0.0999994 2
      vertex 33.1453 -26 2
      vertex 33.1453 30 2
    endloop
  endfacet
  facet normal -0 0 1
    outer loop
      vertex 30.2047 -22.0032 2
      vertex 33.1453 -26 2
      vertex 30.2047 0.0999994 2
    endloop
  endfacet
  facet normal -0 0 1
    outer loop
      vertex 30.2047 -25.9968 2
      vertex 31.1547 -26 2
      vertex 30.2047 -22.0032 2
    endloop
  endfacet
  facet normal 0 0 1
    outer loop
      vertex 33.1453 -26 2
      vertex 30.2047 -22.0032 2
      vertex 31.1547 -26 2
    endloop
  endfacet
  facet normal 0 0 1
    outer loop
      vertex 33.1453 30 2
      vertex 26.1047 0.0999994 2
      vertex 30.2047 0.0999994 2
    endloop
  endfacet
  facet normal 0 0 1
    outer loop
      vertex 26.1047 0.0999994 2
      vertex -26.1047 0.0999994 2
      vertex 26.1047 -30 2
    endloop
  endfacet
  facet normal 0 0 1
    outer loop
      vertex 33.1453 30 2
      vertex -26.1047 0.0999994 2
      vertex 26.1047 0.0999994 2
    endloop
  endfacet
  facet normal -0 0 1
    outer loop
      vertex -33.1453 30 2
      vertex -26.1047 0.0999994 2
      vertex 33.1453 30 2
    endloop
  endfacet
  facet normal 0 0 1
    outer loop
      vertex -33.1453 -26 2
      vertex -30.2047 -22.0032 2
      vertex -30.2047 0.0999994 2
    endloop
  endfacet
  facet normal 0 0 1
    outer loop
      vertex -30.2047 -22.0032 2
      vertex -31.1547 -26 2
      vertex -30.2047 -25.9968 2
    endloop
  endfacet
  facet normal 0 0 1
    outer loop
      vertex -30.2047 -25.9968 2
      vertex -30.2102 -26 2
      vertex -30.2047 -26 2
    endloop
  endfacet
  facet normal 0 0 1
    outer loop
      vertex -30.2047 -25.9968 2
      vertex -31.1547 -26 2
      vertex -30.2102 -26 2
    endloop
  endfacet
  facet normal 0 0 1
    outer loop
      vertex -26.1047 0.0999994 2
      vertex -33.1453 30 2
      vertex -30.2047 0.0999994 2
    endloop
  endfacet
  facet normal 0 0 1
    outer loop
      vertex -33.1453 -26 2
      vertex -30.2047 0.0999994 2
      vertex -33.1453 30 2
    endloop
  endfacet
  facet normal 0 0 1
    outer loop
      vertex -30.2047 -22.0032 2
      vertex -33.1453 -26 2
      vertex -31.1547 -26 2
    endloop
  endfacet
  facet normal 0 0 1
    outer loop
      vertex 31.1547 -26 2
      vertex 30.2047 -25.9968 2
      vertex 30.2102 -26 2
    endloop
  endfacet
  facet normal 0 0 1
    outer loop
      vertex 30.2102 -26 2
      vertex 30.2047 -25.9968 2
      vertex 30.2047 -26 2
    endloop
  endfacet
  facet normal 0 0 1
    outer loop
      vertex 26.1047 -30 2
      vertex -26.1047 0.0999994 2
      vertex -26.1047 -30 2
    endloop
  endfacet
  facet normal 0 0 1
    outer loop
      vertex -30.2047 -22.0032 2
      vertex -29.1547 -25.3906 2
      vertex -29.1547 -22.6094 2
    endloop
  endfacet
  facet normal 0 0 1
    outer loop
      vertex -29.1547 -25.3906 2
      vertex -30.2047 -22.0032 2
      vertex -30.2047 -25.9968 2
    endloop
  endfacet
  facet normal 0 -1 0
    outer loop
      vertex -26.1047 -30 -2
      vertex 26.1047 -30 2
      vertex -26.1047 -30 2
    endloop
  endfacet
  facet normal 0 -1 -0
    outer loop
      vertex 26.1047 -30 2
      vertex -26.1047 -30 -2
      vertex 26.1047 -30 -2
    endloop
  endfacet
  facet normal 0 0 -1
    outer loop
      vertex -30.2102 -26 -2
      vertex -30.2047 -25.9968 -2
      vertex -30.2047 -26 -2
    endloop
  endfacet
  facet normal 0 0 -1
    outer loop
      vertex -31.1547 -26 -2
      vertex -30.2047 -25.9968 -2
      vertex -30.2102 -26 -2
    endloop
  endfacet
  facet normal -0 0 -1
    outer loop
      vertex -30.2047 -25.9968 -2
      vertex -31.1547 -26 -2
      vertex -30.2047 -22.0032 -2
    endloop
  endfacet
  facet normal 0 0 -1
    outer loop
      vertex -30.2047 -25.9968 -2
      vertex -29.1547 -22.6094 -2
      vertex -29.1547 -25.3906 -2
    endloop
  endfacet
  facet normal -0 0 -1
    outer loop
      vertex -29.1547 -22.6094 -2
      vertex -30.2047 -25.9968 -2
      vertex -30.2047 -22.0032 -2
    endloop
  endfacet
  facet normal 0 0 -1
    outer loop
      vertex 26.1047 -30 -2
      vertex -26.1047 -30 -2
      vertex 26.1047 0.0999994 -2
    endloop
  endfacet
  facet normal 0 0 -1
    outer loop
      vertex 30.2047 -22.0032 -2
      vertex 33.1453 -26 -2
      vertex 31.1547 -26 -2
    endloop
  endfacet
  facet normal 0 0 -1
    outer loop
      vertex 30.2047 -25.9968 -2
      vertex 31.1547 -26 -2
      vertex 30.2102 -26 -2
    endloop
  endfacet
  facet normal 0 0 -1
    outer loop
      vertex 30.2047 -25.9968 -2
      vertex 30.2102 -26 -2
      vertex 30.2047 -26 -2
    endloop
  endfacet
  facet normal 0 0 -1
    outer loop
      vertex 31.1547 -26 -2
      vertex 30.2047 -25.9968 -2
      vertex 30.2047 -22.0032 -2
    endloop
  endfacet
  facet normal 0 0 -1
    outer loop
      vertex 33.1453 -26 -2
      vertex 30.2047 -22.0032 -2
      vertex 30.2047 0.0999994 -2
    endloop
  endfacet
  facet normal 0 0 -1
    outer loop
      vertex 33.1453 -26 -2
      vertex 30.2047 0.0999994 -2
      vertex 33.1453 30 -2
    endloop
  endfacet
  facet normal 0 0 -1
    outer loop
      vertex 26.1047 0.0999994 -2
      vertex 33.1453 30 -2
      vertex 30.2047 0.0999994 -2
    endloop
  endfacet
  facet normal 0 0 -1
    outer loop
      vertex -26.1047 0.0999994 -2
      vertex 26.1047 0.0999994 -2
      vertex -26.1047 -30 -2
    endloop
  endfacet
  facet normal 0 0 -1
    outer loop
      vertex 26.1047 0.0999994 -2
      vertex -26.1047 0.0999994 -2
      vertex 33.1453 30 -2
    endloop
  endfacet
  facet normal 0 0 -1
    outer loop
      vertex -33.1453 30 -2
      vertex -26.1047 0.0999994 -2
      vertex -30.2047 0.0999994 -2
    endloop
  endfacet
  facet normal 0 0 -1
    outer loop
      vertex -33.1453 -26 -2
      vertex -30.2047 -22.0032 -2
      vertex -31.1547 -26 -2
    endloop
  endfacet
  facet normal -0 0 -1
    outer loop
      vertex -30.2047 -22.0032 -2
      vertex -33.1453 -26 -2
      vertex -30.2047 0.0999994 -2
    endloop
  endfacet
  facet normal 0 0 -1
    outer loop
      vertex -26.1047 0.0999994 -2
      vertex -33.1453 30 -2
      vertex 33.1453 30 -2
    endloop
  endfacet
  facet normal 0 0 -1
    outer loop
      vertex -33.1453 30 -2
      vertex -30.2047 0.0999994 -2
      vertex -33.1453 -26 -2
    endloop
  endfacet
  facet normal 0 0 -1
    outer loop
      vertex 29.1547 -25.3906 -2
      vertex 30.2047 -22.0032 -2
      vertex 30.2047 -25.9968 -2
    endloop
  endfacet
  facet normal 0 0 -1
    outer loop
      vertex 30.2047 -22.0032 -2
      vertex 29.1547 -25.3906 -2
      vertex 29.1547 -22.6094 -2
    endloop
  endfacet
  facet normal 0 1 0
    outer loop
      vertex 33.1453 30 -2
      vertex 33.1453 30 2
      vertex 34.3 30 0
    endloop
  endfacet
  facet normal 0 1 0
    outer loop
      vertex 33.1453 30 2
      vertex 33.1453 30 -2
      vertex -33.1453 30 2
    endloop
  endfacet
  facet normal 0 1 0
    outer loop
      vertex -33.1453 30 -2
      vertex -33.1453 30 2
      vertex 33.1453 30 -2
    endloop
  endfacet
  facet normal 0 1 0
    outer loop
      vertex -33.1453 30 2
      vertex -33.1453 30 -2
      vertex -34.3 30 0
    endloop
  endfacet
  facet normal -1 0 0
    outer loop
      vertex -26.1047 -30 -2
      vertex -26.1047 0.0999994 2
      vertex -26.1047 0.0999994 -2
    endloop
  endfacet
  facet normal -1 -0 0
    outer loop
      vertex -26.1047 0.0999994 2
      vertex -26.1047 -30 -2
      vertex -26.1047 -30 2
    endloop
  endfacet
  facet normal 1 -0 0
    outer loop
      vertex -30.2047 -22.0032 2
      vertex -30.2047 0.0999994 -2
      vertex -30.2047 0.0999994 2
    endloop
  endfacet
  facet normal 1 0 0
    outer loop
      vertex -30.2047 0.0999994 -2
      vertex -30.2047 -22.0032 2
      vertex -30.2047 -22.0032 -2
    endloop
  endfacet
  facet normal 1 -0 0
    outer loop
      vertex -30.2047 -26 2
      vertex -30.2047 -25.9968 -2
      vertex -30.2047 -25.9968 2
    endloop
  endfacet
  facet normal 1 0 0
    outer loop
      vertex -30.2047 -25.9968 -2
      vertex -30.2047 -26 2
      vertex -30.2047 -26 -2
    endloop
  endfacet
  facet normal 0 -1 0
    outer loop
      vertex -30.2047 0.0999994 -2
      vertex -26.1047 0.0999994 2
      vertex -30.2047 0.0999994 2
    endloop
  endfacet
  facet normal 0 -1 -0
    outer loop
      vertex -26.1047 0.0999994 2
      vertex -30.2047 0.0999994 -2
      vertex -26.1047 0.0999994 -2
    endloop
  endfacet
  facet normal 0 -1 0
    outer loop
      vertex -30.2102 -26 -2
      vertex -30.2047 -26 2
      vertex -30.2102 -26 2
    endloop
  endfacet
  facet normal 0 -1 -0
    outer loop
      vertex -30.2047 -26 2
      vertex -30.2102 -26 -2
      vertex -30.2047 -26 -2
    endloop
  endfacet
  facet normal 0 -1 0
    outer loop
      vertex -34.3 -26 0
      vertex -31.1547 -26 2
      vertex -33.1453 -26 2
    endloop
  endfacet
  facet normal 0 -1 0
    outer loop
      vertex -31.1547 -26 -2
      vertex -34.3 -26 0
      vertex -33.1453 -26 -2
    endloop
  endfacet
  facet normal 0 -1 0
    outer loop
      vertex -34.3 -26 0
      vertex -31.1547 -26 -2
      vertex -31.1547 -26 2
    endloop
  endfacet
  facet normal 0.499989 -0.866032 0
    outer loop
      vertex -30.2047 -25.9968 -2
      vertex -29.1547 -25.3906 2
      vertex -30.2047 -25.9968 2
    endloop
  endfacet
  facet normal 0.499989 -0.866032 0
    outer loop
      vertex -29.1547 -25.3906 2
      vertex -30.2047 -25.9968 -2
      vertex -29.1547 -25.3906 -2
    endloop
  endfacet
  facet normal 0.499989 0.866032 -0
    outer loop
      vertex -29.1547 -22.6094 -2
      vertex -30.2047 -22.0032 2
      vertex -29.1547 -22.6094 2
    endloop
  endfacet
  facet normal 0.499989 0.866032 0
    outer loop
      vertex -30.2047 -22.0032 2
      vertex -29.1547 -22.6094 -2
      vertex -30.2047 -22.0032 -2
    endloop
  endfacet
  facet normal 1 -0 0
    outer loop
      vertex -29.1547 -25.3906 2
      vertex -29.1547 -22.6094 -2
      vertex -29.1547 -22.6094 2
    endloop
  endfacet
  facet normal 1 0 0
    outer loop
      vertex -29.1547 -22.6094 -2
      vertex -29.1547 -25.3906 2
      vertex -29.1547 -25.3906 -2
    endloop
  endfacet
  facet normal 0 -1 0
    outer loop
      vertex -31.1547 -26 -2
      vertex -30.2102 -26 2
      vertex -31.1547 -26 2
    endloop
  endfacet
  facet normal 0 -1 -0
    outer loop
      vertex -30.2102 -26 2
      vertex -31.1547 -26 -2
      vertex -30.2102 -26 -2
    endloop
  endfacet
  facet normal 1 -0 0
    outer loop
      vertex 26.1047 -30 2
      vertex 26.1047 0.0999994 -2
      vertex 26.1047 0.0999994 2
    endloop
  endfacet
  facet normal 1 0 0
    outer loop
      vertex 26.1047 0.0999994 -2
      vertex 26.1047 -30 2
      vertex 26.1047 -30 -2
    endloop
  endfacet
  facet normal -1 0 0
    outer loop
      vertex 30.2047 -22.0032 -2
      vertex 30.2047 0.0999994 2
      vertex 30.2047 0.0999994 -2
    endloop
  endfacet
  facet normal -1 -0 0
    outer loop
      vertex 30.2047 0.0999994 2
      vertex 30.2047 -22.0032 -2
      vertex 30.2047 -22.0032 2
    endloop
  endfacet
  facet normal -1 0 0
    outer loop
      vertex 30.2047 -26 -2
      vertex 30.2047 -25.9968 2
      vertex 30.2047 -25.9968 -2
    endloop
  endfacet
  facet normal -1 -0 0
    outer loop
      vertex 30.2047 -25.9968 2
      vertex 30.2047 -26 -2
      vertex 30.2047 -26 2
    endloop
  endfacet
  facet normal 0 -1 0
    outer loop
      vertex 26.1047 0.0999994 -2
      vertex 30.2047 0.0999994 2
      vertex 26.1047 0.0999994 2
    endloop
  endfacet
  facet normal 0 -1 -0
    outer loop
      vertex 30.2047 0.0999994 2
      vertex 26.1047 0.0999994 -2
      vertex 30.2047 0.0999994 -2
    endloop
  endfacet
  facet normal 0 -1 0
    outer loop
      vertex 30.2047 -26 -2
      vertex 30.2102 -26 2
      vertex 30.2047 -26 2
    endloop
  endfacet
  facet normal 0 -1 -0
    outer loop
      vertex 30.2102 -26 2
      vertex 30.2047 -26 -2
      vertex 30.2102 -26 -2
    endloop
  endfacet
  facet normal 0 -1 0
    outer loop
      vertex 31.1547 -26 2
      vertex 34.3 -26 0
      vertex 33.1453 -26 2
    endloop
  endfacet
  facet normal 0 -1 0
    outer loop
      vertex 31.1547 -26 -2
      vertex 34.3 -26 0
      vertex 31.1547 -26 2
    endloop
  endfacet
  facet normal 0 -1 0
    outer loop
      vertex 34.3 -26 0
      vertex 31.1547 -26 -2
      vertex 33.1453 -26 -2
    endloop
  endfacet
  facet normal -0.499989 -0.866032 0
    outer loop
      vertex 29.1547 -25.3906 -2
      vertex 30.2047 -25.9968 2
      vertex 29.1547 -25.3906 2
    endloop
  endfacet
  facet normal -0.499989 -0.866032 -0
    outer loop
      vertex 30.2047 -25.9968 2
      vertex 29.1547 -25.3906 -2
      vertex 30.2047 -25.9968 -2
    endloop
  endfacet
  facet normal -0.499989 0.866032 0
    outer loop
      vertex 30.2047 -22.0032 -2
      vertex 29.1547 -22.6094 2
      vertex 30.2047 -22.0032 2
    endloop
  endfacet
  facet normal -0.499989 0.866032 0
    outer loop
      vertex 29.1547 -22.6094 2
      vertex 30.2047 -22.0032 -2
      vertex 29.1547 -22.6094 -2
    endloop
  endfacet
  facet normal -1 0 0
    outer loop
      vertex 29.1547 -25.3906 -2
      vertex 29.1547 -22.6094 2
      vertex 29.1547 -22.6094 -2
    endloop
  endfacet
  facet normal -1 -0 0
    outer loop
      vertex 29.1547 -22.6094 2
      vertex 29.1547 -25.3906 -2
      vertex 29.1547 -25.3906 2
    endloop
  endfacet
  facet normal 0 -1 0
    outer loop
      vertex 30.2102 -26 -2
      vertex 31.1547 -26 2
      vertex 30.2102 -26 2
    endloop
  endfacet
  facet normal 0 -1 -0
    outer loop
      vertex 31.1547 -26 2
      vertex 30.2102 -26 -2
      vertex 31.1547 -26 -2
    endloop
  endfacet
  facet normal 0.866026 -0 0.5
    outer loop
      vertex 33.1453 -26 2
      vertex 34.3 30 0
      vertex 33.1453 30 2
    endloop
  endfacet
  facet normal 0.866026 0 0.5
    outer loop
      vertex 34.3 30 0
      vertex 33.1453 -26 2
      vertex 34.3 -26 0
    endloop
  endfacet
  facet normal -0.866026 0 0.5
    outer loop
      vertex -34.3 -26 0
      vertex -33.1453 30 2
      vertex -34.3 30 0
    endloop
  endfacet
  facet normal -0.866026 0 0.5
    outer loop
      vertex -33.1453 30 2
      vertex -34.3 -26 0
      vertex -33.1453 -26 2
    endloop
  endfacet
  facet normal -0.866026 0 -0.5
    outer loop
      vertex -33.1453 -26 -2
      vertex -34.3 30 0
      vertex -33.1453 30 -2
    endloop
  endfacet
  facet normal -0.866026 -0 -0.5
    outer loop
      vertex -34.3 30 0
      vertex -33.1453 -26 -2
      vertex -34.3 -26 0
    endloop
  endfacet
  facet normal 0.866026 0 -0.5
    outer loop
      vertex 34.3 -26 0
      vertex 33.1453 30 -2
      vertex 34.3 30 0
    endloop
  endfacet
  facet normal 0.866026 0 -0.5
    outer loop
      vertex 33.1453 30 -2
      vertex 34.3 -26 0
      vertex 33.1453 -26 -2
    endloop
  endfacet
endsolid OpenSCAD_Model
