solid OpenSCAD_Model
  facet normal 0.499989 -0.866032 0
    outer loop
      vertex -29.05 -25.9968 -2
      vertex -28 -25.3906 2
      vertex -29.05 -25.9968 2
    endloop
  endfacet
  facet normal 0.499989 -0.866032 0
    outer loop
      vertex -28 -25.3906 2
      vertex -29.05 -25.9968 -2
      vertex -28 -25.3906 -2
    endloop
  endfacet
  facet normal 0.499989 0.866032 -0
    outer loop
      vertex -28 -22.6094 -2
      vertex -29.05 -22.0032 2
      vertex -28 -22.6094 2
    endloop
  endfacet
  facet normal 0.499989 0.866032 0
    outer loop
      vertex -29.05 -22.0032 2
      vertex -28 -22.6094 -2
      vertex -29.05 -22.0032 -2
    endloop
  endfacet
  facet normal 1 -0 0
    outer loop
      vertex -28 -25.3906 2
      vertex -28 -22.6094 -2
      vertex -28 -22.6094 2
    endloop
  endfacet
  facet normal 1 0 0
    outer loop
      vertex -28 -22.6094 -2
      vertex -28 -25.3906 2
      vertex -28 -25.3906 -2
    endloop
  endfacet
  facet normal -0 0 1
    outer loop
      vertex 28 -22.6094 2
      vertex 29.05 -25.9968 2
      vertex 29.05 -22.0032 2
    endloop
  endfacet
  facet normal 0 0 1
    outer loop
      vertex 29.05 -25.9968 2
      vertex 28 -22.6094 2
      vertex 28 -25.3906 2
    endloop
  endfacet
  facet normal -0 0 1
    outer loop
      vertex 29.05 0.0999994 2
      vertex 32.3 -26 2
      vertex 32.3 30 2
    endloop
  endfacet
  facet normal -0 0 1
    outer loop
      vertex 29.05 -22.0032 2
      vertex 32.3 -26 2
      vertex 29.05 0.0999994 2
    endloop
  endfacet
  facet normal -0 0 1
    outer loop
      vertex 29.05 -25.9968 2
      vertex 30 -26 2
      vertex 29.05 -22.0032 2
    endloop
  endfacet
  facet normal 0 0 1
    outer loop
      vertex 32.3 -26 2
      vertex 29.05 -22.0032 2
      vertex 30 -26 2
    endloop
  endfacet
  facet normal 0 0 1
    outer loop
      vertex 32.3 30 2
      vertex 24.95 0.0999994 2
      vertex 29.05 0.0999994 2
    endloop
  endfacet
  facet normal 0 0 1
    outer loop
      vertex 13.6396 -11.0181 2
      vertex 24.95 0.0999994 2
      vertex 13.6467 -9.8311 2
    endloop
  endfacet
  facet normal -0 0 1
    outer loop
      vertex 9.05996 1.0041 2
      vertex 24.95 0.0999994 2
      vertex 32.3 30 2
    endloop
  endfacet
  facet normal 0 0 1
    outer loop
      vertex 24.95 0.0999994 2
      vertex 13.6311 -9.04345 2
      vertex 13.6467 -9.8311 2
    endloop
  endfacet
  facet normal 0 0 1
    outer loop
      vertex 24.95 0.0999994 2
      vertex 13.5281 -8.08628 2
      vertex 13.6311 -9.04345 2
    endloop
  endfacet
  facet normal 0 0 1
    outer loop
      vertex 24.95 0.0999994 2
      vertex 13.4357 -7.41362 2
      vertex 13.5281 -8.08628 2
    endloop
  endfacet
  facet normal 0 0 1
    outer loop
      vertex 24.95 0.0999994 2
      vertex 13.2615 -6.55707 2
      vertex 13.4357 -7.41362 2
    endloop
  endfacet
  facet normal 0 0 1
    outer loop
      vertex 24.95 0.0999994 2
      vertex 13.1411 -6.04616 2
      vertex 13.2615 -6.55707 2
    endloop
  endfacet
  facet normal 0 0 1
    outer loop
      vertex 24.95 0.0999994 2
      vertex 12.8556 -5.10593 2
      vertex 13.1411 -6.04616 2
    endloop
  endfacet
  facet normal 0 0 1
    outer loop
      vertex 24.95 0.0999994 2
      vertex 12.6741 -4.54983 2
      vertex 12.8556 -5.10593 2
    endloop
  endfacet
  facet normal 0 0 1
    outer loop
      vertex 24.95 0.0999994 2
      vertex 12.282 -3.63811 2
      vertex 12.6741 -4.54983 2
    endloop
  endfacet
  facet normal 0 0 1
    outer loop
      vertex 24.95 0.0999994 2
      vertex 12.0203 -3.05422 2
      vertex 12.282 -3.63811 2
    endloop
  endfacet
  facet normal 0 0 1
    outer loop
      vertex 24.95 0.0999994 2
      vertex 11.6317 -2.3501 2
      vertex 12.0203 -3.05422 2
    endloop
  endfacet
  facet normal 0 0 1
    outer loop
      vertex 24.95 0.0999994 2
      vertex 11.4126 -1.96134 2
      vertex 11.6317 -2.3501 2
    endloop
  endfacet
  facet normal 0 0 1
    outer loop
      vertex 24.95 0.0999994 2
      vertex 11.0711 -1.45282 2
      vertex 11.4126 -1.96134 2
    endloop
  endfacet
  facet normal 0 0 1
    outer loop
      vertex 24.95 0.0999994 2
      vertex 10.6629 -0.836964 2
      vertex 11.0711 -1.45282 2
    endloop
  endfacet
  facet normal 0 0 1
    outer loop
      vertex 24.95 0.0999994 2
      vertex 10.2611 -0.322807 2
      vertex 10.6629 -0.836964 2
    endloop
  endfacet
  facet normal 0 0 1
    outer loop
      vertex 24.95 0.0999994 2
      vertex 9.70991 0.30537 2
      vertex 10.2611 -0.322807 2
    endloop
  endfacet
  facet normal 0 0 1
    outer loop
      vertex 24.95 0.0999994 2
      vertex 9.05996 1.0041 2
      vertex 9.70991 0.30537 2
    endloop
  endfacet
  facet normal 0 0 1
    outer loop
      vertex 32.3 30 2
      vertex 1.22476 7.90343 2
      vertex 9.05996 1.0041 2
    endloop
  endfacet
  facet normal 0 0 1
    outer loop
      vertex 32.3 30 2
      vertex -10.6284 18.3302 2
      vertex 1.22476 7.90343 2
    endloop
  endfacet
  facet normal 0 0 1
    outer loop
      vertex 32.3 30 2
      vertex -10.788 18.4182 2
      vertex -10.6284 18.3302 2
    endloop
  endfacet
  facet normal 0 0 1
    outer loop
      vertex 32.3 30 2
      vertex -11.0982 18.5735 2
      vertex -10.788 18.4182 2
    endloop
  endfacet
  facet normal 0 0 1
    outer loop
      vertex 32.3 30 2
      vertex -11.2811 18.6208 2
      vertex -11.0982 18.5735 2
    endloop
  endfacet
  facet normal -0 0 1
    outer loop
      vertex -32.3 30 2
      vertex -11.2811 18.6208 2
      vertex 32.3 30 2
    endloop
  endfacet
  facet normal 0 0 1
    outer loop
      vertex -11.2811 18.6208 2
      vertex -32.3 30 2
      vertex -11.6974 18.6624 2
    endloop
  endfacet
  facet normal 0 0 1
    outer loop
      vertex -11.6974 18.6624 2
      vertex -32.3 30 2
      vertex -11.9162 18.6544 2
    endloop
  endfacet
  facet normal 0 0 1
    outer loop
      vertex -29.05 0.0999994 2
      vertex -21.6676 8.60871 2
      vertex -21.6567 8.78773 2
    endloop
  endfacet
  facet normal 0 0 1
    outer loop
      vertex -29.05 0.0999994 2
      vertex -21.6567 8.78773 2
      vertex -21.6226 9.10852 2
    endloop
  endfacet
  facet normal 0 0 1
    outer loop
      vertex -29.05 0.0999994 2
      vertex -21.6226 9.10852 2
      vertex -21.5772 9.25565 2
    endloop
  endfacet
  facet normal 0 0 1
    outer loop
      vertex -21.6676 8.60871 2
      vertex -29.05 0.0999994 2
      vertex -24.95 0.0999994 2
    endloop
  endfacet
  facet normal 0 0 1
    outer loop
      vertex -32.3 30 2
      vertex -21.5772 9.25565 2
      vertex -21.3813 9.674 2
    endloop
  endfacet
  facet normal 0 0 1
    outer loop
      vertex -32.3 30 2
      vertex -21.3813 9.674 2
      vertex -21.2718 9.87749 2
    endloop
  endfacet
  facet normal 0 0 1
    outer loop
      vertex -32.3 -26 2
      vertex -29.05 -22.0032 2
      vertex -29.05 0.0999994 2
    endloop
  endfacet
  facet normal 0 0 1
    outer loop
      vertex -29.05 -22.0032 2
      vertex -30 -26 2
      vertex -29.05 -25.9968 2
    endloop
  endfacet
  facet normal 0 0 1
    outer loop
      vertex -29.05 -25.9968 2
      vertex -29.0555 -26 2
      vertex -29.05 -26 2
    endloop
  endfacet
  facet normal 0 0 1
    outer loop
      vertex -29.05 -25.9968 2
      vertex -30 -26 2
      vertex -29.0555 -26 2
    endloop
  endfacet
  facet normal 0 0 1
    outer loop
      vertex -11.9162 18.6544 2
      vertex -32.3 30 2
      vertex -12.1973 18.5907 2
    endloop
  endfacet
  facet normal 0 0 1
    outer loop
      vertex -32.3 30 2
      vertex -12.4051 18.5197 2
      vertex -12.1973 18.5907 2
    endloop
  endfacet
  facet normal 0 0 1
    outer loop
      vertex -32.3 30 2
      vertex -12.6768 18.3882 2
      vertex -12.4051 18.5197 2
    endloop
  endfacet
  facet normal 0 0 1
    outer loop
      vertex -32.3 30 2
      vertex -12.8374 18.2876 2
      vertex -12.6768 18.3882 2
    endloop
  endfacet
  facet normal 0 0 1
    outer loop
      vertex -32.3 30 2
      vertex -13.0483 18.1226 2
      vertex -12.8374 18.2876 2
    endloop
  endfacet
  facet normal 0 0 1
    outer loop
      vertex -32.3 30 2
      vertex -16.3366 14.8337 2
      vertex -13.0483 18.1226 2
    endloop
  endfacet
  facet normal 0 0 1
    outer loop
      vertex -32.3 30 2
      vertex -21.2718 9.87749 2
      vertex -16.3366 14.8337 2
    endloop
  endfacet
  facet normal 0 0 1
    outer loop
      vertex -21.5772 9.25565 2
      vertex -32.3 30 2
      vertex -29.05 0.0999994 2
    endloop
  endfacet
  facet normal 0 0 1
    outer loop
      vertex -32.3 -26 2
      vertex -29.05 0.0999994 2
      vertex -32.3 30 2
    endloop
  endfacet
  facet normal 0 0 1
    outer loop
      vertex -29.05 -22.0032 2
      vertex -32.3 -26 2
      vertex -30 -26 2
    endloop
  endfacet
  facet normal 0 0 1
    outer loop
      vertex 30 -26 2
      vertex 29.05 -25.9968 2
      vertex 29.0555 -26 2
    endloop
  endfacet
  facet normal 0 0 1
    outer loop
      vertex 29.0555 -26 2
      vertex 29.05 -25.9968 2
      vertex 29.05 -26 2
    endloop
  endfacet
  facet normal 0 0 1
    outer loop
      vertex 13.5588 -11.7983 2
      vertex 24.95 0.0999994 2
      vertex 13.6396 -11.0181 2
    endloop
  endfacet
  facet normal 0 0 1
    outer loop
      vertex 13.4344 -12.8529 2
      vertex 24.95 0.0999994 2
      vertex 13.5588 -11.7983 2
    endloop
  endfacet
  facet normal 0 0 1
    outer loop
      vertex 24.95 0.0999994 2
      vertex 13.4344 -12.8529 2
      vertex 24.95 -30 2
    endloop
  endfacet
  facet normal -0 0 1
    outer loop
      vertex 13.3148 -13.4265 2
      vertex 24.95 -30 2
      vertex 13.4344 -12.8529 2
    endloop
  endfacet
  facet normal -0 0 1
    outer loop
      vertex 13.0149 -14.6787 2
      vertex 24.95 -30 2
      vertex 13.3148 -13.4265 2
    endloop
  endfacet
  facet normal -0 0 1
    outer loop
      vertex 12.912 -15.0274 2
      vertex 24.95 -30 2
      vertex 13.0149 -14.6787 2
    endloop
  endfacet
  facet normal -0 0 1
    outer loop
      vertex 12.8405 -15.1522 2
      vertex 24.95 -30 2
      vertex 12.912 -15.0274 2
    endloop
  endfacet
  facet normal -0 0 1
    outer loop
      vertex 12.7057 -15.3919 2
      vertex 24.95 -30 2
      vertex 12.8405 -15.1522 2
    endloop
  endfacet
  facet normal -0 0 1
    outer loop
      vertex 12.5358 -15.565 2
      vertex 24.95 -30 2
      vertex 12.7057 -15.3919 2
    endloop
  endfacet
  facet normal -0 0 1
    outer loop
      vertex 12.3678 -15.7208 2
      vertex 24.95 -30 2
      vertex 12.5358 -15.565 2
    endloop
  endfacet
  facet normal -0 0 1
    outer loop
      vertex 12.132 -15.8636 2
      vertex 24.95 -30 2
      vertex 12.3678 -15.7208 2
    endloop
  endfacet
  facet normal -0 0 1
    outer loop
      vertex 11.9366 -15.9461 2
      vertex 24.95 -30 2
      vertex 12.132 -15.8636 2
    endloop
  endfacet
  facet normal -0 0 1
    outer loop
      vertex 11.1602 -16.1516 2
      vertex 24.95 -30 2
      vertex 11.9366 -15.9461 2
    endloop
  endfacet
  facet normal -0 0 1
    outer loop
      vertex 10.6554 -16.2753 2
      vertex 24.95 -30 2
      vertex 11.1602 -16.1516 2
    endloop
  endfacet
  facet normal -0 0 1
    outer loop
      vertex 9.93496 -16.4106 2
      vertex 24.95 -30 2
      vertex 10.6554 -16.2753 2
    endloop
  endfacet
  facet normal -0 0 1
    outer loop
      vertex 9.39054 -16.5037 2
      vertex 24.95 -30 2
      vertex 9.93496 -16.4106 2
    endloop
  endfacet
  facet normal -0 0 1
    outer loop
      vertex 8.43072 -16.6021 2
      vertex 24.95 -30 2
      vertex 9.39054 -16.5037 2
    endloop
  endfacet
  facet normal -0 0 1
    outer loop
      vertex 7.82653 -16.6473 2
      vertex 24.95 -30 2
      vertex 8.43072 -16.6021 2
    endloop
  endfacet
  facet normal 0 0 1
    outer loop
      vertex 6.64571 -16.6421 2
      vertex 24.95 -30 2
      vertex 7.82653 -16.6473 2
    endloop
  endfacet
  facet normal 0 0 1
    outer loop
      vertex 5.88853 -16.6263 2
      vertex 24.95 -30 2
      vertex 6.64571 -16.6421 2
    endloop
  endfacet
  facet normal 0 0 1
    outer loop
      vertex 4.906 -16.5037 2
      vertex 24.95 -30 2
      vertex 5.88853 -16.6263 2
    endloop
  endfacet
  facet normal 0 0 1
    outer loop
      vertex 4.06342 -16.372 2
      vertex 24.95 -30 2
      vertex 4.906 -16.5037 2
    endloop
  endfacet
  facet normal 0 0 1
    outer loop
      vertex -24.95 -30 2
      vertex 4.06342 -16.372 2
      vertex 3.2923 -16.2098 2
    endloop
  endfacet
  facet normal 0 0 1
    outer loop
      vertex -24.95 -30 2
      vertex 3.2923 -16.2098 2
      vertex 2.73542 -16.0555 2
    endloop
  endfacet
  facet normal 0 0 1
    outer loop
      vertex -24.95 -30 2
      vertex 2.73542 -16.0555 2
      vertex 1.90583 -15.8008 2
    endloop
  endfacet
  facet normal 0 0 1
    outer loop
      vertex -24.95 -30 2
      vertex 1.90583 -15.8008 2
      vertex 1.28941 -15.566 2
    endloop
  endfacet
  facet normal 0 0 1
    outer loop
      vertex -24.95 -30 2
      vertex 1.28941 -15.566 2
      vertex 0.404323 -15.1941 2
    endloop
  endfacet
  facet normal 0 0 1
    outer loop
      vertex -24.95 -30 2
      vertex 0.404323 -15.1941 2
      vertex -0.112981 -14.9285 2
    endloop
  endfacet
  facet normal 0 0 1
    outer loop
      vertex -24.95 -30 2
      vertex -0.112981 -14.9285 2
      vertex -0.891347 -14.5068 2
    endloop
  endfacet
  facet normal 0 0 1
    outer loop
      vertex -24.95 0.0999994 2
      vertex -21.6338 8.35554 2
      vertex -21.6676 8.60871 2
    endloop
  endfacet
  facet normal 0 0 1
    outer loop
      vertex -24.95 0.0999994 2
      vertex -21.5903 8.14046 2
      vertex -21.6338 8.35554 2
    endloop
  endfacet
  facet normal 0 0 1
    outer loop
      vertex -24.95 0.0999994 2
      vertex -21.4515 7.82824 2
      vertex -21.5903 8.14046 2
    endloop
  endfacet
  facet normal 0 0 1
    outer loop
      vertex -24.95 0.0999994 2
      vertex -21.3461 7.6461 2
      vertex -21.4515 7.82824 2
    endloop
  endfacet
  facet normal -0 0 1
    outer loop
      vertex -24.95 0.0999994 2
      vertex -10.9349 -4.19785 2
      vertex -21.3461 7.6461 2
    endloop
  endfacet
  facet normal 0 0 1
    outer loop
      vertex -24.95 -30 2
      vertex -10.9349 -4.19785 2
      vertex -24.95 0.0999994 2
    endloop
  endfacet
  facet normal 0 0 1
    outer loop
      vertex -10.9349 -4.19785 2
      vertex -24.95 -30 2
      vertex -4.06779 -11.9985 2
    endloop
  endfacet
  facet normal 0 0 1
    outer loop
      vertex -4.06779 -11.9985 2
      vertex -24.95 -30 2
      vertex -3.18838 -12.814 2
    endloop
  endfacet
  facet normal 0 0 1
    outer loop
      vertex -3.18838 -12.814 2
      vertex -24.95 -30 2
      vertex -2.67725 -13.2742 2
    endloop
  endfacet
  facet normal 0 0 1
    outer loop
      vertex -2.67725 -13.2742 2
      vertex -24.95 -30 2
      vertex -2.27648 -13.5703 2
    endloop
  endfacet
  facet normal 0 0 1
    outer loop
      vertex -2.27648 -13.5703 2
      vertex -24.95 -30 2
      vertex -1.28399 -14.2625 2
    endloop
  endfacet
  facet normal 0 0 1
    outer loop
      vertex 4.06342 -16.372 2
      vertex -24.95 -30 2
      vertex 24.95 -30 2
    endloop
  endfacet
  facet normal 0 0 1
    outer loop
      vertex -1.28399 -14.2625 2
      vertex -24.95 -30 2
      vertex -0.891347 -14.5068 2
    endloop
  endfacet
  facet normal 0 0 1
    outer loop
      vertex -29.05 -22.0032 2
      vertex -28 -25.3906 2
      vertex -28 -22.6094 2
    endloop
  endfacet
  facet normal 0 0 1
    outer loop
      vertex -28 -25.3906 2
      vertex -29.05 -22.0032 2
      vertex -29.05 -25.9968 2
    endloop
  endfacet
  facet normal 0 -1 0
    outer loop
      vertex -30 -26 -2
      vertex -29.0555 -26 2
      vertex -30 -26 2
    endloop
  endfacet
  facet normal 0 -1 -0
    outer loop
      vertex -29.0555 -26 2
      vertex -30 -26 -2
      vertex -29.0555 -26 -2
    endloop
  endfacet
  facet normal 0 0 -1
    outer loop
      vertex -29.0555 -26 -2
      vertex -29.05 -25.9968 -2
      vertex -29.05 -26 -2
    endloop
  endfacet
  facet normal 0 0 -1
    outer loop
      vertex -30 -26 -2
      vertex -29.05 -25.9968 -2
      vertex -29.0555 -26 -2
    endloop
  endfacet
  facet normal -0 0 -1
    outer loop
      vertex -29.05 -25.9968 -2
      vertex -30 -26 -2
      vertex -29.05 -22.0032 -2
    endloop
  endfacet
  facet normal 0 0 -1
    outer loop
      vertex -29.05 -25.9968 -2
      vertex -28 -22.6094 -2
      vertex -28 -25.3906 -2
    endloop
  endfacet
  facet normal -0 0 -1
    outer loop
      vertex -28 -22.6094 -2
      vertex -29.05 -25.9968 -2
      vertex -29.05 -22.0032 -2
    endloop
  endfacet
  facet normal 0 0 -1
    outer loop
      vertex 24.95 -30 -2
      vertex -24.95 -30 -2
      vertex 24.95 0.0999994 -2
    endloop
  endfacet
  facet normal 0 0 -1
    outer loop
      vertex 29.05 -22.0032 -2
      vertex 32.3 -26 -2
      vertex 30 -26 -2
    endloop
  endfacet
  facet normal 0 0 -1
    outer loop
      vertex 29.05 -25.9968 -2
      vertex 30 -26 -2
      vertex 29.0555 -26 -2
    endloop
  endfacet
  facet normal 0 0 -1
    outer loop
      vertex 29.05 -25.9968 -2
      vertex 29.0555 -26 -2
      vertex 29.05 -26 -2
    endloop
  endfacet
  facet normal 0 0 -1
    outer loop
      vertex 30 -26 -2
      vertex 29.05 -25.9968 -2
      vertex 29.05 -22.0032 -2
    endloop
  endfacet
  facet normal 0 0 -1
    outer loop
      vertex 32.3 -26 -2
      vertex 29.05 -22.0032 -2
      vertex 29.05 0.0999994 -2
    endloop
  endfacet
  facet normal 0 0 -1
    outer loop
      vertex 32.3 -26 -2
      vertex 29.05 0.0999994 -2
      vertex 32.3 30 -2
    endloop
  endfacet
  facet normal 0 0 -1
    outer loop
      vertex 24.95 0.0999994 -2
      vertex 32.3 30 -2
      vertex 29.05 0.0999994 -2
    endloop
  endfacet
  facet normal 0 0 -1
    outer loop
      vertex -24.95 0.0999994 -2
      vertex 24.95 0.0999994 -2
      vertex -24.95 -30 -2
    endloop
  endfacet
  facet normal 0 0 -1
    outer loop
      vertex 24.95 0.0999994 -2
      vertex -24.95 0.0999994 -2
      vertex 32.3 30 -2
    endloop
  endfacet
  facet normal 0 0 -1
    outer loop
      vertex -32.3 30 -2
      vertex -24.95 0.0999994 -2
      vertex -29.05 0.0999994 -2
    endloop
  endfacet
  facet normal 0 0 -1
    outer loop
      vertex -32.3 -26 -2
      vertex -29.05 -22.0032 -2
      vertex -30 -26 -2
    endloop
  endfacet
  facet normal -0 0 -1
    outer loop
      vertex -29.05 -22.0032 -2
      vertex -32.3 -26 -2
      vertex -29.05 0.0999994 -2
    endloop
  endfacet
  facet normal 0 0 -1
    outer loop
      vertex -24.95 0.0999994 -2
      vertex -32.3 30 -2
      vertex 32.3 30 -2
    endloop
  endfacet
  facet normal 0 0 -1
    outer loop
      vertex -32.3 30 -2
      vertex -29.05 0.0999994 -2
      vertex -32.3 -26 -2
    endloop
  endfacet
  facet normal 0 0 -1
    outer loop
      vertex 28 -25.3906 -2
      vertex 29.05 -22.0032 -2
      vertex 29.05 -25.9968 -2
    endloop
  endfacet
  facet normal 0 0 -1
    outer loop
      vertex 29.05 -22.0032 -2
      vertex 28 -25.3906 -2
      vertex 28 -22.6094 -2
    endloop
  endfacet
  facet normal 0 1 0
    outer loop
      vertex 32.3 30 -2
      vertex 32.3 30 2
      vertex 34.3 30 0
    endloop
  endfacet
  facet normal 0 1 0
    outer loop
      vertex 32.3 30 2
      vertex 32.3 30 -2
      vertex -32.3 30 2
    endloop
  endfacet
  facet normal 0 1 0
    outer loop
      vertex -32.3 30 -2
      vertex -32.3 30 2
      vertex 32.3 30 -2
    endloop
  endfacet
  facet normal 0 1 0
    outer loop
      vertex -32.3 30 2
      vertex -32.3 30 -2
      vertex -34.3 30 0
    endloop
  endfacet
  facet normal 0 -1 0
    outer loop
      vertex -24.95 -30 -2
      vertex 24.95 -30 2
      vertex -24.95 -30 2
    endloop
  endfacet
  facet normal 0 -1 -0
    outer loop
      vertex 24.95 -30 2
      vertex -24.95 -30 -2
      vertex 24.95 -30 -2
    endloop
  endfacet
  facet normal -1 0 0
    outer loop
      vertex -24.95 -30 -2
      vertex -24.95 0.0999994 2
      vertex -24.95 0.0999994 -2
    endloop
  endfacet
  facet normal -1 -0 0
    outer loop
      vertex -24.95 0.0999994 2
      vertex -24.95 -30 -2
      vertex -24.95 -30 2
    endloop
  endfacet
  facet normal 1 -0 0
    outer loop
      vertex -29.05 -22.0032 2
      vertex -29.05 0.0999994 -2
      vertex -29.05 0.0999994 2
    endloop
  endfacet
  facet normal 1 0 0
    outer loop
      vertex -29.05 0.0999994 -2
      vertex -29.05 -22.0032 2
      vertex -29.05 -22.0032 -2
    endloop
  endfacet
  facet normal 1 -0 0
    outer loop
      vertex -29.05 -26 2
      vertex -29.05 -25.9968 -2
      vertex -29.05 -25.9968 2
    endloop
  endfacet
  facet normal 1 0 0
    outer loop
      vertex -29.05 -25.9968 -2
      vertex -29.05 -26 2
      vertex -29.05 -26 -2
    endloop
  endfacet
  facet normal 0 -1 0
    outer loop
      vertex -29.05 0.0999994 -2
      vertex -24.95 0.0999994 2
      vertex -29.05 0.0999994 2
    endloop
  endfacet
  facet normal 0 -1 -0
    outer loop
      vertex -24.95 0.0999994 2
      vertex -29.05 0.0999994 -2
      vertex -24.95 0.0999994 -2
    endloop
  endfacet
  facet normal 0 -1 0
    outer loop
      vertex -29.0555 -26 -2
      vertex -29.05 -26 2
      vertex -29.0555 -26 2
    endloop
  endfacet
  facet normal 0 -1 -0
    outer loop
      vertex -29.05 -26 2
      vertex -29.0555 -26 -2
      vertex -29.05 -26 -2
    endloop
  endfacet
  facet normal 0 -1 0
    outer loop
      vertex -32.3 -26 -2
      vertex -32.3 -26 2
      vertex -34.3 -26 0
    endloop
  endfacet
  facet normal 0 -1 0
    outer loop
      vertex -32.3 -26 2
      vertex -32.3 -26 -2
      vertex -30 -26 2
    endloop
  endfacet
  facet normal 0 -1 -0
    outer loop
      vertex -30 -26 2
      vertex -32.3 -26 -2
      vertex -30 -26 -2
    endloop
  endfacet
  facet normal -0.499989 -0.866032 0
    outer loop
      vertex 28 -25.3906 -2
      vertex 29.05 -25.9968 2
      vertex 28 -25.3906 2
    endloop
  endfacet
  facet normal -0.499989 -0.866032 -0
    outer loop
      vertex 29.05 -25.9968 2
      vertex 28 -25.3906 -2
      vertex 29.05 -25.9968 -2
    endloop
  endfacet
  facet normal -0.499989 0.866032 0
    outer loop
      vertex 29.05 -22.0032 -2
      vertex 28 -22.6094 2
      vertex 29.05 -22.0032 2
    endloop
  endfacet
  facet normal -0.499989 0.866032 0
    outer loop
      vertex 28 -22.6094 2
      vertex 29.05 -22.0032 -2
      vertex 28 -22.6094 -2
    endloop
  endfacet
  facet normal -1 0 0
    outer loop
      vertex 28 -25.3906 -2
      vertex 28 -22.6094 2
      vertex 28 -22.6094 -2
    endloop
  endfacet
  facet normal -1 -0 0
    outer loop
      vertex 28 -22.6094 2
      vertex 28 -25.3906 -2
      vertex 28 -25.3906 2
    endloop
  endfacet
  facet normal 0 -1 0
    outer loop
      vertex 29.0555 -26 -2
      vertex 30 -26 2
      vertex 29.0555 -26 2
    endloop
  endfacet
  facet normal 0 -1 -0
    outer loop
      vertex 30 -26 2
      vertex 29.0555 -26 -2
      vertex 30 -26 -2
    endloop
  endfacet
  facet normal 1 -0 0
    outer loop
      vertex 24.95 -30 2
      vertex 24.95 0.0999994 -2
      vertex 24.95 0.0999994 2
    endloop
  endfacet
  facet normal 1 0 0
    outer loop
      vertex 24.95 0.0999994 -2
      vertex 24.95 -30 2
      vertex 24.95 -30 -2
    endloop
  endfacet
  facet normal -1 0 0
    outer loop
      vertex 29.05 -22.0032 -2
      vertex 29.05 0.0999994 2
      vertex 29.05 0.0999994 -2
    endloop
  endfacet
  facet normal -1 -0 0
    outer loop
      vertex 29.05 0.0999994 2
      vertex 29.05 -22.0032 -2
      vertex 29.05 -22.0032 2
    endloop
  endfacet
  facet normal -1 0 0
    outer loop
      vertex 29.05 -26 -2
      vertex 29.05 -25.9968 2
      vertex 29.05 -25.9968 -2
    endloop
  endfacet
  facet normal -1 -0 0
    outer loop
      vertex 29.05 -25.9968 2
      vertex 29.05 -26 -2
      vertex 29.05 -26 2
    endloop
  endfacet
  facet normal 0 -1 0
    outer loop
      vertex 24.95 0.0999994 -2
      vertex 29.05 0.0999994 2
      vertex 24.95 0.0999994 2
    endloop
  endfacet
  facet normal 0 -1 -0
    outer loop
      vertex 29.05 0.0999994 2
      vertex 24.95 0.0999994 -2
      vertex 29.05 0.0999994 -2
    endloop
  endfacet
  facet normal 0 -1 0
    outer loop
      vertex 29.05 -26 -2
      vertex 29.0555 -26 2
      vertex 29.05 -26 2
    endloop
  endfacet
  facet normal 0 -1 -0
    outer loop
      vertex 29.0555 -26 2
      vertex 29.05 -26 -2
      vertex 29.0555 -26 -2
    endloop
  endfacet
  facet normal 0 -1 0
    outer loop
      vertex 32.3 -26 -2
      vertex 32.3 -26 2
      vertex 30 -26 2
    endloop
  endfacet
  facet normal 0 -1 0
    outer loop
      vertex 32.3 -26 -2
      vertex 30 -26 2
      vertex 30 -26 -2
    endloop
  endfacet
  facet normal 0 -1 0
    outer loop
      vertex 32.3 -26 2
      vertex 32.3 -26 -2
      vertex 34.3 -26 0
    endloop
  endfacet
  facet normal -1.72573e-06 9.86148e-07 1
    outer loop
      vertex -2.67605 -13.2757 0.399991
      vertex 10.0735 -0.0907316 0.4
      vertex 8.99664 1.06693 0.399997
    endloop
  endfacet
  facet normal -2.54124e-06 3.28577e-06 1
    outer loop
      vertex 7.96077 -16.6398 0.400003
      vertex 13.6414 -9.20292 0.399993
      vertex 6.00435 -16.6312 0.399998
    endloop
  endfacet
  facet normal 2.22083e-06 -2.82912e-06 1
    outer loop
      vertex 1.72438 -15.7372 0.399995
      vertex 12.709 -4.64011 0.400002
      vertex 0.257945 -15.121 0.4
    endloop
  endfacet
  facet normal -3.38098e-07 -2.24059e-07 1
    outer loop
      vertex -1.03167 -14.4225 0.399993
      vertex 11.4154 -1.96296 0.4
      vertex 10.7392 -0.942598 0.4
    endloop
  endfacet
  facet normal -9.81003e-07 3.37337e-07 1
    outer loop
      vertex -1.03167 -14.4225 0.399993
      vertex 10.7392 -0.942598 0.4
      vertex -2.67605 -13.2757 0.399991
    endloop
  endfacet
  facet normal -3.62242e-07 -1.99939e-07 1
    outer loop
      vertex -1.03167 -14.4225 0.399993
      vertex 12.0593 -3.12955 0.4
      vertex 11.4154 -1.96296 0.4
    endloop
  endfacet
  facet normal -0.000404946 0.000578505 1
    outer loop
      vertex 12.0311 -15.9122 0.400324
      vertex 12.9266 -14.9915 0.400154
      vertex 10.7447 -16.2526 0.4
    endloop
  endfacet
  facet normal 3.81481e-08 -1.26826e-07 1
    outer loop
      vertex -21.3827 7.69876 0.399999
      vertex 8.99664 1.06693 0.399997
      vertex -13.1109 18.0717 0.4
    endloop
  endfacet
  facet normal 4.78461e-06 -3.91184e-06 1
    outer loop
      vertex -21.3827 7.69876 0.399999
      vertex -13.1109 18.0717 0.4
      vertex -21.2876 9.86015 0.400007
    endloop
  endfacet
  facet normal 2.43922e-06 -2.46903e-06 1
    outer loop
      vertex 3.09886 -16.1593 0.399997
      vertex 13.182 -6.19791 0.399997
      vertex 12.709 -4.64011 0.400002
    endloop
  endfacet
  facet normal -2.32276e-06 2.64417e-05 1
    outer loop
      vertex -12.7615 18.3452 0.399995
      vertex -10.6419 18.3423 0.4
      vertex -11.1559 18.5997 0.399992
    endloop
  endfacet
  facet normal 5.95517e-06 3.05846e-05 1
    outer loop
      vertex -12.3113 18.5631 0.4
      vertex -11.1559 18.5997 0.399992
      vertex -11.8456 18.6686 0.399994
    endloop
  endfacet
  facet normal -2.32985e-06 2.1258e-05 1
    outer loop
      vertex -13.1109 18.0717 0.4
      vertex -10.6419 18.3423 0.4
      vertex -12.7615 18.3452 0.399995
    endloop
  endfacet
  facet normal 4.47888e-06 -3.93165e-06 1
    outer loop
      vertex 6.00435 -16.6312 0.399998
      vertex 13.6414 -9.20292 0.399993
      vertex 13.4706 -7.61707 0.4
    endloop
  endfacet
  facet normal 8.18669e-06 -3.98607e-05 1
    outer loop
      vertex -12.7615 18.3452 0.399995
      vertex -11.1559 18.5997 0.399992
      vertex -12.3113 18.5631 0.4
    endloop
  endfacet
  facet normal -1.93585e-06 1.95951e-06 1
    outer loop
      vertex 4.37648 -16.4281 0.4
      vertex 13.182 -6.19791 0.399997
      vertex 3.09886 -16.1593 0.399997
    endloop
  endfacet
  facet normal -3.90403e-07 -3.05085e-07 1
    outer loop
      vertex -2.67605 -13.2757 0.399991
      vertex 10.7392 -0.942598 0.4
      vertex 10.0735 -0.0907316 0.4
    endloop
  endfacet
  facet normal 7.29387e-07 -3.88339e-06 1
    outer loop
      vertex 10.7447 -16.2526 0.4
      vertex 13.4234 -12.9169 0.400011
      vertex 9.55102 -16.4768 0.4
    endloop
  endfacet
  facet normal 1.69241e-08 -1.54418e-07 1
    outer loop
      vertex -13.1109 18.0717 0.4
      vertex 8.99664 1.06693 0.399997
      vertex -10.6419 18.3423 0.4
    endloop
  endfacet
  facet normal -1.16739e-05 -3.18767e-06 1
    outer loop
      vertex -21.3827 7.69876 0.399999
      vertex -21.2876 9.86015 0.400007
      vertex -21.6123 9.16702 0.400001
    endloop
  endfacet
  facet normal -9.36192e-07 9.21351e-07 1
    outer loop
      vertex 0.257945 -15.121 0.4
      vertex 12.709 -4.64011 0.400002
      vertex 12.0593 -3.12955 0.4
    endloop
  endfacet
  facet normal -8.49719e-06 6.15308e-06 1
    outer loop
      vertex 13.4234 -12.9169 0.400011
      vertex 13.6295 -11.1696 0.400002
      vertex 9.55102 -16.4768 0.4
    endloop
  endfacet
  facet normal 2.08973e-06 -1.98276e-06 1
    outer loop
      vertex 9.55102 -16.4768 0.4
      vertex 13.6295 -11.1696 0.400002
      vertex 7.96077 -16.6398 0.400003
    endloop
  endfacet
  facet normal -0.000128159 9.96188e-05 1
    outer loop
      vertex 12.9266 -14.9915 0.400154
      vertex 13.4234 -12.9169 0.400011
      vertex 10.7447 -16.2526 0.4
    endloop
  endfacet
  facet normal 0.00140061 -0.00117763 0.999998
    outer loop
      vertex 12.7033 -15.3887 0.399999
      vertex 12.9266 -14.9915 0.400154
      vertex 12.0311 -15.9122 0.400324
    endloop
  endfacet
  facet normal 1.08844e-06 -1.12341e-06 1
    outer loop
      vertex 6.00435 -16.6312 0.399998
      vertex 13.4706 -7.61707 0.4
      vertex 4.37648 -16.4281 0.4
    endloop
  endfacet
  facet normal 6.77011e-08 8.55194e-09 1
    outer loop
      vertex -4.13309 -11.9246 0.399998
      vertex 8.99664 1.06693 0.399997
      vertex -21.3827 7.69876 0.399999
    endloop
  endfacet
  facet normal 1.5394e-05 1.04509e-06 1
    outer loop
      vertex -21.6127 8.21606 0.400002
      vertex -21.3827 7.69876 0.399999
      vertex -21.6123 9.16702 0.400001
    endloop
  endfacet
  facet normal -2.77011e-05 1.06322e-06 1
    outer loop
      vertex -21.6127 8.21606 0.400002
      vertex -21.6123 9.16702 0.400001
      vertex -21.6688 8.63551 0.4
    endloop
  endfacet
  facet normal -1.26444e-06 6.20829e-07 1
    outer loop
      vertex 3.09886 -16.1593 0.399997
      vertex 12.709 -4.64011 0.400002
      vertex 1.72438 -15.7372 0.399995
    endloop
  endfacet
  facet normal -3.54064e-06 3.48451e-06 1
    outer loop
      vertex 0.257945 -15.121 0.4
      vertex 12.0593 -3.12955 0.4
      vertex -1.03167 -14.4225 0.399993
    endloop
  endfacet
  facet normal -4.26446e-06 4.60204e-06 1
    outer loop
      vertex 13.6295 -11.1696 0.400002
      vertex 13.6414 -9.20292 0.399993
      vertex 7.96077 -16.6398 0.400003
    endloop
  endfacet
  facet normal -1.711e-06 1.76598e-06 1
    outer loop
      vertex 4.37648 -16.4281 0.4
      vertex 13.4706 -7.61707 0.4
      vertex 13.182 -6.19791 0.399997
    endloop
  endfacet
  facet normal 0.00204057 -0.00199937 0.999996
    outer loop
      vertex 12.4218 -15.6755 0.4
      vertex 12.7033 -15.3887 0.399999
      vertex 12.0311 -15.9122 0.400324
    endloop
  endfacet
  facet normal 2.51691e-06 -2.46671e-06 1
    outer loop
      vertex -2.67605 -13.2757 0.399991
      vertex 8.99664 1.06693 0.399997
      vertex -4.13309 -11.9246 0.399998
    endloop
  endfacet
  facet normal 0.99815 -0.0607744 -0.00176658
    outer loop
      vertex -21.6688 8.63551 0.4
      vertex -21.6567 8.78773 2
      vertex -21.6676 8.60871 2
    endloop
  endfacet
  facet normal 0.994394 -0.105704 0.00253661
    outer loop
      vertex -21.6567 8.78773 2
      vertex -21.6123 9.16702 0.400001
      vertex -21.6226 9.10852 2
    endloop
  endfacet
  facet normal 0.994394 -0.105705 0.00253641
    outer loop
      vertex -21.6123 9.16702 0.400001
      vertex -21.6567 8.78773 2
      vertex -21.6688 8.63551 0.4
    endloop
  endfacet
  facet normal 0.123818 0.992287 0.00592395
    outer loop
      vertex 6.00435 -16.6312 0.399998
      vertex 4.906 -16.5037 2
      vertex 5.88853 -16.6263 2
    endloop
  endfacet
  facet normal 0.123802 0.992289 0.00591331
    outer loop
      vertex 4.906 -16.5037 2
      vertex 6.00435 -16.6312 0.399998
      vertex 4.37648 -16.4281 0.4
    endloop
  endfacet
  facet normal -0.867682 0.497109 0.00323661
    outer loop
      vertex 12.912 -15.0274 2
      vertex 12.9266 -14.9915 0.400154
      vertex 12.8405 -15.1522 2
    endloop
  endfacet
  facet normal 0.00440362 0.999978 0.00505687
    outer loop
      vertex 7.96077 -16.6398 0.400003
      vertex 6.64571 -16.6421 2
      vertex 7.82653 -16.6473 2
    endloop
  endfacet
  facet normal 0.00439567 0.999978 0.00505034
    outer loop
      vertex 6.64571 -16.6421 2
      vertex 7.96077 -16.6398 0.400003
      vertex 6.00435 -16.6312 0.399998
    endloop
  endfacet
  facet normal -0.994674 0.103012 -0.00347504
    outer loop
      vertex 13.5588 -11.7983 2
      vertex 13.6396 -11.0181 2
      vertex 13.6295 -11.1696 0.400002
    endloop
  endfacet
  facet normal 0.708607 -0.705603 0.000649483
    outer loop
      vertex -21.2876 9.86015 0.400007
      vertex -16.3366 14.8337 2
      vertex -21.2718 9.87749 2
    endloop
  endfacet
  facet normal 0.708609 -0.705601 0.000638698
    outer loop
      vertex -16.3366 14.8337 2
      vertex -21.2876 9.86015 0.400007
      vertex -13.1109 18.0717 0.4
    endloop
  endfacet
  facet normal -0.978945 0.204118 -0.00143447
    outer loop
      vertex 13.3148 -13.4265 2
      vertex 13.4344 -12.8529 2
      vertex 13.4234 -12.9169 0.400011
    endloop
  endfacet
  facet normal -0.184574 0.982812 0.00364211
    outer loop
      vertex 10.7447 -16.2526 0.4
      vertex 9.93496 -16.4106 2
      vertex 10.6554 -16.2753 2
    endloop
  endfacet
  facet normal -0.184594 0.982808 0.00363183
    outer loop
      vertex 9.93496 -16.4106 2
      vertex 10.7447 -16.2526 0.4
      vertex 9.55102 -16.4768 0.4
    endloop
  endfacet
  facet normal -0.660859 -0.750503 -0.00331778
    outer loop
      vertex 8.99664 1.06693 0.399997
      vertex 9.05996 1.0041 2
      vertex 1.22476 7.90343 2
    endloop
  endfacet
  facet normal -0.255868 0.966697 0.00537075
    outer loop
      vertex 12.0311 -15.9122 0.400324
      vertex 11.1602 -16.1516 2
      vertex 11.9366 -15.9461 2
    endloop
  endfacet
  facet normal -0.255807 0.966713 0.00540627
    outer loop
      vertex 11.1602 -16.1516 2
      vertex 12.0311 -15.9122 0.400324
      vertex 10.7447 -16.2526 0.4
    endloop
  endfacet
  facet normal 0.751067 0.660211 0.00454854
    outer loop
      vertex -10.9349 -4.19785 2
      vertex -21.3827 7.69876 0.399999
      vertex -21.3461 7.6461 2
    endloop
  endfacet
  facet normal 0.751065 0.660212 0.00456758
    outer loop
      vertex -21.3827 7.69876 0.399999
      vertex -10.9349 -4.19785 2
      vertex -4.13309 -11.9246 0.399998
    endloop
  endfacet
  facet normal -0.751644 -0.659526 -0.007532
    outer loop
      vertex 10.0735 -0.0907316 0.4
      vertex 10.2611 -0.322807 2
      vertex 9.70991 0.30537 2
    endloop
  endfacet
  facet normal 0.435647 -0.900117 0.00112415
    outer loop
      vertex -12.6768 18.3882 2
      vertex -12.3113 18.5631 0.4
      vertex -12.4051 18.5197 2
    endloop
  endfacet
  facet normal 0.43566 -0.900111 0.00112772
    outer loop
      vertex -12.3113 18.5631 0.4
      vertex -12.6768 18.3882 2
      vertex -12.7615 18.3452 0.399995
    endloop
  endfacet
  facet normal 0.679948 0.733235 0.0061159
    outer loop
      vertex -3.18838 -12.814 2
      vertex -4.13309 -11.9246 0.399998
      vertex -4.06779 -11.9985 2
    endloop
  endfacet
  facet normal 0.679934 0.733248 0.00613129
    outer loop
      vertex -4.13309 -11.9246 0.399998
      vertex -3.18838 -12.814 2
      vertex -2.67605 -13.2757 0.399991
    endloop
  endfacet
  facet normal -0.87117 -0.49098 -0.00102743
    outer loop
      vertex 11.4154 -1.96296 0.4
      vertex 11.6317 -2.3501 2
      vertex 11.4126 -1.96134 2
    endloop
  endfacet
  facet normal 0.0365377 -0.999306 -0.00725659
    outer loop
      vertex -11.8456 18.6686 0.399994
      vertex -11.6974 18.6624 2
      vertex -11.9162 18.6544 2
    endloop
  endfacet
  facet normal 0.572032 0.820191 0.00819033
    outer loop
      vertex -1.03167 -14.4225 0.399993
      vertex -2.27648 -13.5703 2
      vertex -1.28399 -14.2625 2
    endloop
  endfacet
  facet normal 0.572014 0.820203 0.00817
    outer loop
      vertex -2.27648 -13.5703 2
      vertex -1.03167 -14.4225 0.399993
      vertex -2.67605 -13.2757 0.399991
    endloop
  endfacet
  facet normal -0.250368 -0.968127 -0.00682413
    outer loop
      vertex -11.1559 18.5997 0.399992
      vertex -11.0982 18.5735 2
      vertex -11.2811 18.6208 2
    endloop
  endfacet
  facet normal -0.912531 -0.408997 -0.00298684
    outer loop
      vertex 12.0593 -3.12955 0.4
      vertex 12.282 -3.63811 2
      vertex 12.0203 -3.05422 2
    endloop
  endfacet
  facet normal 0.476256 0.879294 0.00461977
    outer loop
      vertex -1.03167 -14.4225 0.399993
      vertex -0.112981 -14.9285 2
      vertex 0.257945 -15.121 0.4
    endloop
  endfacet
  facet normal 0.476353 0.879243 0.00454807
    outer loop
      vertex -0.112981 -14.9285 2
      vertex -1.03167 -14.4225 0.399993
      vertex -0.891347 -14.5068 2
    endloop
  endfacet
  facet normal -0.950643 -0.310271 -0.00322886
    outer loop
      vertex 12.709 -4.64011 0.400002
      vertex 12.8556 -5.10593 2
      vertex 12.6741 -4.54983 2
    endloop
  endfacet
  facet normal 0.387369 0.921901 0.00668044
    outer loop
      vertex 1.28941 -15.566 2
      vertex 0.257945 -15.121 0.4
      vertex 0.404323 -15.1941 2
    endloop
  endfacet
  facet normal 0.387383 0.921895 0.00666966
    outer loop
      vertex 0.257945 -15.121 0.4
      vertex 1.28941 -15.566 2
      vertex 1.72438 -15.7372 0.399995
    endloop
  endfacet
  facet normal -0.973333 -0.229374 -0.00312616
    outer loop
      vertex 13.182 -6.19791 0.399997
      vertex 13.2615 -6.55707 2
      vertex 13.1411 -6.04616 2
    endloop
  endfacet
  facet normal 0.293564 0.955928 0.00466712
    outer loop
      vertex 1.72438 -15.7372 0.399995
      vertex 2.73542 -16.0555 2
      vertex 3.09886 -16.1593 0.399997
    endloop
  endfacet
  facet normal 0.293495 0.955949 0.00471483
    outer loop
      vertex 2.73542 -16.0555 2
      vertex 1.72438 -15.7372 0.399995
      vertex 1.90583 -15.8008 2
    endloop
  endfacet
  facet normal 0.913754 0.406217 0.0064012
    outer loop
      vertex -21.4515 7.82824 2
      vertex -21.6127 8.21606 0.400002
      vertex -21.5903 8.14046 2
    endloop
  endfacet
  facet normal 0.913734 0.406261 0.00641389
    outer loop
      vertex -21.6127 8.21606 0.400002
      vertex -21.4515 7.82824 2
      vertex -21.3827 7.69876 0.399999
    endloop
  endfacet
  facet normal -0.990688 -0.136086 -0.0043052
    outer loop
      vertex 13.4706 -7.61707 0.4
      vertex 13.5281 -8.08628 2
      vertex 13.4357 -7.41362 2
    endloop
  endfacet
  facet normal 0.20588 0.978559 0.00597231
    outer loop
      vertex 3.09886 -16.1593 0.399997
      vertex 4.06342 -16.372 2
      vertex 4.37648 -16.4281 0.4
    endloop
  endfacet
  facet normal 0.205835 0.978568 0.00600055
    outer loop
      vertex 4.06342 -16.372 2
      vertex 3.09886 -16.1593 0.399997
      vertex 3.2923 -16.2098 2
    endloop
  endfacet
  facet normal 0.991204 0.132333 0.00147317
    outer loop
      vertex -21.6338 8.35554 2
      vertex -21.6688 8.63551 0.4
      vertex -21.6676 8.60871 2
    endloop
  endfacet
  facet normal 0.991173 0.132566 0.00151465
    outer loop
      vertex -21.6688 8.63551 0.4
      vertex -21.6338 8.35554 2
      vertex -21.6127 8.21606 0.400002
    endloop
  endfacet
  facet normal -0.518001 0.855354 0.00673469
    outer loop
      vertex 12.4218 -15.6755 0.4
      vertex 12.132 -15.8636 2
      vertex 12.3678 -15.7208 2
    endloop
  endfacet
  facet normal -0.518145 0.855266 0.00669818
    outer loop
      vertex 12.132 -15.8636 2
      vertex 12.4218 -15.6755 0.4
      vertex 12.0311 -15.9122 0.400324
    endloop
  endfacet
  facet normal 0.955533 -0.294849 -0.00462919
    outer loop
      vertex -21.6123 9.16702 0.400001
      vertex -21.5772 9.25565 2
      vertex -21.6226 9.10852 2
    endloop
  endfacet
  facet normal -0.871691 0.490051 0.00231184
    outer loop
      vertex 12.7033 -15.3887 0.399999
      vertex 12.8405 -15.1522 2
      vertex 12.9266 -14.9915 0.400154
    endloop
  endfacet
  facet normal -0.871622 0.490174 0.00228778
    outer loop
      vertex 12.8405 -15.1522 2
      vertex 12.7033 -15.3887 0.399999
      vertex 12.7057 -15.3919 2
    endloop
  endfacet
  facet normal -0.999966 0.00605062 0.00568791
    outer loop
      vertex 13.6295 -11.1696 0.400002
      vertex 13.6467 -9.8311 2
      vertex 13.6414 -9.20292 0.399993
    endloop
  endfacet
  facet normal -0.999966 0.00598126 0.00574594
    outer loop
      vertex 13.6467 -9.8311 2
      vertex 13.6295 -11.1696 0.400002
      vertex 13.6396 -11.0181 2
    endloop
  endfacet
  facet normal 0.0208623 0.999781 -0.00155166
    outer loop
      vertex 5.88853 -16.6263 2
      vertex 6.64571 -16.6421 2
      vertex 6.00435 -16.6312 0.399998
    endloop
  endfacet
  facet normal -0.0746023 0.997212 -0.00158471
    outer loop
      vertex 7.82653 -16.6473 2
      vertex 8.43072 -16.6021 2
      vertex 7.96077 -16.6398 0.400003
    endloop
  endfacet
  facet normal -0.993113 0.117141 0.00214594
    outer loop
      vertex 13.4234 -12.9169 0.400011
      vertex 13.5588 -11.7983 2
      vertex 13.6295 -11.1696 0.400002
    endloop
  endfacet
  facet normal -0.993112 0.117147 0.00214178
    outer loop
      vertex 13.5588 -11.7983 2
      vertex 13.4234 -12.9169 0.400011
      vertex 13.4344 -12.8529 2
    endloop
  endfacet
  facet normal -0.168561 0.985691 -0.000334711
    outer loop
      vertex 9.39054 -16.5037 2
      vertex 9.93496 -16.4106 2
      vertex 9.55102 -16.4768 0.4
    endloop
  endfacet
  facet normal 0.707162 -0.707033 -0.00517522
    outer loop
      vertex -13.1109 18.0717 0.4
      vertex -13.0483 18.1226 2
      vertex -16.3366 14.8337 2
    endloop
  endfacet
  facet normal -0.238006 0.971264 0.000496106
    outer loop
      vertex 10.6554 -16.2753 2
      vertex 11.1602 -16.1516 2
      vertex 10.7447 -16.2526 0.4
    endloop
  endfacet
  facet normal -0.959108 0.283029 -0.00240163
    outer loop
      vertex 12.912 -15.0274 2
      vertex 13.0149 -14.6787 2
      vertex 12.9266 -14.9915 0.400154
    endloop
  endfacet
  facet normal -0.972472 0.232876 0.00816463
    outer loop
      vertex 12.9266 -14.9915 0.400154
      vertex 13.3148 -13.4265 2
      vertex 13.4234 -12.9169 0.400011
    endloop
  endfacet
  facet normal -0.972466 0.232904 0.00813599
    outer loop
      vertex 13.3148 -13.4265 2
      vertex 12.9266 -14.9915 0.400154
      vertex 13.0149 -14.6787 2
    endloop
  endfacet
  facet normal -0.660485 -0.75084 -0.000105384
    outer loop
      vertex -10.6419 18.3423 0.4
      vertex 1.22476 7.90343 2
      vertex -10.6284 18.3302 2
    endloop
  endfacet
  facet normal -0.660487 -0.750838 -7.70364e-05
    outer loop
      vertex 1.22476 7.90343 2
      vertex -10.6419 18.3423 0.4
      vertex 8.99664 1.06693 0.399997
    endloop
  endfacet
  facet normal -0.732201 -0.681085 0.00223152
    outer loop
      vertex 8.99664 1.06693 0.399997
      vertex 9.70991 0.30537 2
      vertex 9.05996 1.0041 2
    endloop
  endfacet
  facet normal -0.732196 -0.681091 0.00222624
    outer loop
      vertex 9.70991 0.30537 2
      vertex 8.99664 1.06693 0.399997
      vertex 10.0735 -0.0907316 0.4
    endloop
  endfacet
  facet normal 0.750592 0.660766 -0.000114445
    outer loop
      vertex -10.9349 -4.19785 2
      vertex -4.06779 -11.9985 2
      vertex -4.13309 -11.9246 0.399998
    endloop
  endfacet
  facet normal -0.78794 -0.615744 0.00307406
    outer loop
      vertex 10.7392 -0.942598 0.4
      vertex 10.2611 -0.322807 2
      vertex 10.0735 -0.0907316 0.4
    endloop
  endfacet
  facet normal -0.787935 -0.61575 0.00307795
    outer loop
      vertex 10.2611 -0.322807 2
      vertex 10.7392 -0.942598 0.4
      vertex 10.6629 -0.836964 2
    endloop
  endfacet
  facet normal 0.530845 -0.847452 -0.00532631
    outer loop
      vertex -12.7615 18.3452 0.399995
      vertex -12.6768 18.3882 2
      vertex -12.8374 18.2876 2
    endloop
  endfacet
  facet normal 0.669112 0.743162 -0.000194879
    outer loop
      vertex -2.67725 -13.2742 2
      vertex -2.67605 -13.2757 0.399991
      vertex -3.18838 -12.814 2
    endloop
  endfacet
  facet normal 0.220942 -0.975286 0.00108157
    outer loop
      vertex -11.8456 18.6686 0.399994
      vertex -12.1973 18.5907 2
      vertex -12.3113 18.5631 0.4
    endloop
  endfacet
  facet normal 0.221006 -0.975272 0.00109635
    outer loop
      vertex -12.1973 18.5907 2
      vertex -11.8456 18.6686 0.399994
      vertex -11.9162 18.6544 2
    endloop
  endfacet
  facet normal 0.323316 -0.946267 -0.00671312
    outer loop
      vertex -12.3113 18.5631 0.4
      vertex -12.1973 18.5907 2
      vertex -12.4051 18.5197 2
    endloop
  endfacet
  facet normal -0.875493 -0.483229 0.00143245
    outer loop
      vertex 12.0593 -3.12955 0.4
      vertex 11.6317 -2.3501 2
      vertex 11.4154 -1.96296 0.4
    endloop
  endfacet
  facet normal -0.875514 -0.483191 0.0014086
    outer loop
      vertex 11.6317 -2.3501 2
      vertex 12.0593 -3.12955 0.4
      vertex 12.0203 -3.05422 2
    endloop
  endfacet
  facet normal 0.594234 0.804292 -0.000308347
    outer loop
      vertex -2.67725 -13.2742 2
      vertex -2.27648 -13.5703 2
      vertex -2.67605 -13.2757 0.399991
    endloop
  endfacet
  facet normal -0.0994023 -0.995033 0.00535136
    outer loop
      vertex -11.1559 18.5997 0.399992
      vertex -11.6974 18.6624 2
      vertex -11.8456 18.6686 0.399994
    endloop
  endfacet
  facet normal -0.0994313 -0.99503 0.00534143
    outer loop
      vertex -11.6974 18.6624 2
      vertex -11.1559 18.5997 0.399992
      vertex -11.2811 18.6208 2
    endloop
  endfacet
  facet normal 0.528284 0.849066 -0.00159628
    outer loop
      vertex -1.28399 -14.2625 2
      vertex -0.891347 -14.5068 2
      vertex -1.03167 -14.4225 0.399993
    endloop
  endfacet
  facet normal -0.918632 -0.395108 0.00227683
    outer loop
      vertex 12.709 -4.64011 0.400002
      vertex 12.282 -3.63811 2
      vertex 12.0593 -3.12955 0.4
    endloop
  endfacet
  facet normal -0.918645 -0.395078 0.00225435
    outer loop
      vertex 12.282 -3.63811 2
      vertex 12.709 -4.64011 0.400002
      vertex 12.6741 -4.54983 2
    endloop
  endfacet
  facet normal 0.456746 0.889596 -0.00114259
    outer loop
      vertex -0.112981 -14.9285 2
      vertex 0.404323 -15.1941 2
      vertex 0.257945 -15.121 0.4
    endloop
  endfacet
  facet normal -0.95686 -0.290534 0.00308678
    outer loop
      vertex 13.182 -6.19791 0.399997
      vertex 12.8556 -5.10593 2
      vertex 12.709 -4.64011 0.400002
    endloop
  endfacet
  facet normal -0.956855 -0.290548 0.00309707
    outer loop
      vertex 12.8556 -5.10593 2
      vertex 13.182 -6.19791 0.399997
      vertex 13.1411 -6.04616 2
    endloop
  endfacet
  facet normal 0.355958 0.934496 -0.00322164
    outer loop
      vertex 1.28941 -15.566 2
      vertex 1.90583 -15.8008 2
      vertex 1.72438 -15.7372 0.399995
    endloop
  endfacet
  facet normal 0.865523 0.500857 -0.00331438
    outer loop
      vertex -21.4515 7.82824 2
      vertex -21.3461 7.6461 2
      vertex -21.3827 7.69876 0.399999
    endloop
  endfacet
  facet normal -0.979935 -0.199279 0.00395729
    outer loop
      vertex 13.4706 -7.61707 0.4
      vertex 13.2615 -6.55707 2
      vertex 13.182 -6.19791 0.399997
    endloop
  endfacet
  facet normal -0.979932 -0.199293 0.00396654
    outer loop
      vertex 13.2615 -6.55707 2
      vertex 13.4706 -7.61707 0.4
      vertex 13.4357 -7.41362 2
    endloop
  endfacet
  facet normal 0.267019 0.96369 -0.00186609
    outer loop
      vertex 2.73542 -16.0555 2
      vertex 3.2923 -16.2098 2
      vertex 3.09886 -16.1593 0.399997
    endloop
  endfacet
  facet normal 0.980145 0.198235 -0.00435545
    outer loop
      vertex -21.6338 8.35554 2
      vertex -21.5903 8.14046 2
      vertex -21.6127 8.21606 0.400002
    endloop
  endfacet
  facet normal -0.994241 -0.107082 0.00432799
    outer loop
      vertex 13.6414 -9.20292 0.399993
      vertex 13.5281 -8.08628 2
      vertex 13.4706 -7.61707 0.4
    endloop
  endfacet
  facet normal -0.994251 -0.10699 0.00426307
    outer loop
      vertex 13.5281 -8.08628 2
      vertex 13.6414 -9.20292 0.399993
      vertex 13.6311 -9.04345 2
    endloop
  endfacet
  facet normal 0.154429 0.987994 -0.00442557
    outer loop
      vertex 4.06342 -16.372 2
      vertex 4.906 -16.5037 2
      vertex 4.37648 -16.4281 0.4
    endloop
  endfacet
  facet normal 0.880595 -0.473857 -0.00356047
    outer loop
      vertex -21.2876 9.86015 0.400007
      vertex -21.2718 9.87749 2
      vertex -21.3813 9.674 2
    endloop
  endfacet
  facet normal 0.905621 -0.424073 0.00362396
    outer loop
      vertex -21.6123 9.16702 0.400001
      vertex -21.3813 9.674 2
      vertex -21.5772 9.25565 2
    endloop
  endfacet
  facet normal 0.905556 -0.424212 0.00367722
    outer loop
      vertex -21.3813 9.674 2
      vertex -21.6123 9.16702 0.400001
      vertex -21.2876 9.86015 0.400007
    endloop
  endfacet
  facet normal -0.999794 -0.0198017 -0.00446255
    outer loop
      vertex 13.6414 -9.20292 0.399993
      vertex 13.6467 -9.8311 2
      vertex 13.6311 -9.04345 2
    endloop
  endfacet
  facet normal -0.71367 0.700477 0.00247146
    outer loop
      vertex 12.7033 -15.3887 0.399999
      vertex 12.5358 -15.565 2
      vertex 12.7057 -15.3919 2
    endloop
  endfacet
  facet normal -0.713668 0.70048 0.00247197
    outer loop
      vertex 12.5358 -15.565 2
      vertex 12.7033 -15.3887 0.399999
      vertex 12.4218 -15.6755 0.4
    endloop
  endfacet
  facet normal -0.679981 0.733227 -0.00218986
    outer loop
      vertex 12.3678 -15.7208 2
      vertex 12.5358 -15.565 2
      vertex 12.4218 -15.6755 0.4
    endloop
  endfacet
  facet normal -0.833524 -0.552474 -0.00327364
    outer loop
      vertex 10.7392 -0.942598 0.4
      vertex 11.0711 -1.45282 2
      vertex 10.6629 -0.836964 2
    endloop
  endfacet
  facet normal -0.833567 -0.55241 -0.00324423
    outer loop
      vertex 11.0711 -1.45282 2
      vertex 10.7392 -0.942598 0.4
      vertex 11.4154 -1.96296 0.4
    endloop
  endfacet
  facet normal -0.830172 -0.557507 -0.000888324
    outer loop
      vertex 11.0711 -1.45282 2
      vertex 11.4154 -1.96296 0.4
      vertex 11.4126 -1.96134 2
    endloop
  endfacet
  facet normal -0.388961 0.921248 -0.00345476
    outer loop
      vertex 11.9366 -15.9461 2
      vertex 12.132 -15.8636 2
      vertex 12.0311 -15.9122 0.400324
    endloop
  endfacet
  facet normal -0.101983 0.994765 0.00649564
    outer loop
      vertex 9.55102 -16.4768 0.4
      vertex 8.43072 -16.6021 2
      vertex 9.39054 -16.5037 2
    endloop
  endfacet
  facet normal -0.101963 0.994767 0.00650932
    outer loop
      vertex 8.43072 -16.6021 2
      vertex 9.55102 -16.4768 0.4
      vertex 7.96077 -16.6398 0.400003
    endloop
  endfacet
  facet normal 0.616187 -0.787599 0.000947178
    outer loop
      vertex -13.1109 18.0717 0.4
      vertex -12.8374 18.2876 2
      vertex -13.0483 18.1226 2
    endloop
  endfacet
  facet normal 0.616387 -0.787443 0.000891914
    outer loop
      vertex -12.8374 18.2876 2
      vertex -13.1109 18.0717 0.4
      vertex -12.7615 18.3452 0.399995
    endloop
  endfacet
  facet normal -0.447674 -0.894195 0.00150179
    outer loop
      vertex -11.1559 18.5997 0.399992
      vertex -10.788 18.4182 2
      vertex -11.0982 18.5735 2
    endloop
  endfacet
  facet normal -0.44777 -0.894148 0.00152916
    outer loop
      vertex -10.788 18.4182 2
      vertex -11.1559 18.5997 0.399992
      vertex -10.6419 18.3423 0.4
    endloop
  endfacet
  facet normal -0.482844 -0.875703 -0.00254851
    outer loop
      vertex -10.6419 18.3423 0.4
      vertex -10.6284 18.3302 2
      vertex -10.788 18.4182 2
    endloop
  endfacet
  facet normal 0.707107 -0 0.707107
    outer loop
      vertex 32.3 -26 2
      vertex 34.3 30 0
      vertex 32.3 30 2
    endloop
  endfacet
  facet normal 0.707107 0 0.707107
    outer loop
      vertex 34.3 30 0
      vertex 32.3 -26 2
      vertex 34.3 -26 0
    endloop
  endfacet
  facet normal -0.707107 0 0.707107
    outer loop
      vertex -34.3 -26 0
      vertex -32.3 30 2
      vertex -34.3 30 0
    endloop
  endfacet
  facet normal -0.707107 0 0.707107
    outer loop
      vertex -32.3 30 2
      vertex -34.3 -26 0
      vertex -32.3 -26 2
    endloop
  endfacet
  facet normal -0.707107 0 -0.707107
    outer loop
      vertex -32.3 -26 -2
      vertex -34.3 30 0
      vertex -32.3 30 -2
    endloop
  endfacet
  facet normal -0.707107 -0 -0.707107
    outer loop
      vertex -34.3 30 0
      vertex -32.3 -26 -2
      vertex -34.3 -26 0
    endloop
  endfacet
  facet normal 0.707107 0 -0.707107
    outer loop
      vertex 34.3 -26 0
      vertex 32.3 30 -2
      vertex 34.3 30 0
    endloop
  endfacet
  facet normal 0.707107 0 -0.707107
    outer loop
      vertex 32.3 30 -2
      vertex 34.3 -26 0
      vertex 32.3 -26 -2
    endloop
  endfacet
endsolid OpenSCAD_Model
