solid USB-M-OK
facet normal 5.612847248138593e-15 -0.7071069497738808 0.7071066125991741
outer loop
vertex 18.389903298170307 0.6429596913291636 2.487499868869786
vertex 7.889903298170572 0.14295969132907807 1.9874996304512054
vertex 17.889903059751727 0.14295969132915604 1.9874996304512054
endloop
endfacet
facet normal 5.612847248138593e-15 -0.7071069497738808 0.7071066125991741
outer loop
vertex 7.889903298170572 0.14295969132907807 1.9874996304512054
vertex 18.389903298170307 0.6429596913291636 2.487499868869786
vertex 7.38990329817015 0.642959691329074 2.487499868869786
endloop
endfacet
facet normal -2.6737458093875755e-16 -2.138363209514992e-15 -1.0
outer loop
vertex 8.039902687967796 8.792959691329074 3.712500131130248
vertex 10.73990287870228 17.232959691329107 3.7125001311302293
vertex 10.739902878702347 8.792959691329095 3.7125001311302475
endloop
endfacet
facet normal -2.6737458093875755e-16 -2.138363209514992e-15 -1.0
outer loop
vertex 10.73990287870228 17.232959691329107 3.7125001311302293
vertex 8.039902687967796 8.792959691329074 3.712500131130248
vertex 8.039902687967729 17.232959691329086 3.71250013113023
endloop
endfacet
facet normal -5.613080539794496e-15 0.7071067811865476 -0.7071067811865476
outer loop
vertex 19.464903307855995 23.59295969132917 2.3499999642372114
vertex 20.389903140962616 22.792959691329177 1.5499999642372113
vertex 19.464903307856 22.79295969132917 1.5499999642372113
endloop
endfacet
facet normal -5.613080539794496e-15 0.7071067811865476 -0.7071067811865476
outer loop
vertex 20.389903140962616 22.792959691329177 1.5499999642372113
vertex 19.464903307855995 23.59295969132917 2.3499999642372114
vertex 20.389903140962613 23.59295969132918 2.3499999642372114
endloop
endfacet
facet normal 1.2375626020888554e-15 9.823889041066588e-30 1.0
outer loop
vertex 17.789903355539646 23.59295969132916 3.1500000357627878
vertex 18.66490323633003 22.792959691329163 3.150000035762787
vertex 18.664903236330026 23.592959691329167 3.150000035762787
endloop
endfacet
facet normal 1.2375626020888554e-15 9.823889041066588e-30 1.0
outer loop
vertex 18.66490323633003 22.792959691329163 3.150000035762787
vertex 17.789903355539646 23.59295969132916 3.1500000357627878
vertex 17.789903355539654 22.792959691329155 3.1500000357627878
endloop
endfacet
facet normal -1.0 -7.93809462606987e-15 0.0
outer loop
vertex 18.66490323633003 22.792959691329163 3.150000035762787
vertex 18.664903236330026 23.592959691329167 4.05
vertex 18.664903236330026 23.592959691329167 3.150000035762787
endloop
endfacet
facet normal -1.0 -7.93809462606987e-15 0.0
outer loop
vertex 18.664903236330026 23.592959691329167 4.05
vertex 18.66490323633003 22.792959691329163 3.150000035762787
vertex 18.66490323633003 22.792959691329163 4.05
endloop
endfacet
facet normal 0.0 0.0 1.0
outer loop
vertex 18.664903236330026 23.592959691329167 4.05
vertex 19.464903307856 22.79295969132917 4.05
vertex 19.464903307855995 23.59295969132917 4.05
endloop
endfacet
facet normal 0.0 0.0 1.0
outer loop
vertex 19.464903307856 22.79295969132917 4.05
vertex 18.664903236330026 23.592959691329167 4.05
vertex 18.66490323633003 22.792959691329163 4.05
endloop
endfacet
facet normal 1.0 7.93809462606987e-15 0.0
outer loop
vertex 19.464903307856 22.79295969132917 4.05
vertex 19.464903307855995 23.59295969132917 3.150000035762787
vertex 19.464903307855995 23.59295969132917 4.05
endloop
endfacet
facet normal 1.0 7.93809462606987e-15 0.0
outer loop
vertex 19.464903307855995 23.59295969132917 3.150000035762787
vertex 19.464903307856 22.79295969132917 4.05
vertex 19.464903307856 22.79295969132917 3.150000035762787
endloop
endfacet
facet normal 0.0 0.0 1.0
outer loop
vertex 19.464903307855995 23.59295969132917 3.150000035762787
vertex 20.389903140962616 22.792959691329177 3.150000035762787
vertex 20.389903140962613 23.59295969132918 3.150000035762787
endloop
endfacet
facet normal 0.0 0.0 1.0
outer loop
vertex 20.389903140962616 22.792959691329177 3.150000035762787
vertex 19.464903307855995 23.59295969132917 3.150000035762787
vertex 19.464903307856 22.79295969132917 3.150000035762787
endloop
endfacet
facet normal -6.459833350973985e-15 0.7071067811865475 -0.7071067811865476
outer loop
vertex 17.789903355539654 22.792959691329155 1.5499999642372124
vertex 18.664903236330026 23.592959691329167 2.3499999642372114
vertex 18.66490323633003 22.792959691329163 1.5499999642372113
endloop
endfacet
facet normal -6.459833350973985e-15 0.7071067811865475 -0.7071067811865476
outer loop
vertex 18.664903236330026 23.592959691329167 2.3499999642372114
vertex 17.789903355539654 22.792959691329155 1.5499999642372124
vertex 17.789903355539646 23.59295969132916 2.3499999642372127
endloop
endfacet
facet normal -6.86915176998929e-15 0.7071067811865476 -0.7071067811865476
outer loop
vertex 18.66490323633003 22.792959691329163 0.6499999999999996
vertex 19.464903307855995 23.59295969132917 1.4499999999999982
vertex 19.464903307856 22.79295969132917 0.6499999999999981
endloop
endfacet
facet normal -6.86915176998929e-15 0.7071067811865476 -0.7071067811865476
outer loop
vertex 19.464903307855995 23.59295969132917 1.4499999999999982
vertex 18.66490323633003 22.792959691329163 0.6499999999999996
vertex 18.664903236330026 23.592959691329167 1.4499999999999995
endloop
endfacet
facet normal -3.5500242905523475e-15 0.44721365236609123 -0.894427162566847
outer loop
vertex 8.789902878702604 1.792959595961588 2.3374998450279314
vertex 9.989903641641602 2.092959595961598 2.4874998688697842
vertex 9.989903641641606 1.7929595959615967 2.3374998450279314
endloop
endfacet
facet normal -3.5500242905523475e-15 0.44721365236609123 -0.894427162566847
outer loop
vertex 9.989903641641602 2.092959595961598 2.4874998688697842
vertex 8.789902878702604 1.792959595961588 2.3374998450279314
vertex 8.789902878702602 2.092959595961589 2.4874998688697842
endloop
endfacet
facet normal -3.5500242905523475e-15 0.44721365236609123 -0.894427162566847
outer loop
vertex 15.789903355539513 1.792959595961643 2.3374998450279314
vertex 16.989903164804744 2.0929595959616556 2.4874998688697842
vertex 16.989903164804748 1.7929595959616544 2.3374998450279314
endloop
endfacet
facet normal -3.5500242905523475e-15 0.44721365236609123 -0.894427162566847
outer loop
vertex 16.989903164804744 2.0929595959616556 2.4874998688697842
vertex 15.789903355539513 1.792959595961643 2.3374998450279314
vertex 15.789903355539511 2.092959595961644 2.4874998688697842
endloop
endfacet
facet normal 1.0 7.103451645819861e-15 1.7493399635688522e-14
outer loop
vertex 8.039902687967796 8.792959691329074 3.712500131130248
vertex 8.039902687967821 17.232959691329086 1.0374998688697963
vertex 8.039902687967729 17.232959691329086 3.71250013113023
endloop
endfacet
facet normal 1.0 7.103451645819861e-15 1.7493399635688522e-14
outer loop
vertex 8.039902687967821 17.232959691329086 1.0374998688697963
vertex 8.039902687967796 8.792959691329074 3.712500131130248
vertex 8.039902687967796 8.792959691329074 2.487499868869785
endloop
endfacet
facet normal 1.0 7.103451645819861e-15 1.7493399635688522e-14
outer loop
vertex 8.039902687967821 17.232959691329086 1.0374998688697963
vertex 8.039902687967796 8.792959691329074 2.487499868869785
vertex 8.039902687967889 8.792959691329063 1.0374998688698143
endloop
endfacet
facet normal -1.0 -7.93809462606987e-15 0.0
outer loop
vertex 10.739902878702347 8.792959691329083 1.0374998688698136
vertex 10.73990287870228 17.232959691329107 3.7125001311302293
vertex 10.73990287870228 17.232959691329107 1.0374998688697952
endloop
endfacet
facet normal -1.0 -7.93809462606987e-15 0.0
outer loop
vertex 10.73990287870228 17.232959691329107 3.7125001311302293
vertex 10.739902878702347 8.792959691329083 1.0374998688698136
vertex 10.739902878702347 8.792959691329095 2.4874998688697842
endloop
endfacet
facet normal -1.0 -7.93809462606987e-15 0.0
outer loop
vertex 10.739902878702347 8.792959691329095 3.7125001311302475
vertex 10.73990287870228 17.232959691329107 3.7125001311302293
vertex 10.739902878702347 8.792959691329095 2.4874998688697842
endloop
endfacet
facet normal -1.0 -7.93809462606987e-15 0.0
outer loop
vertex 17.73990335553963 22.792959691329155 0.5250000000000006
vertex 17.739903355539635 22.292959691329166 3.775000000000002
vertex 17.73990335553963 22.79295969132917 4.275000000000001
endloop
endfacet
facet normal -1.0 -7.93809462606987e-15 0.0
outer loop
vertex 17.739903355539635 22.292959691329166 3.775000000000002
vertex 17.73990335553963 22.792959691329155 0.5250000000000006
vertex 17.739903355539635 22.29295969132916 0.9750000000000019
endloop
endfacet
facet normal -1.0 -7.93809462606987e-15 0.0
outer loop
vertex 17.739903355539635 22.292959691329166 3.775000000000002
vertex 17.739903355539635 22.29295969132916 0.9750000000000019
vertex 17.739903355539674 17.29295969132916 3.7750000000000137
endloop
endfacet
facet normal -1.0 -7.93809462606987e-15 0.0
outer loop
vertex 17.739903355539674 17.29295969132916 3.7750000000000137
vertex 17.739903355539635 22.29295969132916 0.9750000000000019
vertex 17.739903355539674 17.29295969132916 0.9750000000000123
endloop
endfacet
facet normal -1.0 -7.93809462606987e-15 0.0
outer loop
vertex 17.739903355539674 17.29295969132916 3.7750000000000137
vertex 17.739903355539674 17.29295969132916 0.9750000000000123
vertex 17.739903355539674 17.232959691329164 1.0374998688697956
endloop
endfacet
facet normal -1.0 -7.93809462606987e-15 0.0
outer loop
vertex 17.739903355539674 17.29295969132916 3.7750000000000137
vertex 17.739903355539674 17.232959691329164 1.0374998688697956
vertex 17.739903355539674 17.232959691329164 3.71250013113023
endloop
endfacet
facet normal 1.0 3.851599958847775e-15 4.312888925618422e-15
outer loop
vertex 15.0399031648048 8.792959691329129 3.712500131130249
vertex 15.039903164804823 17.23295969132914 1.0374998688697956
vertex 15.039903164804777 17.23295969132914 3.71250013113023
endloop
endfacet
facet normal 1.0 3.851599958847775e-15 4.312888925618422e-15
outer loop
vertex 15.039903164804823 17.23295969132914 1.0374998688697956
vertex 15.0399031648048 8.792959691329129 3.712500131130249
vertex 15.0399031648048 8.792959691329129 2.4874998688697842
endloop
endfacet
facet normal 1.0 3.851599958847775e-15 4.312888925618422e-15
outer loop
vertex 15.039903164804823 17.23295969132914 1.0374998688697956
vertex 15.0399031648048 8.792959691329129 2.4874998688697842
vertex 15.0399031648048 8.792959691329118 1.0374998688698136
endloop
endfacet
facet normal -1.0 -7.93809462606987e-15 0.0
outer loop
vertex 17.73990335553974 8.792959691329152 1.0374998688698134
vertex 17.739903355539674 17.232959691329164 3.71250013113023
vertex 17.739903355539674 17.232959691329164 1.0374998688697956
endloop
endfacet
facet normal -1.0 -7.93809462606987e-15 0.0
outer loop
vertex 17.739903355539674 17.232959691329164 3.71250013113023
vertex 17.73990335553974 8.792959691329152 1.0374998688698134
vertex 17.73990335553974 8.792959691329152 3.712500131130249
endloop
endfacet
facet normal -1.0 -7.93809462606987e-15 0.0
outer loop
vertex 17.73990335553974 8.792959691329152 3.712500131130249
vertex 17.73990335553974 8.792959691329152 1.0374998688698134
vertex 17.73990335553974 8.792959691329152 2.487499868869784
endloop
endfacet
facet normal 1.7461824848671273e-29 -2.22389773789559e-15 -1.0
outer loop
vertex 15.0399031648048 8.792959691329129 3.712500131130249
vertex 17.739903355539674 17.232959691329164 3.71250013113023
vertex 17.73990335553974 8.792959691329152 3.712500131130249
endloop
endfacet
facet normal 1.7461824848671273e-29 -2.22389773789559e-15 -1.0
outer loop
vertex 17.739903355539674 17.232959691329164 3.71250013113023
vertex 15.0399031648048 8.792959691329129 3.712500131130249
vertex 15.039903164804777 17.23295969132914 3.71250013113023
endloop
endfacet
facet normal -1.3368729046937064e-16 -2.09354311664356e-15 -1.0
outer loop
vertex 8.039902687967729 17.29295969132908 3.775000000000013
vertex 10.73990287870224 22.292959691329113 3.775000000000002
vertex 10.73990287870228 17.292959691329106 3.7750000000000123
endloop
endfacet
facet normal -1.3368729046937064e-16 -2.09354311664356e-15 -1.0
outer loop
vertex 10.73990287870224 22.292959691329113 3.775000000000002
vertex 8.039902687967729 17.29295969132908 3.775000000000013
vertex 8.03990268796769 22.292959691329088 3.775000000000002
endloop
endfacet
facet normal -5.912821371978091e-15 0.7213865951398746 -0.6925325843254589
outer loop
vertex 8.039902687967729 17.232959691329086 3.71250013113023
vertex 10.73990287870228 17.292959691329106 3.7750000000000123
vertex 10.73990287870228 17.232959691329107 3.7125001311302293
endloop
endfacet
facet normal -5.912821371978091e-15 0.7213865951398746 -0.6925325843254589
outer loop
vertex 10.73990287870228 17.292959691329106 3.7750000000000123
vertex 8.039902687967729 17.232959691329086 3.71250013113023
vertex 8.039902687967729 17.29295969132908 3.775000000000013
endloop
endfacet
facet normal -5.4485975057331065e-15 0.7213865951398756 0.6925325843254577
outer loop
vertex 8.039902687967821 17.29295969132908 0.9750000000000134
vertex 10.73990287870228 17.232959691329107 1.0374998688697952
vertex 10.73990287870228 17.292959691329106 0.9750000000000123
endloop
endfacet
facet normal -5.4485975057331065e-15 0.7213865951398756 0.6925325843254577
outer loop
vertex 10.73990287870228 17.232959691329107 1.0374998688697952
vertex 8.039902687967821 17.29295969132908 0.9750000000000134
vertex 8.039902687967821 17.232959691329086 1.0374998688697963
endloop
endfacet
facet normal 1.85070270457219e-29 -2.3101165425032363e-15 -1.0
outer loop
vertex 15.039903164804777 17.292959691329138 3.7750000000000137
vertex 17.739903355539635 22.292959691329166 3.775000000000002
vertex 17.739903355539674 17.29295969132916 3.7750000000000137
endloop
endfacet
facet normal 1.85070270457219e-29 -2.3101165425032363e-15 -1.0
outer loop
vertex 17.739903355539635 22.292959691329166 3.775000000000002
vertex 15.039903164804777 17.292959691329138 3.7750000000000137
vertex 15.03990316480469 22.292959691329145 3.775000000000002
endloop
endfacet
facet normal -5.72643505419871e-15 0.7213865951398785 -0.6925325843254548
outer loop
vertex 15.039903164804777 17.292959691329138 3.7750000000000137
vertex 17.739903355539674 17.232959691329164 3.71250013113023
vertex 15.039903164804777 17.23295969132914 3.71250013113023
endloop
endfacet
facet normal -5.72643505419871e-15 0.7213865951398785 -0.6925325843254548
outer loop
vertex 17.739903355539674 17.232959691329164 3.71250013113023
vertex 15.039903164804777 17.292959691329138 3.7750000000000137
vertex 17.739903355539674 17.29295969132916 3.7750000000000137
endloop
endfacet
facet normal -5.726435054198694e-15 0.7213865951398765 0.692532584325457
outer loop
vertex 15.039903164804823 17.23295969132914 1.0374998688697956
vertex 17.739903355539674 17.29295969132916 0.9750000000000123
vertex 15.039903164804823 17.292959691329138 0.9750000000000123
endloop
endfacet
facet normal -5.726435054198694e-15 0.7213865951398765 0.692532584325457
outer loop
vertex 17.739903355539674 17.29295969132916 0.9750000000000123
vertex 15.039903164804823 17.23295969132914 1.0374998688697956
vertex 17.739903355539674 17.232959691329164 1.0374998688697956
endloop
endfacet
facet normal 3.342182261734567e-16 2.1597468416101407e-15 1.0
outer loop
vertex 8.039902687967821 17.232959691329086 1.0374998688697963
vertex 10.739902878702347 8.792959691329083 1.0374998688698136
vertex 10.73990287870228 17.232959691329107 1.0374998688697952
endloop
endfacet
facet normal 3.342182261734567e-16 2.1597468416101407e-15 1.0
outer loop
vertex 10.739902878702347 8.792959691329083 1.0374998688698136
vertex 8.039902687967821 17.232959691329086 1.0374998688697963
vertex 8.039902687967889 8.792959691329063 1.0374998688698143
endloop
endfacet
facet normal 6.684364523466444e-17 2.11697957741984e-15 1.0
outer loop
vertex 15.039903164804823 17.23295969132914 1.0374998688697956
vertex 17.73990335553974 8.792959691329152 1.0374998688698134
vertex 17.739903355539674 17.232959691329164 1.0374998688697956
endloop
endfacet
facet normal 6.684364523466444e-17 2.11697957741984e-15 1.0
outer loop
vertex 17.73990335553974 8.792959691329152 1.0374998688698134
vertex 15.039903164804823 17.23295969132914 1.0374998688697956
vertex 15.0399031648048 8.792959691329118 1.0374998688698136
endloop
endfacet
facet normal -1.0 -7.93809462606987e-15 0.0
outer loop
vertex 10.73990287870224 22.292959691329106 0.9750000000000022
vertex 10.73990287870228 17.292959691329106 3.7750000000000123
vertex 10.73990287870224 22.292959691329113 3.775000000000002
endloop
endfacet
facet normal -1.0 -7.93809462606987e-15 0.0
outer loop
vertex 10.73990287870228 17.292959691329106 3.7750000000000123
vertex 10.73990287870224 22.292959691329106 0.9750000000000022
vertex 10.73990287870228 17.292959691329106 0.9750000000000123
endloop
endfacet
facet normal -1.0 -7.93809462606987e-15 0.0
outer loop
vertex 10.73990287870228 17.292959691329106 3.7750000000000123
vertex 10.73990287870228 17.292959691329106 0.9750000000000123
vertex 10.73990287870228 17.232959691329107 1.0374998688697952
endloop
endfacet
facet normal -1.0 -7.93809462606987e-15 0.0
outer loop
vertex 10.73990287870228 17.292959691329106 3.7750000000000123
vertex 10.73990287870228 17.232959691329107 1.0374998688697952
vertex 10.73990287870228 17.232959691329107 3.7125001311302293
endloop
endfacet
facet normal 3.3421822617345753e-16 2.0574475456669495e-15 1.0
outer loop
vertex 8.039902687967782 22.292959691329084 0.975000000000003
vertex 10.73990287870228 17.292959691329106 0.9750000000000123
vertex 10.73990287870224 22.292959691329106 0.9750000000000022
endloop
endfacet
facet normal 3.3421822617345753e-16 2.0574475456669495e-15 1.0
outer loop
vertex 10.73990287870228 17.292959691329106 0.9750000000000123
vertex 8.039902687967782 22.292959691329084 0.975000000000003
vertex 8.039902687967821 17.29295969132908 0.9750000000000134
endloop
endfacet
facet normal -1.667513401823437e-29 2.0935431166435597e-15 1.0
outer loop
vertex 15.03990316480469 22.292959691329138 0.9750000000000019
vertex 17.739903355539674 17.29295969132916 0.9750000000000123
vertex 17.739903355539635 22.29295969132916 0.9750000000000019
endloop
endfacet
facet normal -1.667513401823437e-29 2.0935431166435597e-15 1.0
outer loop
vertex 17.739903355539674 17.29295969132916 0.9750000000000123
vertex 15.03990316480469 22.292959691329138 0.9750000000000019
vertex 15.039903164804823 17.292959691329138 0.9750000000000123
endloop
endfacet
facet normal 1.0 1.1956258220456596e-14 5.5386650897144046e-15
outer loop
vertex 15.039903164804777 17.292959691329138 3.7750000000000137
vertex 15.03990316480469 22.292959691329138 0.9750000000000019
vertex 15.03990316480469 22.292959691329145 3.775000000000002
endloop
endfacet
facet normal 1.0 1.1956258220456596e-14 5.5386650897144046e-15
outer loop
vertex 15.03990316480469 22.292959691329138 0.9750000000000019
vertex 15.039903164804777 17.292959691329138 3.7750000000000137
vertex 15.039903164804823 17.292959691329138 0.9750000000000123
endloop
endfacet
facet normal 1.0 1.1956258220456596e-14 5.5386650897144046e-15
outer loop
vertex 15.039903164804823 17.292959691329138 0.9750000000000123
vertex 15.039903164804777 17.292959691329138 3.7750000000000137
vertex 15.039903164804777 17.23295969132914 3.71250013113023
endloop
endfacet
facet normal 1.0 1.1956258220456596e-14 5.5386650897144046e-15
outer loop
vertex 15.039903164804823 17.292959691329138 0.9750000000000123
vertex 15.039903164804777 17.23295969132914 3.71250013113023
vertex 15.039903164804823 17.23295969132914 1.0374998688697956
endloop
endfacet
facet normal 1.0 7.938094626069906e-15 1.674244853863691e-14
outer loop
vertex 8.039902687967729 17.29295969132908 3.775000000000013
vertex 8.039902687967782 22.292959691329084 0.975000000000003
vertex 8.03990268796769 22.292959691329088 3.775000000000002
endloop
endfacet
facet normal 1.0 7.938094626069906e-15 1.674244853863691e-14
outer loop
vertex 8.039902687967782 22.292959691329084 0.975000000000003
vertex 8.039902687967729 17.29295969132908 3.775000000000013
vertex 8.039902687967821 17.29295969132908 0.9750000000000134
endloop
endfacet
facet normal 1.0 7.938094626069906e-15 1.674244853863691e-14
outer loop
vertex 8.039902687967821 17.29295969132908 0.9750000000000134
vertex 8.039902687967729 17.29295969132908 3.775000000000013
vertex 8.039902687967729 17.232959691329086 3.71250013113023
endloop
endfacet
facet normal 1.0 7.938094626069906e-15 1.674244853863691e-14
outer loop
vertex 8.039902687967821 17.29295969132908 0.9750000000000134
vertex 8.039902687967729 17.232959691329086 3.71250013113023
vertex 8.039902687967821 17.232959691329086 1.0374998688697963
endloop
endfacet
facet normal -5.613080539794496e-15 0.7071067811865476 -0.7071067811865476
outer loop
vertex 14.53990316480473 22.79295969132914 4.275000000000001
vertex 17.739903355539635 22.292959691329166 3.775000000000002
vertex 15.03990316480469 22.292959691329145 3.775000000000002
endloop
endfacet
facet normal -5.613080539794496e-15 0.7071067811865476 -0.7071067811865476
outer loop
vertex 17.739903355539635 22.292959691329166 3.775000000000002
vertex 14.53990316480473 22.79295969132914 4.275000000000001
vertex 17.73990335553963 22.79295969132917 4.275000000000001
endloop
endfacet
facet normal 0.7071067811865398 0.7071067811865553 -1.2265549393639958e-15
outer loop
vertex 14.53990316480473 22.79295969132914 4.275000000000001
vertex 15.03990316480469 22.292959691329138 0.9750000000000019
vertex 14.53990316480473 22.79295969132913 0.5250000000000006
endloop
endfacet
facet normal 0.7071067811865398 0.7071067811865553 -1.2265549393639958e-15
outer loop
vertex 15.03990316480469 22.292959691329138 0.9750000000000019
vertex 14.53990316480473 22.79295969132914 4.275000000000001
vertex 15.03990316480469 22.292959691329145 3.775000000000002
endloop
endfacet
facet normal -5.613080539794496e-15 0.7071067811865476 -0.7071067811865476
outer loop
vertex 7.539902687967729 22.79295969132908 4.275000000000001
vertex 10.73990287870224 22.292959691329113 3.775000000000002
vertex 8.03990268796769 22.292959691329088 3.775000000000002
endloop
endfacet
facet normal -5.613080539794496e-15 0.7071067811865476 -0.7071067811865476
outer loop
vertex 10.73990287870224 22.292959691329113 3.775000000000002
vertex 7.539902687967729 22.79295969132908 4.275000000000001
vertex 11.239902878702283 22.79295969132911 4.275000000000001
endloop
endfacet
facet normal -5.306196174555499e-15 0.6689647316224514 0.7432941462471648
outer loop
vertex 14.53990316480473 22.79295969132913 0.5250000000000006
vertex 17.739903355539635 22.29295969132916 0.9750000000000019
vertex 17.73990335553963 22.792959691329155 0.5250000000000006
endloop
endfacet
facet normal -5.306196174555499e-15 0.6689647316224514 0.7432941462471648
outer loop
vertex 17.739903355539635 22.29295969132916 0.9750000000000019
vertex 14.53990316480473 22.79295969132913 0.5250000000000006
vertex 15.03990316480469 22.292959691329138 0.9750000000000019
endloop
endfacet
facet normal 0.707106781186542 0.707106781186553 1.123252926823152e-14
outer loop
vertex 8.03990268796769 22.292959691329088 3.775000000000002
vertex 7.539902687967776 22.792959691329077 0.5125001311302197
vertex 7.539902687967729 22.79295969132908 4.275000000000001
endloop
endfacet
facet normal 0.707106781186542 0.707106781186553 1.123252926823152e-14
outer loop
vertex 7.539902687967776 22.792959691329077 0.5125001311302197
vertex 8.03990268796769 22.292959691329088 3.775000000000002
vertex 8.039902687967782 22.292959691329084 0.975000000000003
endloop
endfacet
facet normal -5.222583364476516e-15 0.6790418778651747 0.7340995355572276
outer loop
vertex 7.539902687967776 22.792959691329077 0.5125001311302197
vertex 10.73990287870224 22.292959691329106 0.9750000000000022
vertex 11.239902878702283 22.792959691329106 0.512500131130219
endloop
endfacet
facet normal -5.222583364476516e-15 0.6790418778651747 0.7340995355572276
outer loop
vertex 10.73990287870224 22.292959691329106 0.9750000000000022
vertex 7.539902687967776 22.792959691329077 0.5125001311302197
vertex 8.039902687967782 22.292959691329084 0.975000000000003
endloop
endfacet
facet normal -0.7071067811865533 0.7071067811865418 -6.08176762601231e-16
outer loop
vertex 11.239902878702283 22.792959691329106 0.512500131130219
vertex 10.73990287870224 22.292959691329113 3.775000000000002
vertex 11.239902878702283 22.79295969132911 4.275000000000001
endloop
endfacet
facet normal -0.7071067811865533 0.7071067811865418 -6.08176762601231e-16
outer loop
vertex 10.73990287870224 22.292959691329113 3.775000000000002
vertex 11.239902878702283 22.792959691329106 0.512500131130219
vertex 10.73990287870224 22.292959691329106 0.9750000000000022
endloop
endfacet
facet normal -7.93809462606987e-15 1.0 0.0
outer loop
vertex 17.789903355539646 23.59295969132916 3.1500000357627878
vertex 18.664903236330026 23.592959691329167 3.150000035762787
vertex 17.789903355539646 23.59295969132916 2.3499999642372127
endloop
endfacet
facet normal -7.93809462606987e-15 1.0 0.0
outer loop
vertex 18.664903236330026 23.592959691329167 4.05
vertex 19.464903307855995 23.59295969132917 3.150000035762787
vertex 18.664903236330026 23.592959691329167 3.150000035762787
endloop
endfacet
facet normal -7.93809462606987e-15 1.0 0.0
outer loop
vertex 19.464903307855995 23.59295969132917 3.150000035762787
vertex 18.664903236330026 23.592959691329167 4.05
vertex 19.464903307855995 23.59295969132917 4.05
endloop
endfacet
facet normal -7.93809462606987e-15 1.0 0.0
outer loop
vertex 18.664903236330026 23.592959691329167 1.4499999999999995
vertex 19.464903307855995 23.59295969132917 2.3499999642372114
vertex 19.464903307855995 23.59295969132917 1.4499999999999982
endloop
endfacet
facet normal -7.93809462606987e-15 1.0 0.0
outer loop
vertex 19.464903307855995 23.59295969132917 2.3499999642372114
vertex 18.664903236330026 23.592959691329167 1.4499999999999995
vertex 18.664903236330026 23.592959691329167 2.3499999642372114
endloop
endfacet
facet normal -7.93809462606987e-15 1.0 0.0
outer loop
vertex 19.464903307855995 23.59295969132917 2.3499999642372114
vertex 18.664903236330026 23.592959691329167 2.3499999642372114
vertex 17.789903355539646 23.59295969132916 2.3499999642372127
endloop
endfacet
facet normal -7.93809462606987e-15 1.0 0.0
outer loop
vertex 19.464903307855995 23.59295969132917 2.3499999642372114
vertex 17.789903355539646 23.59295969132916 2.3499999642372127
vertex 20.389903140962613 23.59295969132918 2.3499999642372114
endloop
endfacet
facet normal -7.93809462606987e-15 1.0 0.0
outer loop
vertex 20.389903140962613 23.59295969132918 2.3499999642372114
vertex 17.789903355539646 23.59295969132916 2.3499999642372127
vertex 20.389903140962613 23.59295969132918 3.150000035762787
endloop
endfacet
facet normal -7.93809462606987e-15 1.0 0.0
outer loop
vertex 20.389903140962613 23.59295969132918 3.150000035762787
vertex 17.789903355539646 23.59295969132916 2.3499999642372127
vertex 18.664903236330026 23.592959691329167 3.150000035762787
endloop
endfacet
facet normal -7.93809462606987e-15 1.0 0.0
outer loop
vertex 20.389903140962613 23.59295969132918 3.150000035762787
vertex 18.664903236330026 23.592959691329167 3.150000035762787
vertex 19.464903307855995 23.59295969132917 3.150000035762787
endloop
endfacet
facet normal 1.0 7.93809462606987e-15 0.0
outer loop
vertex 19.464903307856 22.79295969132917 1.5499999642372113
vertex 19.464903307855995 23.59295969132917 1.4499999999999982
vertex 19.464903307855995 23.59295969132917 2.3499999642372114
endloop
endfacet
facet normal 1.0 7.93809462606987e-15 0.0
outer loop
vertex 19.464903307855995 23.59295969132917 1.4499999999999982
vertex 19.464903307856 22.79295969132917 1.5499999642372113
vertex 19.464903307856 22.79295969132917 0.6499999999999981
endloop
endfacet
facet normal -1.0 -7.93809462606987e-15 0.0
outer loop
vertex 18.66490323633003 22.792959691329163 0.6499999999999996
vertex 18.664903236330026 23.592959691329167 2.3499999642372114
vertex 18.664903236330026 23.592959691329167 1.4499999999999995
endloop
endfacet
facet normal -1.0 -7.93809462606987e-15 0.0
outer loop
vertex 18.664903236330026 23.592959691329167 2.3499999642372114
vertex 18.66490323633003 22.792959691329163 0.6499999999999996
vertex 18.66490323633003 22.792959691329163 1.5499999642372113
endloop
endfacet
facet normal -1.0 -7.93809462606987e-15 0.0
outer loop
vertex 17.789903355539654 22.792959691329155 1.5499999642372124
vertex 17.789903355539646 23.59295969132916 3.1500000357627878
vertex 17.789903355539646 23.59295969132916 2.3499999642372127
endloop
endfacet
facet normal -1.0 -7.93809462606987e-15 0.0
outer loop
vertex 17.789903355539646 23.59295969132916 3.1500000357627878
vertex 17.789903355539654 22.792959691329155 1.5499999642372124
vertex 17.789903355539654 22.792959691329155 3.1500000357627878
endloop
endfacet
facet normal 1.0 7.93809462606987e-15 0.0
outer loop
vertex 20.389903140962616 22.792959691329177 3.150000035762787
vertex 20.389903140962613 23.59295969132918 2.3499999642372114
vertex 20.389903140962613 23.59295969132918 3.150000035762787
endloop
endfacet
facet normal 1.0 7.93809462606987e-15 0.0
outer loop
vertex 20.389903140962613 23.59295969132918 2.3499999642372114
vertex 20.389903140962616 22.792959691329177 3.150000035762787
vertex 20.389903140962616 22.792959691329177 1.5499999642372113
endloop
endfacet
facet normal -7.93809462606987e-15 1.0 0.0
outer loop
vertex 17.73990335553963 22.792959691329155 0.5250000000000006
vertex 18.66490323633003 22.792959691329163 0.6499999999999996
vertex 19.464903307856 22.79295969132917 0.6499999999999981
endloop
endfacet
facet normal -7.93809462606987e-15 1.0 0.0
outer loop
vertex 18.66490323633003 22.792959691329163 0.6499999999999996
vertex 17.73990335553963 22.792959691329155 0.5250000000000006
vertex 17.789903355539654 22.792959691329155 1.5499999642372124
endloop
endfacet
facet normal -7.93809462606987e-15 1.0 0.0
outer loop
vertex 17.789903355539654 22.792959691329155 1.5499999642372124
vertex 17.73990335553963 22.792959691329155 0.5250000000000006
vertex 17.73990335553963 22.79295969132917 4.275000000000001
endloop
endfacet
facet normal -7.93809462606987e-15 1.0 0.0
outer loop
vertex 18.66490323633003 22.792959691329163 0.6499999999999996
vertex 17.789903355539654 22.792959691329155 1.5499999642372124
vertex 18.66490323633003 22.792959691329163 1.5499999642372113
endloop
endfacet
facet normal -7.93809462606987e-15 1.0 0.0
outer loop
vertex 17.789903355539654 22.792959691329155 1.5499999642372124
vertex 17.73990335553963 22.79295969132917 4.275000000000001
vertex 17.789903355539654 22.792959691329155 3.1500000357627878
endloop
endfacet
facet normal -7.93809462606987e-15 1.0 0.0
outer loop
vertex 17.789903355539654 22.792959691329155 3.1500000357627878
vertex 17.73990335553963 22.79295969132917 4.275000000000001
vertex 18.66490323633003 22.792959691329163 4.05
endloop
endfacet
facet normal -7.93809462606987e-15 1.0 0.0
outer loop
vertex 18.66490323633003 22.792959691329163 4.05
vertex 17.73990335553963 22.79295969132917 4.275000000000001
vertex 19.464903307856 22.79295969132917 4.05
endloop
endfacet
facet normal -7.93809462606987e-15 1.0 0.0
outer loop
vertex 5.389903140962932 22.79295969132906 0.4874998688697828
vertex 7.539902687967776 22.792959691329077 0.5125001311302197
vertex 20.389903140962662 22.792959691329177 0.4874998688697828
endloop
endfacet
facet normal -7.93809462606987e-15 1.0 0.0
outer loop
vertex 7.539902687967776 22.792959691329077 0.5125001311302197
vertex 5.389903140962932 22.79295969132906 0.4874998688697828
vertex 5.389903140962932 22.79295969132906 4.400000000000001
endloop
endfacet
facet normal -7.93809462606987e-15 1.0 0.0
outer loop
vertex 20.389903140962662 22.792959691329177 0.4874998688697828
vertex 7.539902687967776 22.792959691329077 0.5125001311302197
vertex 11.239902878702283 22.792959691329106 0.512500131130219
endloop
endfacet
facet normal -7.93809462606987e-15 1.0 0.0
outer loop
vertex 7.539902687967776 22.792959691329077 0.5125001311302197
vertex 5.389903140962932 22.79295969132906 4.400000000000001
vertex 7.539902687967729 22.79295969132908 4.275000000000001
endloop
endfacet
facet normal -7.93809462606987e-15 1.0 0.0
outer loop
vertex 7.539902687967729 22.79295969132908 4.275000000000001
vertex 5.389903140962932 22.79295969132906 4.400000000000001
vertex 11.239902878702283 22.79295969132911 4.275000000000001
endloop
endfacet
facet normal -7.93809462606987e-15 1.0 0.0
outer loop
vertex 11.239902878702283 22.79295969132911 4.275000000000001
vertex 5.389903140962932 22.79295969132906 4.400000000000001
vertex 14.53990316480473 22.79295969132914 4.275000000000001
endloop
endfacet
facet normal -7.93809462606987e-15 1.0 0.0
outer loop
vertex 14.53990316480473 22.79295969132914 4.275000000000001
vertex 5.389903140962932 22.79295969132906 4.400000000000001
vertex 17.73990335553963 22.79295969132917 4.275000000000001
endloop
endfacet
facet normal -7.93809462606987e-15 1.0 0.0
outer loop
vertex 19.464903307856 22.79295969132917 4.05
vertex 20.389903140962616 22.792959691329177 3.150000035762787
vertex 19.464903307856 22.79295969132917 3.150000035762787
endloop
endfacet
facet normal -7.93809462606987e-15 1.0 0.0
outer loop
vertex 20.389903140962616 22.792959691329177 3.150000035762787
vertex 19.464903307856 22.79295969132917 4.05
vertex 20.389903140962662 22.792959691329177 4.400000000000001
endloop
endfacet
facet normal -7.93809462606987e-15 1.0 0.0
outer loop
vertex 20.389903140962662 22.792959691329177 4.400000000000001
vertex 19.464903307856 22.79295969132917 4.05
vertex 17.73990335553963 22.79295969132917 4.275000000000001
endloop
endfacet
facet normal -7.93809462606987e-15 1.0 0.0
outer loop
vertex 20.389903140962662 22.792959691329177 4.400000000000001
vertex 17.73990335553963 22.79295969132917 4.275000000000001
vertex 5.389903140962932 22.79295969132906 4.400000000000001
endloop
endfacet
facet normal -7.93809462606987e-15 1.0 0.0
outer loop
vertex 11.239902878702283 22.79295969132911 4.275000000000001
vertex 14.53990316480473 22.79295969132913 0.5250000000000006
vertex 11.239902878702283 22.792959691329106 0.512500131130219
endloop
endfacet
facet normal -7.93809462606987e-15 1.0 0.0
outer loop
vertex 14.53990316480473 22.79295969132913 0.5250000000000006
vertex 11.239902878702283 22.79295969132911 4.275000000000001
vertex 14.53990316480473 22.79295969132914 4.275000000000001
endloop
endfacet
facet normal -7.93809462606987e-15 1.0 0.0
outer loop
vertex 18.66490323633003 22.792959691329163 4.05
vertex 18.66490323633003 22.792959691329163 3.150000035762787
vertex 17.789903355539654 22.792959691329155 3.1500000357627878
endloop
endfacet
facet normal -7.93809462606987e-15 1.0 0.0
outer loop
vertex 20.389903140962662 22.792959691329177 0.4874998688697828
vertex 19.464903307856 22.79295969132917 0.6499999999999981
vertex 20.389903140962616 22.792959691329177 1.5499999642372113
endloop
endfacet
facet normal -7.93809462606987e-15 1.0 0.0
outer loop
vertex 19.464903307856 22.79295969132917 0.6499999999999981
vertex 20.389903140962662 22.792959691329177 0.4874998688697828
vertex 17.73990335553963 22.792959691329155 0.5250000000000006
endloop
endfacet
facet normal -7.93809462606987e-15 1.0 0.0
outer loop
vertex 17.73990335553963 22.792959691329155 0.5250000000000006
vertex 20.389903140962662 22.792959691329177 0.4874998688697828
vertex 11.239902878702283 22.792959691329106 0.512500131130219
endloop
endfacet
facet normal -7.93809462606987e-15 1.0 0.0
outer loop
vertex 17.73990335553963 22.792959691329155 0.5250000000000006
vertex 11.239902878702283 22.792959691329106 0.512500131130219
vertex 14.53990316480473 22.79295969132913 0.5250000000000006
endloop
endfacet
facet normal -7.93809462606987e-15 1.0 0.0
outer loop
vertex 20.389903140962616 22.792959691329177 1.5499999642372113
vertex 19.464903307856 22.79295969132917 0.6499999999999981
vertex 19.464903307856 22.79295969132917 1.5499999642372113
endloop
endfacet
facet normal 7.93809462606987e-15 -1.0 0.0
outer loop
vertex 17.889903059751727 0.14295969132915604 1.9874996304512054
vertex 7.889903298170572 0.14295969132907807 0.4874998688697857
vertex 17.889903059751727 0.14295969132915604 0.4874998688697857
endloop
endfacet
facet normal 7.93809462606987e-15 -1.0 0.0
outer loop
vertex 7.889903298170572 0.14295969132907807 0.4874998688697857
vertex 17.889903059751727 0.14295969132915604 1.9874996304512054
vertex 7.889903298170572 0.14295969132907807 1.9874996304512054
endloop
endfacet
facet normal 0.7071067811865778 -0.7071067811865174 1.7102773496406826e-29
outer loop
vertex 18.389903298170307 0.6429596913291636 2.487499868869786
vertex 18.889903298170257 1.1429596913291566 0.4874998688697828
vertex 18.889903298170257 1.1429596913291566 2.487499868869783
endloop
endfacet
facet normal 0.7071067811865778 -0.7071067811865174 1.7102773496406826e-29
outer loop
vertex 18.889903298170257 1.1429596913291566 0.4874998688697828
vertex 18.389903298170307 0.6429596913291636 2.487499868869786
vertex 18.389903298170307 0.6429596913291636 0.4874998688697857
endloop
endfacet
facet normal 0.707106612599178 -0.7071069497738769 0.0
outer loop
vertex 18.389903298170307 0.6429596913291636 2.487499868869786
vertex 17.889903059751727 0.14295969132915604 0.4874998688697857
vertex 18.389903298170307 0.6429596913291636 0.4874998688697857
endloop
endfacet
facet normal 0.707106612599178 -0.7071069497738769 0.0
outer loop
vertex 17.889903059751727 0.14295969132915604 0.4874998688697857
vertex 18.389903298170307 0.6429596913291636 2.487499868869786
vertex 17.889903059751727 0.14295969132915604 1.9874996304512054
endloop
endfacet
facet normal -0.7071067811862478 -0.7071067811868473 5.482139014948054e-18
outer loop
vertex 7.889903298170572 0.14295969132907807 1.9874996304512054
vertex 7.38990329817015 0.642959691329074 0.4874998688697857
vertex 7.889903298170572 0.14295969132907807 0.4874998688697857
endloop
endfacet
facet normal -0.7071067811862478 -0.7071067811868473 5.482139014948054e-18
outer loop
vertex 7.38990329817015 0.642959691329074 0.4874998688697857
vertex 7.889903298170572 0.14295969132907807 1.9874996304512054
vertex 7.38990329817015 0.642959691329074 2.487499868869786
endloop
endfacet
facet normal -0.7071067811865704 -0.7071067811865246 -2.042129074899057e-15
outer loop
vertex 7.38990329817015 0.642959691329074 0.4874998688697857
vertex 6.889903298170192 1.1429596913290614 2.487499868869783
vertex 6.889903298170192 1.142959691329073 0.4874998688697828
endloop
endfacet
facet normal -0.7071067811865704 -0.7071067811865246 -2.042129074899057e-15
outer loop
vertex 6.889903298170192 1.1429596913290614 2.487499868869783
vertex 7.38990329817015 0.642959691329074 0.4874998688697857
vertex 7.38990329817015 0.642959691329074 2.487499868869786
endloop
endfacet
facet normal 7.93809462606987e-15 -1.0 0.0
outer loop
vertex 6.889903298170106 11.792959929747658 4.400000000000001
vertex 5.389903140963019 11.792959929747646 0.4874998688697857
vertex 6.889903298170106 11.792959929747658 0.4874998688697828
endloop
endfacet
facet normal 7.93809462606987e-15 -1.0 0.0
outer loop
vertex 5.389903140963019 11.792959929747646 0.4874998688697857
vertex 6.889903298170106 11.792959929747658 4.400000000000001
vertex 5.389903140963019 11.792959929747646 4.400000000000004
endloop
endfacet
facet normal 7.93809462606987e-15 -1.0 0.0
outer loop
vertex 20.38990314096275 11.792959929747765 0.4874998688697857
vertex 18.88990329817017 11.792959929747752 4.400000000000001
vertex 18.88990329817017 11.792959929747752 0.4874998688697828
endloop
endfacet
facet normal 7.93809462606987e-15 -1.0 0.0
outer loop
vertex 18.88990329817017 11.792959929747752 4.400000000000001
vertex 20.38990314096275 11.792959929747765 0.4874998688697857
vertex 20.38990314096275 11.792959929747765 4.400000000000004
endloop
endfacet
facet normal -1.4102538360394948e-24 -9.62184229884335e-17 -1.0
outer loop
vertex 18.036349907577012 0.9965130819224067 3.383959779057477e-15
vertex 18.389903298170168 12.292959929747745 0.0
vertex 18.389903298170253 1.3500664725156901 9.475087381360936e-16
endloop
endfacet
facet normal -1.4102538360394948e-24 -9.62184229884335e-17 -1.0
outer loop
vertex 18.389903298170168 12.292959929747745 0.0
vertex 19.889903140962666 22.292959691329177 6.31672492090729e-16
vertex 19.889903140962744 12.292959929747756 2.7974067506875144e-15
endloop
endfacet
facet normal -1.4102538360394948e-24 -9.62184229884335e-17 -1.0
outer loop
vertex 19.889903140962666 22.292959691329177 6.31672492090729e-16
vertex 18.389903298170168 12.292959929747745 0.0
vertex 5.88990314096294 22.292959691329067 6.31672492090729e-16
endloop
endfacet
facet normal -1.4102538360394948e-24 -9.62184229884335e-17 -1.0
outer loop
vertex 5.88990314096294 22.292959691329067 6.31672492090729e-16
vertex 18.389903298170168 12.292959929747745 0.0
vertex 18.036349907577012 0.9965130819224067 3.383959779057477e-15
endloop
endfacet
facet normal -1.4102538360394948e-24 -9.62184229884335e-17 -1.0
outer loop
vertex 5.88990314096294 22.292959691329067 6.31672492090729e-16
vertex 18.036349907577012 0.9965130819224067 3.383959779057477e-15
vertex 17.682796348396337 0.6429596913291463 3.383959779057477e-15
endloop
endfacet
facet normal -1.4102538360394948e-24 -9.62184229884335e-17 -1.0
outer loop
vertex 5.88990314096294 22.292959691329067 6.31672492090729e-16
vertex 17.682796348396337 0.6429596913291463 3.383959779057477e-15
vertex 7.389903298170058 12.292959929747658 0.0
endloop
endfacet
facet normal -1.4102538360394948e-24 -9.62184229884335e-17 -1.0
outer loop
vertex 7.389903298170058 12.292959929747658 0.0
vertex 17.682796348396337 0.6429596913291463 3.383959779057477e-15
vertex 8.097010079356966 0.6429596913290683 3.383959779057477e-15
endloop
endfacet
facet normal -1.4102538360394948e-24 -9.62184229884335e-17 -1.0
outer loop
vertex 7.389903298170058 12.292959929747658 0.0
vertex 8.097010079356966 0.6429596913290683 3.383959779057477e-15
vertex 7.7434566887632785 0.9965130819224962 3.383959779057477e-15
endloop
endfacet
facet normal -1.4102538360394948e-24 -9.62184229884335e-17 -1.0
outer loop
vertex 7.389903298170058 12.292959929747658 0.0
vertex 7.7434566887632785 0.9965130819224962 3.383959779057477e-15
vertex 7.389903298170145 1.3500664725156006 9.475087381360936e-16
endloop
endfacet
facet normal -1.4102538360394948e-24 -9.62184229884335e-17 -1.0
outer loop
vertex 5.88990314096294 22.292959691329067 6.31672492090729e-16
vertex 7.389903298170058 12.292959929747658 0.0
vertex 5.8899031409630185 12.292959929747646 2.7974067506875144e-15
endloop
endfacet
facet normal 0.4936312721342472 -0.4936312721342047 -0.7160002334792158
outer loop
vertex 18.389903298170307 0.6429596913291636 0.4874998688697857
vertex 18.389903298170253 1.3500664725156901 9.475087381360936e-16
vertex 18.889903298170257 1.1429596913291566 0.4874998688697828
endloop
endfacet
facet normal 0.4936312721342472 -0.4936312721342047 -0.7160002334792158
outer loop
vertex 18.389903298170253 1.3500664725156901 9.475087381360936e-16
vertex 18.389903298170307 0.6429596913291636 0.4874998688697857
vertex 18.036349907577012 0.9965130819224067 3.383959779057477e-15
endloop
endfacet
facet normal 5.541626397090846e-15 -0.6981000398637114 -0.716000233479211
outer loop
vertex 7.889903298170572 0.14295969132907807 0.4874998688697857
vertex 17.682796348396337 0.6429596913291463 3.383959779057477e-15
vertex 17.889903059751727 0.14295969132915604 0.4874998688697857
endloop
endfacet
facet normal 5.541626397090846e-15 -0.6981000398637114 -0.716000233479211
outer loop
vertex 17.682796348396337 0.6429596913291463 3.383959779057477e-15
vertex 7.889903298170572 0.14295969132907807 0.4874998688697857
vertex 8.097010079356966 0.6429596913290683 3.383959779057477e-15
endloop
endfacet
facet normal -0.49363127213424024 -0.49363127213421143 -0.716000233479216
outer loop
vertex 7.38990329817015 0.642959691329074 0.4874998688697857
vertex 7.389903298170145 1.3500664725156006 9.475087381360936e-16
vertex 7.7434566887632785 0.9965130819224962 3.383959779057477e-15
endloop
endfacet
facet normal -0.49363127213424024 -0.49363127213421143 -0.716000233479216
outer loop
vertex 7.389903298170145 1.3500664725156006 9.475087381360936e-16
vertex 7.38990329817015 0.642959691329074 0.4874998688697857
vertex 6.889903298170192 1.142959691329073 0.4874998688697828
endloop
endfacet
facet normal -0.4936312721340168 -0.49363127213443275 -0.7160002334792175
outer loop
vertex 7.889903298170572 0.14295969132907807 0.4874998688697857
vertex 7.7434566887632785 0.9965130819224962 3.383959779057477e-15
vertex 8.097010079356966 0.6429596913290683 3.383959779057477e-15
endloop
endfacet
facet normal -0.4936312721340168 -0.49363127213443275 -0.7160002334792175
outer loop
vertex 7.7434566887632785 0.9965130819224962 3.383959779057477e-15
vertex 7.889903298170572 0.14295969132907807 0.4874998688697857
vertex 7.38990329817015 0.642959691329074 0.4874998688697857
endloop
endfacet
facet normal -0.6981000398637032 -5.573277381394697e-15 -0.716000233479219
outer loop
vertex 6.889903298170192 1.142959691329073 0.4874998688697828
vertex 7.389903298170058 12.292959929747658 0.0
vertex 7.389903298170145 1.3500664725156006 9.475087381360936e-16
endloop
endfacet
facet normal -0.6981000398637032 -5.573277381394697e-15 -0.716000233479219
outer loop
vertex 7.389903298170058 12.292959929747658 0.0
vertex 6.889903298170192 1.142959691329073 0.4874998688697828
vertex 6.889903298170106 11.792959929747658 0.4874998688697828
endloop
endfacet
facet normal 6.913936912718713e-15 -0.6981000398637071 -0.7160002334792153
outer loop
vertex 18.88990329817017 11.792959929747752 0.4874998688697828
vertex 19.889903140962744 12.292959929747756 2.7974067506875144e-15
vertex 20.38990314096275 11.792959929747765 0.4874998688697857
endloop
endfacet
facet normal 6.913936912718713e-15 -0.6981000398637071 -0.7160002334792153
outer loop
vertex 19.889903140962744 12.292959929747756 2.7974067506875144e-15
vertex 18.88990329817017 11.792959929747752 0.4874998688697828
vertex 18.389903298170168 12.292959929747745 0.0
endloop
endfacet
facet normal 0.698100039863703 5.5094445852177e-15 -0.7160002334792192
outer loop
vertex 18.389903298170253 1.3500664725156901 9.475087381360936e-16
vertex 18.88990329817017 11.792959929747752 0.4874998688697828
vertex 18.889903298170257 1.1429596913291566 0.4874998688697828
endloop
endfacet
facet normal 0.698100039863703 5.5094445852177e-15 -0.7160002334792192
outer loop
vertex 18.88990329817017 11.792959929747752 0.4874998688697828
vertex 18.389903298170253 1.3500664725156901 9.475087381360936e-16
vertex 18.389903298170168 12.292959929747745 0.0
endloop
endfacet
facet normal -5.54158417490124e-15 0.6981000398637052 -0.7160002334792172
outer loop
vertex 19.889903140962666 22.292959691329177 6.31672492090729e-16
vertex 5.389903140962932 22.79295969132906 0.4874998688697828
vertex 20.389903140962662 22.792959691329177 0.4874998688697828
endloop
endfacet
facet normal -5.54158417490124e-15 0.6981000398637052 -0.7160002334792172
outer loop
vertex 5.389903140962932 22.79295969132906 0.4874998688697828
vertex 19.889903140962666 22.292959691329177 6.31672492090729e-16
vertex 5.88990314096294 22.292959691329067 6.31672492090729e-16
endloop
endfacet
facet normal 0.49363115444337513 -0.49363138982505717 -0.71600023347921
outer loop
vertex 17.889903059751727 0.14295969132915604 0.4874998688697857
vertex 18.036349907577012 0.9965130819224067 3.383959779057477e-15
vertex 18.389903298170307 0.6429596913291636 0.4874998688697857
endloop
endfacet
facet normal 0.49363115444337513 -0.49363138982505717 -0.71600023347921
outer loop
vertex 18.036349907577012 0.9965130819224067 3.383959779057477e-15
vertex 17.889903059751727 0.14295969132915604 0.4874998688697857
vertex 17.682796348396337 0.6429596913291463 3.383959779057477e-15
endloop
endfacet
facet normal 0.6981000398637033 5.368543099499807e-15 -0.7160002334792188
outer loop
vertex 19.889903140962744 12.292959929747756 2.7974067506875144e-15
vertex 20.389903140962662 22.792959691329177 0.4874998688697828
vertex 20.38990314096275 11.792959929747765 0.4874998688697857
endloop
endfacet
facet normal 0.6981000398637033 5.368543099499807e-15 -0.7160002334792188
outer loop
vertex 20.389903140962662 22.792959691329177 0.4874998688697828
vertex 19.889903140962744 12.292959929747756 2.7974067506875144e-15
vertex 19.889903140962666 22.292959691329177 6.31672492090729e-16
endloop
endfacet
facet normal -0.6981000398637033 -5.7165262783158574e-15 -0.7160002334792188
outer loop
vertex 5.389903140963019 11.792959929747646 0.4874998688697857
vertex 5.88990314096294 22.292959691329067 6.31672492090729e-16
vertex 5.8899031409630185 12.292959929747646 2.7974067506875144e-15
endloop
endfacet
facet normal -0.6981000398637033 -5.7165262783158574e-15 -0.7160002334792188
outer loop
vertex 5.88990314096294 22.292959691329067 6.31672492090729e-16
vertex 5.389903140963019 11.792959929747646 0.4874998688697857
vertex 5.389903140962932 22.79295969132906 0.4874998688697828
endloop
endfacet
facet normal 4.200071386838659e-15 -0.6981000398637071 -0.7160002334792152
outer loop
vertex 6.889903298170106 11.792959929747658 0.4874998688697828
vertex 5.8899031409630185 12.292959929747646 2.7974067506875144e-15
vertex 7.389903298170058 12.292959929747658 0.0
endloop
endfacet
facet normal 4.200071386838659e-15 -0.6981000398637071 -0.7160002334792152
outer loop
vertex 5.8899031409630185 12.292959929747646 2.7974067506875144e-15
vertex 6.889903298170106 11.792959929747658 0.4874998688697828
vertex 5.389903140963019 11.792959929747646 0.4874998688697857
endloop
endfacet
facet normal 1.4438228390645498e-14 1.3942739301915684e-28 1.0
outer loop
vertex 5.389903140962944 21.292959713003462 4.400000000000213
vertex 20.389903140962684 20.292959734678007 4.399999999999996
vertex 20.389903140962677 21.292959713003597 4.399999999999996
endloop
endfacet
facet normal 1.4438228390645498e-14 1.3942739301915684e-28 1.0
outer loop
vertex 20.389903140962684 20.292959734678007 4.399999999999996
vertex 5.389903140962944 21.292959713003462 4.400000000000213
vertex 5.389903140962953 20.29295973467788 4.400000000000213
endloop
endfacet
facet normal 1.443822839064551e-14 1.1207711982907347e-28 1.0
outer loop
vertex 5.3899031409629705 18.29295977802677 4.400000000000213
vertex 20.389903140962705 17.292959799701265 4.399999999999996
vertex 20.3899031409627 18.292959778026848 4.399999999999996
endloop
endfacet
facet normal 1.443822839064551e-14 1.1207711982907347e-28 1.0
outer loop
vertex 20.389903140962705 17.292959799701265 4.399999999999996
vertex 5.3899031409629705 18.29295977802677 4.400000000000213
vertex 5.389903140962976 17.292959799701187 4.400000000000213
endloop
endfacet
facet normal 1.443822839064552e-14 8.18584033533047e-29 1.0
outer loop
vertex 5.389903140962994 15.292959843050106 4.400000000000213
vertex 20.38990314096271 14.292959864724507 4.399999999999996
vertex 20.3899031409627 15.292959843050097 4.399999999999996
endloop
endfacet
facet normal 1.443822839064552e-14 8.18584033533047e-29 1.0
outer loop
vertex 20.38990314096271 14.292959864724507 4.399999999999996
vertex 5.389903140962994 15.292959843050106 4.400000000000213
vertex 5.389903140963002 14.292959864724521 4.400000000000213
endloop
endfacet
facet normal 1.0 9.350301341891267e-15 -1.388089079491819e-15
outer loop
vertex 20.389903140962677 21.292959713003597 4.399999999999996
vertex 20.389903140962616 22.792959691329177 3.150000035762787
vertex 20.389903140962662 22.792959691329177 4.400000000000001
endloop
endfacet
facet normal 1.0 9.350301341891267e-15 -1.388089079491819e-15
outer loop
vertex 20.389903140962616 22.792959691329177 3.150000035762787
vertex 20.389903140962677 21.292959713003597 4.399999999999996
vertex 20.389903140962616 22.792959691329177 1.5499999642372113
endloop
endfacet
facet normal 1.0 9.350301341891267e-15 -1.388089079491819e-15
outer loop
vertex 20.389903140962616 22.792959691329177 1.5499999642372113
vertex 20.389903140962677 21.292959713003597 4.399999999999996
vertex 20.389903140962662 22.792959691329177 0.4874998688697828
endloop
endfacet
facet normal 1.0 9.350301341891267e-15 -1.388089079491819e-15
outer loop
vertex 20.389903140962662 22.792959691329177 0.4874998688697828
vertex 20.389903140962677 21.292959713003597 4.399999999999996
vertex 20.38990314096275 11.792959929747765 0.4874998688697857
endloop
endfacet
facet normal 1.0 9.350301341891267e-15 -1.388089079491819e-15
outer loop
vertex 20.38990314096275 11.792959929747765 0.4874998688697857
vertex 20.389903140962677 21.292959713003597 4.399999999999996
vertex 20.389903140962684 20.292959734678007 4.399999999999996
endloop
endfacet
facet normal 1.0 9.350301341891267e-15 -1.388089079491819e-15
outer loop
vertex 20.38990314096275 11.792959929747765 0.4874998688697857
vertex 20.389903140962684 20.292959734678007 4.399999999999996
vertex 20.3899031409627 18.292959778026848 4.399999999999996
endloop
endfacet
facet normal 1.0 9.350301341891267e-15 -1.388089079491819e-15
outer loop
vertex 20.38990314096275 11.792959929747765 0.4874998688697857
vertex 20.3899031409627 18.292959778026848 4.399999999999996
vertex 20.389903140962705 17.292959799701265 4.399999999999996
endloop
endfacet
facet normal 1.0 9.350301341891267e-15 -1.388089079491819e-15
outer loop
vertex 20.38990314096275 11.792959929747765 0.4874998688697857
vertex 20.389903140962705 17.292959799701265 4.399999999999996
vertex 20.3899031409627 15.292959843050097 4.399999999999996
endloop
endfacet
facet normal 1.0 9.350301341891267e-15 -1.388089079491819e-15
outer loop
vertex 20.38990314096275 11.792959929747765 0.4874998688697857
vertex 20.3899031409627 15.292959843050097 4.399999999999996
vertex 20.38990314096271 14.292959864724507 4.399999999999996
endloop
endfacet
facet normal 1.0 9.350301341891267e-15 -1.388089079491819e-15
outer loop
vertex 20.38990314096275 11.792959929747765 0.4874998688697857
vertex 20.38990314096271 14.292959864724507 4.399999999999996
vertex 20.38990314096275 11.792959929747765 4.400000000000004
endloop
endfacet
facet normal -1.0 -8.765083650443526e-15 1.9244050641972005e-15
outer loop
vertex 5.389903140963019 11.792959929747646 0.4874998688697857
vertex 5.389903140962932 22.79295969132906 4.400000000000001
vertex 5.389903140962932 22.79295969132906 0.4874998688697828
endloop
endfacet
facet normal -1.0 -8.765083650443526e-15 1.9244050641972005e-15
outer loop
vertex 5.389903140962932 22.79295969132906 4.400000000000001
vertex 5.389903140963019 11.792959929747646 0.4874998688697857
vertex 5.389903140962944 21.292959713003462 4.400000000000213
endloop
endfacet
facet normal -1.0 -8.765083650443526e-15 1.9244050641972005e-15
outer loop
vertex 5.389903140962944 21.292959713003462 4.400000000000213
vertex 5.389903140963019 11.792959929747646 0.4874998688697857
vertex 5.389903140962953 20.29295973467788 4.400000000000213
endloop
endfacet
facet normal -1.0 -8.765083650443526e-15 1.9244050641972005e-15
outer loop
vertex 5.389903140962953 20.29295973467788 4.400000000000213
vertex 5.389903140963019 11.792959929747646 0.4874998688697857
vertex 5.3899031409629705 18.29295977802677 4.400000000000213
endloop
endfacet
facet normal -1.0 -8.765083650443526e-15 1.9244050641972005e-15
outer loop
vertex 5.3899031409629705 18.29295977802677 4.400000000000213
vertex 5.389903140963019 11.792959929747646 0.4874998688697857
vertex 5.389903140962976 17.292959799701187 4.400000000000213
endloop
endfacet
facet normal -1.0 -8.765083650443526e-15 1.9244050641972005e-15
outer loop
vertex 5.389903140962976 17.292959799701187 4.400000000000213
vertex 5.389903140963019 11.792959929747646 0.4874998688697857
vertex 5.389903140962994 15.292959843050106 4.400000000000213
endloop
endfacet
facet normal -1.0 -8.765083650443526e-15 1.9244050641972005e-15
outer loop
vertex 5.389903140962994 15.292959843050106 4.400000000000213
vertex 5.389903140963019 11.792959929747646 0.4874998688697857
vertex 5.389903140963002 14.292959864724521 4.400000000000213
endloop
endfacet
facet normal -1.0 -8.765083650443526e-15 1.9244050641972005e-15
outer loop
vertex 5.389903140963002 14.292959864724521 4.400000000000213
vertex 5.389903140963019 11.792959929747646 0.4874998688697857
vertex 5.389903140963019 11.792959929747646 4.400000000000004
endloop
endfacet
facet normal 7.219114195322384e-15 4.331468651310879e-14 1.0
outer loop
vertex 5.789903140962937 22.39295969132906 4.8000000000000576
vertex 19.98990314096267 21.692959713003596 4.799999999999986
vertex 19.989903140962664 22.39295969132917 4.800000000000018
endloop
endfacet
facet normal 7.219114195322384e-15 4.331468651310879e-14 1.0
outer loop
vertex 19.98990314096267 21.692959713003596 4.799999999999986
vertex 5.789903140962937 22.39295969132906 4.8000000000000576
vertex 5.7899031409629425 21.692959713003464 4.80000000000015
endloop
endfacet
facet normal 1.443822839064553e-14 1.8210753334333382e-28 1.0
outer loop
vertex 5.7899031409629576 19.89295973467788 4.800000000000207
vertex 19.989903140962692 18.69295977802685 4.800000000000002
vertex 19.989903140962685 19.892959734678005 4.800000000000002
endloop
endfacet
facet normal 1.443822839064553e-14 1.8210753334333382e-28 1.0
outer loop
vertex 19.989903140962692 18.69295977802685 4.800000000000002
vertex 5.7899031409629576 19.89295973467788 4.800000000000207
vertex 5.7899031409629655 18.692959778026772 4.800000000000207
endloop
endfacet
facet normal 1.4438228390645533e-14 1.1053542409516776e-28 1.0
outer loop
vertex 5.789903140962981 16.89295979970118 4.800000000000207
vertex 19.98990314096272 15.692959843050096 4.800000000000002
vertex 19.989903140962706 16.89295979970126 4.800000000000002
endloop
endfacet
facet normal 1.4438228390645533e-14 1.1053542409516776e-28 1.0
outer loop
vertex 19.98990314096272 15.692959843050096 4.800000000000002
vertex 5.789903140962981 16.89295979970118 4.800000000000207
vertex 5.789903140962992 15.69295984305011 4.800000000000207
endloop
endfacet
facet normal -1.0 -7.93809462606987e-15 0.0
outer loop
vertex 6.889903298170132 8.792959691329072 4.400000000000001
vertex 6.889903298170106 11.792959929747658 4.400000000000001
vertex 6.889903298170132 8.792959691329072 2.487499868869783
endloop
endfacet
facet normal -1.0 -7.93809462606987e-15 0.0
outer loop
vertex 6.889903298170106 11.792959929747658 0.4874998688697828
vertex 6.889903298170132 8.792959691329072 2.487499868869783
vertex 6.889903298170106 11.792959929747658 4.400000000000001
endloop
endfacet
facet normal -1.0 -7.93809462606987e-15 0.0
outer loop
vertex 6.889903298170132 8.792959691329072 2.487499868869783
vertex 6.889903298170106 11.792959929747658 0.4874998688697828
vertex 6.889903298170192 1.142959691329073 0.4874998688697828
endloop
endfacet
facet normal -1.0 -7.93809462606987e-15 0.0
outer loop
vertex 6.889903298170132 8.792959691329072 2.487499868869783
vertex 6.889903298170192 1.142959691329073 0.4874998688697828
vertex 6.889903298170192 1.1429596913290614 2.487499868869783
endloop
endfacet
facet normal 7.938094639742463e-15 -1.0 1.109015856580033e-15
outer loop
vertex 15.0399031648048 8.792959691329129 3.712500131130249
vertex 14.989903164804868 8.792959691329129 2.4874998688697842
vertex 15.0399031648048 8.792959691329129 2.4874998688697842
endloop
endfacet
facet normal 7.938094639742463e-15 -1.0 1.109015856580033e-15
outer loop
vertex 14.989903164804868 8.792959691329129 2.4874998688697842
vertex 15.0399031648048 8.792959691329129 3.712500131130249
vertex 10.789902878702371 8.792959691329097 2.4874998688697842
endloop
endfacet
facet normal 7.938094639742463e-15 -1.0 1.109015856580033e-15
outer loop
vertex 10.789902878702371 8.792959691329097 2.4874998688697842
vertex 15.0399031648048 8.792959691329129 3.712500131130249
vertex 10.739902878702347 8.792959691329095 2.4874998688697842
endloop
endfacet
facet normal 7.938094639742463e-15 -1.0 1.109015856580033e-15
outer loop
vertex 10.739902878702347 8.792959691329095 2.4874998688697842
vertex 15.0399031648048 8.792959691329129 3.712500131130249
vertex 10.739902878702347 8.792959691329095 3.7125001311302475
endloop
endfacet
facet normal 7.938094639742463e-15 -1.0 1.109015856580033e-15
outer loop
vertex 10.739902878702347 8.792959691329095 3.7125001311302475
vertex 15.0399031648048 8.792959691329129 3.712500131130249
vertex 8.039902687967796 8.792959691329074 3.712500131130248
endloop
endfacet
facet normal 7.938094639742463e-15 -1.0 1.109015856580033e-15
outer loop
vertex 18.889903298170196 8.792959691329166 4.400000000000001
vertex 17.789903355539767 8.792959691329152 2.487499868869784
vertex 18.889903298170196 8.792959691329166 2.487499868869783
endloop
endfacet
facet normal 7.938094639742463e-15 -1.0 1.109015856580033e-15
outer loop
vertex 17.789903355539767 8.792959691329152 2.487499868869784
vertex 18.889903298170196 8.792959691329166 4.400000000000001
vertex 17.73990335553974 8.792959691329152 2.487499868869784
endloop
endfacet
facet normal 7.938094639742463e-15 -1.0 1.109015856580033e-15
outer loop
vertex 17.73990335553974 8.792959691329152 2.487499868869784
vertex 18.889903298170196 8.792959691329166 4.400000000000001
vertex 17.73990335553974 8.792959691329152 3.712500131130249
endloop
endfacet
facet normal 7.938094639742463e-15 -1.0 1.109015856580033e-15
outer loop
vertex 17.73990335553974 8.792959691329152 3.712500131130249
vertex 18.889903298170196 8.792959691329166 4.400000000000001
vertex 15.0399031648048 8.792959691329129 3.712500131130249
endloop
endfacet
facet normal 7.938094639742463e-15 -1.0 1.109015856580033e-15
outer loop
vertex 7.989902687967865 8.792959691329074 2.4874998688697842
vertex 6.889903298170132 8.792959691329072 4.400000000000001
vertex 6.889903298170132 8.792959691329072 2.487499868869783
endloop
endfacet
facet normal 7.938094639742463e-15 -1.0 1.109015856580033e-15
outer loop
vertex 6.889903298170132 8.792959691329072 4.400000000000001
vertex 7.989902687967865 8.792959691329074 2.4874998688697842
vertex 8.039902687967796 8.792959691329074 2.487499868869785
endloop
endfacet
facet normal 7.938094639742463e-15 -1.0 1.109015856580033e-15
outer loop
vertex 6.889903298170132 8.792959691329072 4.400000000000001
vertex 8.039902687967796 8.792959691329074 2.487499868869785
vertex 8.039902687967796 8.792959691329074 3.712500131130248
endloop
endfacet
facet normal 7.938094639742463e-15 -1.0 1.109015856580033e-15
outer loop
vertex 6.889903298170132 8.792959691329072 4.400000000000001
vertex 8.039902687967796 8.792959691329074 3.712500131130248
vertex 15.0399031648048 8.792959691329129 3.712500131130249
endloop
endfacet
facet normal 7.938094639742463e-15 -1.0 1.109015856580033e-15
outer loop
vertex 6.889903298170132 8.792959691329072 4.400000000000001
vertex 15.0399031648048 8.792959691329129 3.712500131130249
vertex 18.889903298170196 8.792959691329166 4.400000000000001
endloop
endfacet
facet normal 1.0 7.93809462606987e-15 0.0
outer loop
vertex 18.889903298170196 8.792959691329166 4.400000000000001
vertex 18.88990329817017 11.792959929747752 0.4874998688697828
vertex 18.88990329817017 11.792959929747752 4.400000000000001
endloop
endfacet
facet normal 1.0 7.93809462606987e-15 0.0
outer loop
vertex 18.88990329817017 11.792959929747752 0.4874998688697828
vertex 18.889903298170196 8.792959691329166 4.400000000000001
vertex 18.889903298170196 8.792959691329166 2.487499868869783
endloop
endfacet
facet normal 1.0 7.93809462606987e-15 0.0
outer loop
vertex 18.88990329817017 11.792959929747752 0.4874998688697828
vertex 18.889903298170196 8.792959691329166 2.487499868869783
vertex 18.889903298170257 1.1429596913291566 0.4874998688697828
endloop
endfacet
facet normal 1.0 7.93809462606987e-15 0.0
outer loop
vertex 18.889903298170257 1.1429596913291566 0.4874998688697828
vertex 18.889903298170196 8.792959691329166 2.487499868869783
vertex 18.889903298170257 1.1429596913291566 2.487499868869783
endloop
endfacet
facet normal 4.463720369620052e-15 -1.5818467490642e-14 1.0
outer loop
vertex 19.98990314096271 13.892959864724515 4.799999999999995
vertex 18.489903298170166 12.192959929747746 4.800000000000006
vertex 19.989903140962745 12.192959929747758 4.800000000000008
endloop
endfacet
facet normal 4.463720369620052e-15 -1.5818467490642e-14 1.0
outer loop
vertex 18.489903298170166 12.192959929747746 4.800000000000006
vertex 19.98990314096271 13.892959864724515 4.799999999999995
vertex 5.789903140963006 13.892959864724517 4.800000000000191
endloop
endfacet
facet normal 4.463720369620052e-15 -1.5818467490642e-14 1.0
outer loop
vertex 18.489903298170166 12.192959929747746 4.800000000000006
vertex 5.789903140963006 13.892959864724517 4.800000000000191
vertex 18.489903298170194 9.192959691329165 4.800000000000006
endloop
endfacet
facet normal 4.463720369620052e-15 -1.5818467490642e-14 1.0
outer loop
vertex 18.489903298170194 9.192959691329165 4.800000000000006
vertex 5.789903140963006 13.892959864724517 4.800000000000191
vertex 7.289903298170104 12.192959929747657 4.800000000000004
endloop
endfacet
facet normal 4.463720369620052e-15 -1.5818467490642e-14 1.0
outer loop
vertex 7.289903298170104 12.192959929747657 4.800000000000004
vertex 5.789903140963006 13.892959864724517 4.800000000000191
vertex 5.789903140963018 12.192959929747644 4.800000000000021
endloop
endfacet
facet normal 4.463720369620052e-15 -1.5818467490642e-14 1.0
outer loop
vertex 7.28990329817013 9.192959691329076 4.800000000000004
vertex 18.489903298170194 9.192959691329165 4.800000000000006
vertex 7.289903298170104 12.192959929747657 4.800000000000004
endloop
endfacet
facet normal -0.7071067811865437 9.26722221179193e-14 0.7071067811865513
outer loop
vertex 5.389903140962932 22.79295969132906 4.400000000000001
vertex 5.7899031409629425 21.692959713003464 4.80000000000015
vertex 5.789903140962937 22.39295969132906 4.8000000000000576
endloop
endfacet
facet normal -0.7071067811865437 9.26722221179193e-14 0.7071067811865513
outer loop
vertex 5.7899031409629425 21.692959713003464 4.80000000000015
vertex 5.389903140962932 22.79295969132906 4.400000000000001
vertex 5.389903140962944 21.292959713003462 4.400000000000213
endloop
endfacet
facet normal 1.3794749945145358e-14 -0.707106781186545 0.7071067811865501
outer loop
vertex 19.989903140962692 18.69295977802685 4.800000000000002
vertex 5.3899031409629705 18.29295977802677 4.400000000000213
vertex 20.3899031409627 18.292959778026848 4.399999999999996
endloop
endfacet
facet normal 1.3794749945145358e-14 -0.707106781186545 0.7071067811865501
outer loop
vertex 5.3899031409629705 18.29295977802677 4.400000000000213
vertex 19.989903140962692 18.69295977802685 4.800000000000002
vertex 5.7899031409629655 18.692959778026772 4.800000000000207
endloop
endfacet
facet normal 1.5710581245340515e-14 -0.7071067811865144 0.7071067811865807
outer loop
vertex 19.98990314096267 21.692959713003596 4.799999999999986
vertex 5.389903140962944 21.292959713003462 4.400000000000213
vertex 20.389903140962677 21.292959713003597 4.399999999999996
endloop
endfacet
facet normal 1.5710581245340515e-14 -0.7071067811865144 0.7071067811865807
outer loop
vertex 5.389903140962944 21.292959713003462 4.400000000000213
vertex 19.98990314096267 21.692959713003596 4.799999999999986
vertex 5.7899031409629425 21.692959713003464 4.80000000000015
endloop
endfacet
facet normal -4.660999908885657e-15 0.7071067811865782 0.7071067811865169
outer loop
vertex 5.789903140962937 22.39295969132906 4.8000000000000576
vertex 20.389903140962662 22.792959691329177 4.400000000000001
vertex 5.389903140962932 22.79295969132906 4.400000000000001
endloop
endfacet
facet normal -4.660999908885657e-15 0.7071067811865782 0.7071067811865169
outer loop
vertex 20.389903140962662 22.792959691329177 4.400000000000001
vertex 5.789903140962937 22.39295969132906 4.8000000000000576
vertex 19.989903140962664 22.39295969132917 4.800000000000018
endloop
endfacet
facet normal 0.7071067811865539 4.106748092132993e-15 0.7071067811865411
outer loop
vertex 19.989903140962685 19.892959734678005 4.800000000000002
vertex 20.3899031409627 18.292959778026848 4.399999999999996
vertex 20.389903140962684 20.292959734678007 4.399999999999996
endloop
endfacet
facet normal 0.7071067811865539 4.106748092132993e-15 0.7071067811865411
outer loop
vertex 20.3899031409627 18.292959778026848 4.399999999999996
vertex 19.989903140962685 19.892959734678005 4.800000000000002
vertex 19.989903140962692 18.69295977802685 4.800000000000002
endloop
endfacet
facet normal 3.758932779992281e-15 0.7071067811865462 0.7071067811865488
outer loop
vertex 5.389903140962953 20.29295973467788 4.400000000000213
vertex 19.989903140962685 19.892959734678005 4.800000000000002
vertex 20.389903140962684 20.292959734678007 4.399999999999996
endloop
endfacet
facet normal 3.758932779992281e-15 0.7071067811865462 0.7071067811865488
outer loop
vertex 19.989903140962685 19.892959734678005 4.800000000000002
vertex 5.389903140962953 20.29295973467788 4.400000000000213
vertex 5.7899031409629576 19.89295973467788 4.800000000000207
endloop
endfacet
facet normal 0.7071067811865539 4.116281841801731e-15 0.7071067811865411
outer loop
vertex 19.989903140962706 16.89295979970126 4.800000000000002
vertex 20.3899031409627 15.292959843050097 4.399999999999996
vertex 20.389903140962705 17.292959799701265 4.399999999999996
endloop
endfacet
facet normal 0.7071067811865539 4.116281841801731e-15 0.7071067811865411
outer loop
vertex 20.3899031409627 15.292959843050097 4.399999999999996
vertex 19.989903140962706 16.89295979970126 4.800000000000002
vertex 19.98990314096272 15.692959843050096 4.800000000000002
endloop
endfacet
facet normal 6.624899704700375e-15 0.7071067811865449 0.7071067811865501
outer loop
vertex 5.389903140962976 17.292959799701187 4.400000000000213
vertex 19.989903140962706 16.89295979970126 4.800000000000002
vertex 20.389903140962705 17.292959799701265 4.399999999999996
endloop
endfacet
facet normal 6.624899704700375e-15 0.7071067811865449 0.7071067811865501
outer loop
vertex 19.989903140962706 16.89295979970126 4.800000000000002
vertex 5.389903140962976 17.292959799701187 4.400000000000213
vertex 5.789903140962981 16.89295979970118 4.800000000000207
endloop
endfacet
facet normal 0.7071067811865513 -4.598748210101976e-15 0.7071067811865437
outer loop
vertex 19.989903140962664 22.39295969132917 4.800000000000018
vertex 20.389903140962677 21.292959713003597 4.399999999999996
vertex 20.389903140962662 22.792959691329177 4.400000000000001
endloop
endfacet
facet normal 0.7071067811865513 -4.598748210101976e-15 0.7071067811865437
outer loop
vertex 20.389903140962677 21.292959713003597 4.399999999999996
vertex 19.989903140962664 22.39295969132917 4.800000000000018
vertex 19.98990314096267 21.692959713003596 4.799999999999986
endloop
endfacet
facet normal 9.739411609199421e-15 -0.7071067811865476 0.7071067811865476
outer loop
vertex 19.98990314096272 15.692959843050096 4.800000000000002
vertex 5.389903140962994 15.292959843050106 4.400000000000213
vertex 20.3899031409627 15.292959843050097 4.399999999999996
endloop
endfacet
facet normal 9.739411609199421e-15 -0.7071067811865476 0.7071067811865476
outer loop
vertex 5.389903140962994 15.292959843050106 4.400000000000213
vertex 19.98990314096272 15.692959843050096 4.800000000000002
vertex 5.789903140962992 15.69295984305011 4.800000000000207
endloop
endfacet
facet normal -0.7071067811865412 -5.603546790125693e-15 0.7071067811865539
outer loop
vertex 5.389903140962976 17.292959799701187 4.400000000000213
vertex 5.789903140962992 15.69295984305011 4.800000000000207
vertex 5.789903140962981 16.89295979970118 4.800000000000207
endloop
endfacet
facet normal -0.7071067811865412 -5.603546790125693e-15 0.7071067811865539
outer loop
vertex 5.789903140962992 15.69295984305011 4.800000000000207
vertex 5.389903140962976 17.292959799701187 4.400000000000213
vertex 5.389903140962994 15.292959843050106 4.400000000000213
endloop
endfacet
facet normal 1.0441974757119593e-14 0.707106781186538 0.7071067811865571
outer loop
vertex 5.389903140963002 14.292959864724521 4.400000000000213
vertex 19.98990314096271 13.892959864724515 4.799999999999995
vertex 20.38990314096271 14.292959864724507 4.399999999999996
endloop
endfacet
facet normal 1.0441974757119593e-14 0.707106781186538 0.7071067811865571
outer loop
vertex 19.98990314096271 13.892959864724515 4.799999999999995
vertex 5.389903140963002 14.292959864724521 4.400000000000213
vertex 5.789903140963006 13.892959864724517 4.800000000000191
endloop
endfacet
facet normal -0.7071067811865309 -1.041809037284154e-14 0.7071067811865642
outer loop
vertex 5.389903140962953 20.29295973467788 4.400000000000213
vertex 5.7899031409629655 18.692959778026772 4.800000000000207
vertex 5.7899031409629576 19.89295973467788 4.800000000000207
endloop
endfacet
facet normal -0.7071067811865309 -1.041809037284154e-14 0.7071067811865642
outer loop
vertex 5.7899031409629655 18.692959778026772 4.800000000000207
vertex 5.389903140962953 20.29295973467788 4.400000000000213
vertex 5.3899031409629705 18.29295977802677 4.400000000000213
endloop
endfacet
facet normal 4.429328621608564e-15 -0.7071067811865555 0.7071067811865397
outer loop
vertex 20.38990314096275 11.792959929747765 4.400000000000004
vertex 18.489903298170166 12.192959929747746 4.800000000000006
vertex 18.88990329817017 11.792959929747752 4.400000000000001
endloop
endfacet
facet normal 4.429328621608564e-15 -0.7071067811865555 0.7071067811865397
outer loop
vertex 18.489903298170166 12.192959929747746 4.800000000000006
vertex 20.38990314096275 11.792959929747765 4.400000000000004
vertex 19.989903140962745 12.192959929747758 4.800000000000008
endloop
endfacet
facet normal 5.570733482855458e-15 -0.7071067811865495 0.7071067811865457
outer loop
vertex 18.489903298170194 9.192959691329165 4.800000000000006
vertex 6.889903298170132 8.792959691329072 4.400000000000001
vertex 18.889903298170196 8.792959691329166 4.400000000000001
endloop
endfacet
facet normal 5.570733482855458e-15 -0.7071067811865495 0.7071067811865457
outer loop
vertex 6.889903298170132 8.792959691329072 4.400000000000001
vertex 18.489903298170194 9.192959691329165 4.800000000000006
vertex 7.28990329817013 9.192959691329076 4.800000000000004
endloop
endfacet
facet normal 1.021721923616268e-14 -0.7071067811865622 0.7071067811865328
outer loop
vertex 7.289903298170104 12.192959929747657 4.800000000000004
vertex 5.389903140963019 11.792959929747646 4.400000000000004
vertex 6.889903298170106 11.792959929747658 4.400000000000001
endloop
endfacet
facet normal 1.021721923616268e-14 -0.7071067811865622 0.7071067811865328
outer loop
vertex 5.389903140963019 11.792959929747646 4.400000000000004
vertex 7.289903298170104 12.192959929747657 4.800000000000004
vertex 5.789903140963018 12.192959929747644 4.800000000000021
endloop
endfacet
facet normal 0.70710678118655 5.607132039885433e-15 0.7071067811865451
outer loop
vertex 18.489903298170194 9.192959691329165 4.800000000000006
vertex 18.88990329817017 11.792959929747752 4.400000000000001
vertex 18.489903298170166 12.192959929747746 4.800000000000006
endloop
endfacet
facet normal 0.70710678118655 5.607132039885433e-15 0.7071067811865451
outer loop
vertex 18.88990329817017 11.792959929747752 4.400000000000001
vertex 18.489903298170194 9.192959691329165 4.800000000000006
vertex 18.889903298170196 8.792959691329166 4.400000000000001
endloop
endfacet
facet normal -0.7071067811865488 -5.617541914726319e-15 0.7071067811865462
outer loop
vertex 6.889903298170106 11.792959929747658 4.400000000000001
vertex 7.28990329817013 9.192959691329076 4.800000000000004
vertex 7.289903298170104 12.192959929747657 4.800000000000004
endloop
endfacet
facet normal -0.7071067811865488 -5.617541914726319e-15 0.7071067811865462
outer loop
vertex 7.28990329817013 9.192959691329076 4.800000000000004
vertex 6.889903298170106 11.792959929747658 4.400000000000001
vertex 6.889903298170132 8.792959691329072 4.400000000000001
endloop
endfacet
facet normal -0.707106781186544 -6.8133116639464e-14 0.7071067811865511
outer loop
vertex 5.389903140963002 14.292959864724521 4.400000000000213
vertex 5.789903140963018 12.192959929747644 4.800000000000021
vertex 5.789903140963006 13.892959864724517 4.800000000000191
endloop
endfacet
facet normal -0.707106781186544 -6.8133116639464e-14 0.7071067811865511
outer loop
vertex 5.789903140963018 12.192959929747644 4.800000000000021
vertex 5.389903140963002 14.292959864724521 4.400000000000213
vertex 5.389903140963019 11.792959929747646 4.400000000000004
endloop
endfacet
facet normal 0.7071067811865454 1.3772802078307342e-14 0.7071067811865498
outer loop
vertex 20.38990314096271 14.292959864724507 4.399999999999996
vertex 19.989903140962745 12.192959929747758 4.800000000000008
vertex 20.38990314096275 11.792959929747765 4.400000000000004
endloop
endfacet
facet normal 0.7071067811865454 1.3772802078307342e-14 0.7071067811865498
outer loop
vertex 19.989903140962745 12.192959929747758 4.800000000000008
vertex 20.38990314096271 14.292959864724507 4.399999999999996
vertex 19.98990314096271 13.892959864724515 4.799999999999995
endloop
endfacet
facet normal 4.882898981533495e-18 6.532670889478704e-17 1.0
outer loop
vertex 7.989902687967865 8.792959691329074 2.4874998688697842
vertex 8.789902878702602 2.092959595961589 2.4874998688697842
vertex 8.789902878702563 6.992959691329028 2.4874998688697842
endloop
endfacet
facet normal 4.882898981533495e-18 6.532670889478704e-17 1.0
outer loop
vertex 17.789903355539767 8.792959691329152 2.487499868869784
vertex 18.889903298170257 1.1429596913291566 2.487499868869783
vertex 18.889903298170196 8.792959691329166 2.487499868869783
endloop
endfacet
facet normal 4.882898981533495e-18 6.532670889478704e-17 1.0
outer loop
vertex 18.889903298170257 1.1429596913291566 2.487499868869783
vertex 17.789903355539767 8.792959691329152 2.487499868869784
vertex 18.389903298170307 0.6429596913291636 2.487499868869786
endloop
endfacet
facet normal 4.882898981533495e-18 6.532670889478704e-17 1.0
outer loop
vertex 18.389903298170307 0.6429596913291636 2.487499868869786
vertex 17.789903355539767 8.792959691329152 2.487499868869784
vertex 16.989903164804744 2.0929595959616556 2.4874998688697842
endloop
endfacet
facet normal 4.882898981533495e-18 6.532670889478704e-17 1.0
outer loop
vertex 18.389903298170307 0.6429596913291636 2.487499868869786
vertex 16.989903164804744 2.0929595959616556 2.4874998688697842
vertex 7.38990329817015 0.642959691329074 2.487499868869786
endloop
endfacet
facet normal 4.882898981533495e-18 6.532670889478704e-17 1.0
outer loop
vertex 16.989903164804744 2.0929595959616556 2.4874998688697842
vertex 17.789903355539767 8.792959691329152 2.487499868869784
vertex 16.989903320869065 6.992959691329117 2.4874998688697842
endloop
endfacet
facet normal 4.882898981533495e-18 6.532670889478704e-17 1.0
outer loop
vertex 7.38990329817015 0.642959691329074 2.487499868869786
vertex 16.989903164804744 2.0929595959616556 2.4874998688697842
vertex 15.789903355539511 2.092959595961644 2.4874998688697842
endloop
endfacet
facet normal 4.882898981533495e-18 6.532670889478704e-17 1.0
outer loop
vertex 7.38990329817015 0.642959691329074 2.487499868869786
vertex 15.789903355539511 2.092959595961644 2.4874998688697842
vertex 9.989903641641602 2.092959595961598 2.4874998688697842
endloop
endfacet
facet normal 4.882898981533495e-18 6.532670889478704e-17 1.0
outer loop
vertex 9.989903641641602 2.092959595961598 2.4874998688697842
vertex 15.789903355539511 2.092959595961644 2.4874998688697842
vertex 15.789902557930063 6.992959691329106 2.4874998688697842
endloop
endfacet
facet normal 4.882898981533495e-18 6.532670889478704e-17 1.0
outer loop
vertex 9.989903641641602 2.092959595961598 2.4874998688697842
vertex 15.789902557930063 6.992959691329106 2.4874998688697842
vertex 14.989903164804868 8.792959691329129 2.4874998688697842
endloop
endfacet
facet normal 4.882898981533495e-18 6.532670889478704e-17 1.0
outer loop
vertex 9.989903641641602 2.092959595961598 2.4874998688697842
vertex 14.989903164804868 8.792959691329129 2.4874998688697842
vertex 10.789902878702371 8.792959691329097 2.4874998688697842
endloop
endfacet
facet normal 4.882898981533495e-18 6.532670889478704e-17 1.0
outer loop
vertex 9.989903641641602 2.092959595961598 2.4874998688697842
vertex 10.789902878702371 8.792959691329097 2.4874998688697842
vertex 9.989903641641563 6.992959691329037 2.4874998688697842
endloop
endfacet
facet normal 4.882898981533495e-18 6.532670889478704e-17 1.0
outer loop
vertex 7.38990329817015 0.642959691329074 2.487499868869786
vertex 9.989903641641602 2.092959595961598 2.4874998688697842
vertex 8.789902878702602 2.092959595961589 2.4874998688697842
endloop
endfacet
facet normal 4.882898981533495e-18 6.532670889478704e-17 1.0
outer loop
vertex 7.38990329817015 0.642959691329074 2.487499868869786
vertex 8.789902878702602 2.092959595961589 2.4874998688697842
vertex 7.989902687967865 8.792959691329074 2.4874998688697842
endloop
endfacet
facet normal 4.882898981533495e-18 6.532670889478704e-17 1.0
outer loop
vertex 7.38990329817015 0.642959691329074 2.487499868869786
vertex 7.989902687967865 8.792959691329074 2.4874998688697842
vertex 6.889903298170132 8.792959691329072 2.487499868869783
endloop
endfacet
facet normal 4.882898981533495e-18 6.532670889478704e-17 1.0
outer loop
vertex 7.38990329817015 0.642959691329074 2.487499868869786
vertex 6.889903298170132 8.792959691329072 2.487499868869783
vertex 6.889903298170192 1.1429596913290614 2.487499868869783
endloop
endfacet
facet normal 0.0 0.0 1.0
outer loop
vertex 15.789902557930063 6.992959691329106 2.034999910589821
vertex 16.989903164804748 1.7929595959616544 2.034999910589821
vertex 16.989903320869065 6.992959691329117 2.034999910589821
endloop
endfacet
facet normal 0.0 0.0 1.0
outer loop
vertex 16.989903164804748 1.7929595959616544 2.034999910589821
vertex 15.789902557930063 6.992959691329106 2.034999910589821
vertex 15.789903355539513 1.792959595961643 2.034999910589821
endloop
endfacet
facet normal 0.0 0.0 1.0
outer loop
vertex 8.789902878702563 6.992959691329028 2.0349999105898195
vertex 9.989903641641606 1.7929595959615967 2.0349999105898195
vertex 9.989903641641563 6.992959691329037 2.0349999105898195
endloop
endfacet
facet normal 0.0 0.0 1.0
outer loop
vertex 9.989903641641606 1.7929595959615967 2.0349999105898195
vertex 8.789902878702563 6.992959691329028 2.0349999105898195
vertex 8.789902878702604 1.792959595961588 2.0349999105898195
endloop
endfacet
facet normal -7.93809462606987e-15 1.0 0.0
outer loop
vertex 8.789902878702604 1.792959595961588 2.3374998450279314
vertex 9.989903641641606 1.7929595959615967 2.0349999105898195
vertex 8.789902878702604 1.792959595961588 2.0349999105898195
endloop
endfacet
facet normal -7.93809462606987e-15 1.0 0.0
outer loop
vertex 9.989903641641606 1.7929595959615967 2.0349999105898195
vertex 8.789902878702604 1.792959595961588 2.3374998450279314
vertex 9.989903641641606 1.7929595959615967 2.3374998450279314
endloop
endfacet
facet normal 1.0 7.93809462606987e-15 0.0
outer loop
vertex 8.789902878702602 2.092959595961589 2.4874998688697842
vertex 8.789902878702563 6.992959691329028 2.0349999105898195
vertex 8.789902878702563 6.992959691329028 2.4874998688697842
endloop
endfacet
facet normal 1.0 7.93809462606987e-15 0.0
outer loop
vertex 8.789902878702563 6.992959691329028 2.0349999105898195
vertex 8.789902878702602 2.092959595961589 2.4874998688697842
vertex 8.789902878702604 1.792959595961588 2.0349999105898195
endloop
endfacet
facet normal 1.0 7.93809462606987e-15 0.0
outer loop
vertex 8.789902878702604 1.792959595961588 2.0349999105898195
vertex 8.789902878702602 2.092959595961589 2.4874998688697842
vertex 8.789902878702604 1.792959595961588 2.3374998450279314
endloop
endfacet
facet normal -1.0 -7.93809462606987e-15 0.0
outer loop
vertex 9.989903641641606 1.7929595959615967 2.0349999105898195
vertex 9.989903641641563 6.992959691329037 2.4874998688697842
vertex 9.989903641641563 6.992959691329037 2.0349999105898195
endloop
endfacet
facet normal -1.0 -7.93809462606987e-15 0.0
outer loop
vertex 9.989903641641563 6.992959691329037 2.4874998688697842
vertex 9.989903641641606 1.7929595959615967 2.0349999105898195
vertex 9.989903641641602 2.092959595961598 2.4874998688697842
endloop
endfacet
facet normal -1.0 -7.93809462606987e-15 0.0
outer loop
vertex 9.989903641641602 2.092959595961598 2.4874998688697842
vertex 9.989903641641606 1.7929595959615967 2.0349999105898195
vertex 9.989903641641606 1.7929595959615967 2.3374998450279314
endloop
endfacet
facet normal -7.93809462606987e-15 1.0 0.0
outer loop
vertex 15.789903355539513 1.792959595961643 2.3374998450279314
vertex 16.989903164804748 1.7929595959616544 2.034999910589821
vertex 15.789903355539513 1.792959595961643 2.034999910589821
endloop
endfacet
facet normal -7.93809462606987e-15 1.0 0.0
outer loop
vertex 16.989903164804748 1.7929595959616544 2.034999910589821
vertex 15.789903355539513 1.792959595961643 2.3374998450279314
vertex 16.989903164804748 1.7929595959616544 2.3374998450279314
endloop
endfacet
facet normal -0.9999999999999996 3.051519085494427e-08 -8.84335936249551e-09
outer loop
vertex 16.989903164804748 1.7929595959616544 2.034999910589821
vertex 16.989903320869065 6.992959691329117 2.4874998688697842
vertex 16.989903320869065 6.992959691329117 2.034999910589821
endloop
endfacet
facet normal -0.9999999999999996 3.051519085494427e-08 -8.84335936249551e-09
outer loop
vertex 16.989903320869065 6.992959691329117 2.4874998688697842
vertex 16.989903164804748 1.7929595959616544 2.034999910589821
vertex 16.989903164804744 2.0929595959616556 2.4874998688697842
endloop
endfacet
facet normal -0.9999999999999996 3.051519085494427e-08 -8.84335936249551e-09
outer loop
vertex 16.989903164804744 2.0929595959616556 2.4874998688697842
vertex 16.989903164804748 1.7929595959616544 2.034999910589821
vertex 16.989903164804748 1.7929595959616544 2.3374998450279314
endloop
endfacet
facet normal 0.9999999999999869 1.5595621036289032e-07 -4.51963872890508e-08
outer loop
vertex 15.789903355539511 2.092959595961644 2.4874998688697842
vertex 15.789902557930063 6.992959691329106 2.034999910589821
vertex 15.789902557930063 6.992959691329106 2.4874998688697842
endloop
endfacet
facet normal 0.9999999999999869 1.5595621036289032e-07 -4.51963872890508e-08
outer loop
vertex 15.789902557930063 6.992959691329106 2.034999910589821
vertex 15.789903355539511 2.092959595961644 2.4874998688697842
vertex 15.789903355539513 1.792959595961643 2.034999910589821
endloop
endfacet
facet normal 0.9999999999999869 1.5595621036289032e-07 -4.51963872890508e-08
outer loop
vertex 15.789903355539513 1.792959595961643 2.034999910589821
vertex 15.789903355539511 2.092959595961644 2.4874998688697842
vertex 15.789903355539513 1.792959595961643 2.3374998450279314
endloop
endfacet
facet normal 7.93809462606987e-15 -1.0 7.965919112080292e-15
outer loop
vertex 15.0399031648048 8.792959691329129 2.4874998688697842
vertex 14.989903164804868 8.792959691329118 1.0374998688698136
vertex 15.0399031648048 8.792959691329118 1.0374998688698136
endloop
endfacet
facet normal 7.93809462606987e-15 -1.0 7.965919112080292e-15
outer loop
vertex 14.989903164804868 8.792959691329118 1.0374998688698136
vertex 15.0399031648048 8.792959691329129 2.4874998688697842
vertex 14.989903164804868 8.792959691329129 2.4874998688697842
endloop
endfacet
facet normal -5.615222349475768e-15 0.4847143647630156 0.8746725013354348
outer loop
vertex 17.73990335553974 8.792959691329152 1.0374998688698134
vertex 16.989903320869065 6.992959691329117 2.034999910589821
vertex 17.789903355539767 8.792959691329152 1.0374998688698134
endloop
endfacet
facet normal -5.615222349475768e-15 0.4847143647630156 0.8746725013354348
outer loop
vertex 16.989903320869065 6.992959691329117 2.034999910589821
vertex 17.73990335553974 8.792959691329152 1.0374998688698134
vertex 15.0399031648048 8.792959691329118 1.0374998688698136
endloop
endfacet
facet normal -5.615222349475768e-15 0.4847143647630156 0.8746725013354348
outer loop
vertex 16.989903320869065 6.992959691329117 2.034999910589821
vertex 15.0399031648048 8.792959691329118 1.0374998688698136
vertex 15.789902557930063 6.992959691329106 2.034999910589821
endloop
endfacet
facet normal -5.615222349475768e-15 0.4847143647630156 0.8746725013354348
outer loop
vertex 15.789902557930063 6.992959691329106 2.034999910589821
vertex 15.0399031648048 8.792959691329118 1.0374998688698136
vertex 14.989903164804868 8.792959691329118 1.0374998688698136
endloop
endfacet
facet normal 0.9138116629643989 0.4061382087790311 -2.937937472198924e-15
outer loop
vertex 15.789902557930063 6.992959691329106 2.4874998688697842
vertex 14.989903164804868 8.792959691329118 1.0374998688698136
vertex 14.989903164804868 8.792959691329129 2.4874998688697842
endloop
endfacet
facet normal 0.9138116629643989 0.4061382087790311 -2.937937472198924e-15
outer loop
vertex 14.989903164804868 8.792959691329118 1.0374998688698136
vertex 15.789902557930063 6.992959691329106 2.4874998688697842
vertex 15.789902557930063 6.992959691329106 2.034999910589821
endloop
endfacet
facet normal -0.9138115420877883 0.40613848075150244 4.738608199316503e-17
outer loop
vertex 16.989903320869065 6.992959691329117 2.034999910589821
vertex 17.789903355539767 8.792959691329152 2.487499868869784
vertex 17.789903355539767 8.792959691329152 1.0374998688698134
endloop
endfacet
facet normal -0.9138115420877883 0.40613848075150244 4.738608199316503e-17
outer loop
vertex 17.789903355539767 8.792959691329152 2.487499868869784
vertex 16.989903320869065 6.992959691329117 2.034999910589821
vertex 16.989903320869065 6.992959691329117 2.4874998688697842
endloop
endfacet
facet normal 7.93809462606987e-15 -1.0 0.0
outer loop
vertex 17.789903355539767 8.792959691329152 2.487499868869784
vertex 17.73990335553974 8.792959691329152 1.0374998688698134
vertex 17.789903355539767 8.792959691329152 1.0374998688698134
endloop
endfacet
facet normal 7.93809462606987e-15 -1.0 0.0
outer loop
vertex 17.73990335553974 8.792959691329152 1.0374998688698134
vertex 17.789903355539767 8.792959691329152 2.487499868869784
vertex 17.73990335553974 8.792959691329152 2.487499868869784
endloop
endfacet
facet normal 7.938094626069757e-15 -1.0 7.965919112080293e-15
outer loop
vertex 8.039902687967889 8.792959691329063 1.0374998688698143
vertex 7.989902687967865 8.792959691329074 2.4874998688697842
vertex 7.989902687967865 8.792959691329063 1.0374998688698136
endloop
endfacet
facet normal 7.938094626069757e-15 -1.0 7.965919112080293e-15
outer loop
vertex 7.989902687967865 8.792959691329074 2.4874998688697842
vertex 8.039902687967889 8.792959691329063 1.0374998688698143
vertex 8.039902687967796 8.792959691329074 2.487499868869785
endloop
endfacet
facet normal 0.9138115126830209 0.4061385469122196 2.364565415371546e-14
outer loop
vertex 8.789902878702563 6.992959691329028 2.4874998688697842
vertex 7.989902687967865 8.792959691329063 1.0374998688698136
vertex 7.989902687967865 8.792959691329074 2.4874998688697842
endloop
endfacet
facet normal 0.9138115126830209 0.4061385469122196 2.364565415371546e-14
outer loop
vertex 7.989902687967865 8.792959691329063 1.0374998688698136
vertex 8.789902878702563 6.992959691329028 2.4874998688697842
vertex 8.789902878702563 6.992959691329028 2.0349999105898195
endloop
endfacet
facet normal -3.743646043266719e-15 0.4847143647630115 0.8746725013354373
outer loop
vertex 10.739902878702347 8.792959691329083 1.0374998688698136
vertex 9.989903641641563 6.992959691329037 2.0349999105898195
vertex 10.789902878702371 8.792959691329086 1.0374998688698136
endloop
endfacet
facet normal -3.743646043266719e-15 0.4847143647630115 0.8746725013354373
outer loop
vertex 9.989903641641563 6.992959691329037 2.0349999105898195
vertex 10.739902878702347 8.792959691329083 1.0374998688698136
vertex 8.039902687967889 8.792959691329063 1.0374998688698143
endloop
endfacet
facet normal -3.743646043266719e-15 0.4847143647630115 0.8746725013354373
outer loop
vertex 9.989903641641563 6.992959691329037 2.0349999105898195
vertex 8.039902687967889 8.792959691329063 1.0374998688698143
vertex 8.789902878702563 6.992959691329028 2.0349999105898195
endloop
endfacet
facet normal -3.743646043266719e-15 0.4847143647630115 0.8746725013354373
outer loop
vertex 8.789902878702563 6.992959691329028 2.0349999105898195
vertex 8.039902687967889 8.792959691329063 1.0374998688698143
vertex 7.989902687967865 8.792959691329063 1.0374998688698136
endloop
endfacet
facet normal -0.9138116923692263 0.4061381426181127 -2.843165387164266e-15
outer loop
vertex 10.789902878702371 8.792959691329086 1.0374998688698136
vertex 9.989903641641563 6.992959691329037 2.4874998688697842
vertex 10.789902878702371 8.792959691329097 2.4874998688697842
endloop
endfacet
facet normal -0.9138116923692263 0.4061381426181127 -2.843165387164266e-15
outer loop
vertex 9.989903641641563 6.992959691329037 2.4874998688697842
vertex 10.789902878702371 8.792959691329086 1.0374998688698136
vertex 9.989903641641563 6.992959691329037 2.0349999105898195
endloop
endfacet
facet normal 7.938094626069861e-15 -1.0 7.96591911208029e-15
outer loop
vertex 10.789902878702371 8.792959691329097 2.4874998688697842
vertex 10.739902878702347 8.792959691329083 1.0374998688698136
vertex 10.789902878702371 8.792959691329086 1.0374998688698136
endloop
endfacet
facet normal 7.938094626069861e-15 -1.0 7.96591911208029e-15
outer loop
vertex 10.739902878702347 8.792959691329083 1.0374998688698136
vertex 10.789902878702371 8.792959691329097 2.4874998688697842
vertex 10.739902878702347 8.792959691329095 2.4874998688697842
endloop
endfacet
endsolid USB-M-OK
